<svg width="132" height="38" viewBox="0 0 132 38" fill="none" xmlns="http://www.w3.org/2000/svg">
<path d="M21.8463 4.48L21.8063 8.6H0.12625V4.48H8.28625V0.559999H13.6063V4.48H21.8463ZM6.96625 17C6.96625 19.04 8.60625 20.12 10.9663 20.12C13.2863 20.12 14.9663 19.04 14.9663 17C14.9663 15 13.2863 13.92 10.9663 13.92C8.60625 13.92 6.96625 15 6.96625 17ZM20.0063 17C20.0063 21.24 16.2463 24.12 10.9663 24.12C5.68625 24.12 1.92625 21.24 1.92625 17C1.92625 12.84 5.68625 9.92 10.9663 9.92C16.2463 9.92 20.0063 12.84 20.0063 17ZM10.6463 26.12V32.6H30.4463V36.8H5.36625V26.12H10.6463ZM29.1263 11.84H34.0063V16.2H29.1263V28.16H23.8463V0.599998H29.1263V11.84ZM85.7194 4.8C80.3994 4.8 77.8794 5.56 77.8794 7.2C77.8794 8.92 80.3994 9.64 85.7194 9.64C91.0794 9.64 93.5994 8.92 93.5994 7.2C93.5994 5.56 91.0794 4.8 85.7194 4.8ZM85.7194 13.48C77.3194 13.48 72.3994 11.28 72.3994 7.2C72.3994 3.16 77.3194 0.919999 85.7194 0.919999C94.1594 0.919999 99.0794 3.16 99.0794 7.2C99.0794 11.28 94.1594 13.48 85.7194 13.48ZM102.359 19.24H88.3194V21.64H98.3194V31.12H78.1594V33.2H99.2794V37.16H72.9194V27.48H93.1194V25.52H72.8794V21.64H83.0394V19.24H69.0794V15.08H102.359V19.24Z" fill="#FF9C9C"/>
<path d="M49.2351 28.032H43.6031V30.112H47.6991V35.376H45.5711V31.776H37.2351V30.112H41.4911V28.032H35.8911V26.352H45.2671C45.5391 25.008 45.5871 23.936 45.5871 22.96H37.5391V21.264H47.6671V22.448C47.6671 23.552 47.6671 24.784 47.3791 26.352H49.2351V28.032ZM55.3459 21.616C57.6499 21.616 59.4099 23.136 59.4099 25.248C59.4099 27.376 57.6499 28.88 55.3459 28.88C53.0419 28.88 51.2979 27.376 51.2979 25.248C51.2979 23.136 53.0419 21.616 55.3459 21.616ZM55.3459 23.424C54.2099 23.424 53.3459 24.096 53.3459 25.248C53.3459 26.4 54.2099 27.072 55.3459 27.072C56.4819 27.072 57.3459 26.4 57.3459 25.248C57.3459 24.096 56.4819 23.424 55.3459 23.424ZM60.7859 20.624H62.8979V35.408H60.7859V20.624ZM50.9459 32.416L50.6739 30.704C53.2659 30.704 56.8819 30.688 59.9859 30.224L60.1139 31.744C56.9459 32.384 53.4899 32.416 50.9459 32.416ZM107.532 27.616V30.352C109.612 30.336 111.308 30.256 113.228 29.968L113.42 31.648C111.18 31.984 109.196 32.048 106.668 32.048H105.42V21.856H112.348V23.568H107.532V25.968H112.14V27.616H107.532ZM118.524 26.224V27.968H116.38V35.392H114.268V20.64H116.38V26.224H118.524ZM122.507 27.584V30.24C124.747 30.224 126.603 30.112 128.683 29.76L128.907 31.472C126.507 31.888 124.347 31.984 121.675 31.984H120.347V25.92H125.131V23.568H120.331V21.888H127.291V27.584H122.507ZM129.707 20.624H131.819V35.408H129.707V20.624Z" fill="#CCCCCC"/>
</svg>
