<svg width="360" height="180" viewBox="0 0 360 180" fill="none" xmlns="http://www.w3.org/2000/svg">
<path d="M108.965 62.1044L108.901 70.0967H74V62.1044H87.136V54.5H95.7003V62.1044H108.965ZM85.0111 86.3918C85.0111 90.3492 87.6512 92.4443 91.4504 92.4443C95.1851 92.4443 97.8896 90.3492 97.8896 86.3918C97.8896 82.512 95.1851 80.4169 91.4504 80.4169C87.6512 80.4169 85.0111 82.512 85.0111 86.3918ZM106.003 86.3918C106.003 94.6169 99.9502 100.204 91.4504 100.204C82.9505 100.204 76.8977 94.6169 76.8977 86.3918C76.8977 78.3219 82.9505 72.6574 91.4504 72.6574C99.9502 72.6574 106.003 78.3219 106.003 86.3918ZM90.9353 104.084V116.654H122.809V124.802H82.4354V104.084H90.9353ZM120.684 76.382H128.54V84.8399H120.684V108.041H112.185V54.5776H120.684V76.382ZM211.788 62.7251C203.224 62.7251 199.168 64.1995 199.168 67.3809C199.168 70.7175 203.224 72.1142 211.788 72.1142C220.417 72.1142 224.474 70.7175 224.474 67.3809C224.474 64.1995 220.417 62.7251 211.788 62.7251ZM211.788 79.5634C198.266 79.5634 190.346 75.2956 190.346 67.3809C190.346 59.5437 198.266 55.1984 211.788 55.1984C225.375 55.1984 233.295 59.5437 233.295 67.3809C233.295 75.2956 225.375 79.5634 211.788 79.5634ZM238.575 90.7372H215.974V95.3929H232.072V113.783H199.618V117.818H233.617V125.5H191.183V106.722H223.701V102.92H191.119V95.3929H207.474V90.7372H185.001V82.6672H238.575V90.7372Z" fill="#FF9C9C"/>
<path d="M153.056 107.793H143.99V111.828H150.583V122.039H147.158V115.056H133.738V111.828H140.59V107.793H131.575V104.534H146.668C147.106 101.926 147.183 99.8468 147.183 97.9535H134.228V94.6634H150.532V96.9603C150.532 99.1019 150.532 101.492 150.068 104.534H153.056V107.793ZM162.893 95.3463C166.602 95.3463 169.435 98.2949 169.435 102.392C169.435 106.52 166.602 109.438 162.893 109.438C159.184 109.438 156.377 106.52 156.377 102.392C156.377 98.2949 159.184 95.3463 162.893 95.3463ZM162.893 98.8536C161.064 98.8536 159.674 100.157 159.674 102.392C159.674 104.627 161.064 105.93 162.893 105.93C164.722 105.93 166.113 104.627 166.113 102.392C166.113 100.157 164.722 98.8536 162.893 98.8536ZM171.651 93.4219H175.05V122.101H171.651V93.4219ZM155.81 116.297L155.372 112.976C159.545 112.976 165.366 112.945 170.363 112.045L170.569 114.993C165.469 116.235 159.905 116.297 155.81 116.297ZM246.903 106.986V112.293C250.251 112.262 252.981 112.107 256.072 111.548L256.381 114.807C252.775 115.459 249.581 115.583 245.512 115.583H243.503V95.8119H254.656V99.1329H246.903V103.789H254.321V106.986H246.903ZM264.598 104.285V107.668H261.146V122.07H257.746V93.4529H261.146V104.285H264.598ZM271.01 106.924V112.076C274.616 112.045 277.603 111.828 280.952 111.145L281.312 114.466C277.449 115.273 273.972 115.459 269.67 115.459H267.532V103.696H275.234V99.1329H267.507V95.8739H278.711V106.924H271.01ZM282.6 93.4219H286V122.101H282.6V93.4219Z" fill="#CCCCCC"/>
</svg>
