<svg width="360" height="180" viewBox="0 0 360 180" fill="none" xmlns="http://www.w3.org/2000/svg">
<path d="M273.295 88.84C271.83 87.9397 269.006 89.6343 266.076 93.6724C259.333 103.006 255.453 115.915 257.036 120.813C262.539 116.232 276.859 90.9715 273.295 88.84Z" fill="#7ECEF4"/>
<path d="M194.085 101.033C196.948 94.6124 197.846 89.118 196.064 88.8267C190.35 89.3695 180.227 113.982 181.217 121.475C185.19 117.861 191.274 107.388 194.085 101.033Z" fill="#FDD000"/>
<path d="M203.93 79.8504C205.047 78.946 205.973 77.8265 206.653 76.5578C207.333 75.2892 207.753 73.8969 207.889 72.4628C208.76 66.6772 205.698 65.5386 205.698 65.5386C205.128 68.1699 204.081 70.6738 202.61 72.9262C201.819 74.1306 200.854 75.2104 199.746 76.1301C198.427 77.2158 197.806 77.4541 196.803 77.3746C195.484 77.2555 194.705 76.3287 193.966 76.1963C193.549 76.0637 193.102 76.0556 192.68 76.1732C192.258 76.2907 191.88 76.5288 191.59 76.8583C193.53 77.1628 194.573 78.4867 196.13 79.5062C197.843 80.66 199.74 81.5109 201.739 82.0217C203.038 82.3581 204.4 82.3581 205.698 82.0217C207.049 81.5674 208.223 80.6961 209.05 79.5327C207.451 80.3098 205.612 80.4239 203.93 79.8504Z" fill="#F5A200"/>
<path d="M149.346 56.2313C148.773 56.0002 148.167 55.8617 147.551 55.8208C147.72 55.6047 147.87 55.3744 148 55.1324C149.148 52.8552 148.171 49.4791 148.171 49.4791C147.686 50.6095 146.929 51.6013 145.967 52.3653C145.486 52.7767 145.064 53.2535 144.714 53.7819C144.598 53.5156 144.461 53.2588 144.305 53.0141C143.058 51.5323 141.369 50.4925 139.488 50.0484C140.234 51.0232 140.724 52.1704 140.913 53.3848C141 53.9925 141.182 54.5824 141.454 55.1324C141.186 55.1108 140.917 55.1108 140.649 55.1324C138.076 55.2383 135.647 57.7802 135.647 57.7802C136.866 57.6498 138.097 57.818 139.237 58.2701C139.841 58.5005 140.478 58.6344 141.124 58.6673C140.927 58.9188 140.763 59.1946 140.636 59.4881C139.474 61.7785 140.504 65.1281 140.504 65.1281C140.976 64.0008 141.709 63.0024 142.642 62.2154C143.14 61.8363 143.584 61.3909 143.962 60.8915C144.057 61.1367 144.176 61.3717 144.318 61.5932C145.717 63.7645 149.108 64.5985 149.108 64.5985C148.378 63.6125 147.898 62.4629 147.71 61.249C147.622 60.5984 147.426 59.9673 147.129 59.3822C147.435 59.4227 147.746 59.4227 148.053 59.3822C150.626 59.1969 153.002 56.6152 153.002 56.6152C151.77 56.7891 150.515 56.6573 149.346 56.2313Z" fill="#FDD000"/>
<path d="M273.81 101.47C276.687 94.8507 277.888 88.5487 274.417 87.3969C271.778 86.5363 268.993 87.6484 266.367 89.8064C260.665 94.4667 254.832 105.972 252.971 114.326C251.505 113.855 249.956 113.702 248.428 113.878C246.898 114.054 245.424 114.554 244.103 115.345C242.935 116.126 241.927 117.124 241.134 118.284C240.051 119.86 238.903 123.368 236.778 122.932C235.459 122.64 238.692 118.112 237.689 116.232C236.369 113.836 234.218 115.623 232.766 117.093C230.853 119.052 226.009 124.692 223.278 123.964C222.314 123.236 226.907 116.021 223.396 115.239C220.612 114.657 217.84 117.331 215.927 119.661C214.606 121.303 208.945 128.214 208.272 124.692C207.717 121.965 214.039 115.067 207.915 116.021C207.097 116.14 206.292 117.013 205.408 116.987C204.524 116.961 203.64 115.928 202.848 115.795C201.816 115.654 200.765 115.742 199.771 116.053C198.776 116.364 197.862 116.891 197.094 117.596C193.544 120.76 191.643 125.05 194.309 128.188L194.56 128.426C193.367 129.066 192.058 129.458 190.711 129.576C189.363 129.694 188.006 129.537 186.721 129.114C185.627 128.903 184.613 128.395 183.787 127.645C182.961 126.896 182.355 125.934 182.036 124.864C188.976 117.826 194.422 109.449 198.044 100.239C201.647 91.3025 201.37 85.6757 196.724 86.576C185.177 88.7208 174.751 113.942 176.136 124.97C174.587 126.327 172.796 127.378 170.857 128.068C169.076 128.651 166.304 128.757 165.79 127.314C164.826 124.666 169.657 121.687 168.35 119.37C167.73 118.284 166.252 118.841 165.394 118.179C164.536 117.517 164.945 115.954 164.074 115.186C161.54 113.028 158.663 117.556 160.432 119.807C162.754 122.826 157.08 127.552 152.645 129.141C149.161 130.399 145.928 128.744 146.297 125.407C147.696 125.378 149.077 125.096 150.375 124.573C153.741 123.13 157.053 119.039 154.453 116.179C153.95 115.753 153.348 115.459 152.703 115.325C152.057 115.191 151.389 115.221 150.758 115.412C149.051 115.752 147.476 116.574 146.218 117.781C145.112 118.838 144.217 120.096 143.579 121.488C142.325 120.932 142.826 119.291 142.259 118.258C141.692 117.225 139.686 117.159 139.342 119.238C139.049 121.736 138.226 124.142 136.927 126.294C135.066 128.942 132.823 129.3 132.401 129.194C128.758 128.413 134.816 117.278 130.975 117.371C130.101 117.376 129.25 117.654 128.541 118.167C127.831 118.679 127.298 119.401 127.016 120.231C124.997 125.209 122.714 126.533 123.334 127.539C123.73 128.214 126.66 126.758 128.125 124.388C127.993 126.281 127.214 130.399 128.771 131.908C129.348 132.383 130.056 132.668 130.8 132.725C131.544 132.782 132.287 132.608 132.929 132.226C136.531 130.571 139.065 126.771 140.398 123.461C141.026 124.034 141.756 124.483 142.549 124.785C142.404 126.718 142.285 128.757 143.539 130.332C147.129 135.032 154.295 131.113 157.713 128.36C160.004 126.475 161.986 124.241 163.586 121.74C163.722 121.856 163.823 122.008 163.876 122.179C163.93 122.35 163.934 122.533 163.889 122.706C163.579 123.723 163.135 124.693 162.57 125.593C161.619 127.618 160.96 129.895 163.177 131.312C164.76 132.332 167.373 132.186 170.092 131.312C172.575 130.599 174.918 129.467 177.021 127.963C178.433 130.928 181.217 132.808 185.401 133.417C190.561 134.185 195.51 132.093 198.598 130.107C201.025 128.46 203.26 126.546 205.263 124.401C204.616 125.725 204.035 128.373 205.368 129.445C207.269 131.034 209.539 128.611 210.911 127.473C212.93 125.791 219.569 119.648 218.487 125.963C218.144 127.949 216.309 130.24 219.384 129.935C222.789 129.551 227.989 123.593 230.51 123.21C233.756 122.693 231.473 125.434 230.945 126.744C230.628 127.539 230.391 128.717 231.117 129.088C232.727 129.909 237.254 127.764 239.391 124.864C239.459 125.157 239.547 125.445 239.655 125.725C241.054 129.128 245.357 130.399 248.775 129.843C251.01 129.439 253.126 128.534 254.964 127.195C256.284 128.691 257.604 129.459 260.771 130.173C262.247 130.518 263.781 130.518 265.258 130.173C266.116 129.988 266.578 129.71 266.578 129.406C266.578 129.101 265.786 129.061 264.545 128.691C262.074 128.032 259.908 126.529 258.422 124.441C264.862 118.351 271.012 107.693 273.81 101.325M149.57 119.45C150.441 118.96 151.787 118.682 152.342 119.277C152.44 119.463 152.476 119.677 152.442 119.884C152.409 120.092 152.309 120.284 152.157 120.429C151.577 121.018 150.874 121.47 150.098 121.753C149.455 122.004 148.787 122.185 148.105 122.296C147.769 122.319 147.431 122.292 147.102 122.217C147.635 121.06 148.493 120.084 149.57 119.41M196.064 88.7473C197.846 89.0386 196.949 94.5329 194.085 100.954C191.221 107.375 185.19 117.821 181.217 121.396C180.241 113.942 190.35 89.2901 196.064 88.7473ZM197.278 125.606C194.639 123.541 200.591 117.662 203.006 118.205C207.612 119.33 199.522 127.38 197.278 125.606ZM245.277 125.818C242.955 124.494 243.337 120.813 245.66 118.536C247.472 116.71 249.927 115.669 252.496 115.637C251.976 118.472 252.116 121.39 252.906 124.163C251.309 125.857 247.627 127.181 245.277 125.818ZM257.036 120.773C255.453 115.875 259.333 102.966 266.076 93.6326C269.006 89.5946 271.83 87.9 273.295 88.8003C276.859 90.9715 262.54 116.232 257.036 120.813V120.773Z" fill="#004EA2"/>
<path d="M176.387 85.5037C171.399 90.058 165.513 92.0175 158.914 92.9972C154.297 93.7089 149.605 93.798 144.964 93.262C140.847 92.7284 136.769 91.9235 132.757 90.8524C126.963 89.3828 121.526 86.8806 115.798 85.0932C113.405 84.2426 110.934 83.6305 108.421 83.2662C102.034 82.6572 97.375 85.3315 95.6462 88.8135C94.6057 90.8851 94.2446 93.2335 94.6144 95.5233C94.9841 97.813 96.0658 99.927 97.7049 101.563C94.3743 102.423 91.3202 104.128 88.8364 106.515C86.6108 108.623 84.988 111.29 84.1364 114.24C83.2847 117.189 83.2352 120.314 83.993 123.289C85.8274 130.2 92.2149 135.059 99.1038 136.052C104.271 136.984 109.6 136.096 114.188 133.536C117.718 131.245 120.611 128.093 122.595 124.375C123.07 123.527 126.105 117.384 124.707 116.974C124.099 116.802 123.743 117.278 122.912 118.867C120.523 123.646 116.669 128.558 111.39 130.24C107.565 131.403 103.459 131.221 99.7505 129.723C96.1459 128.323 93.1721 125.654 91.3834 122.217C90.6363 120.71 90.2159 119.061 90.15 117.379C90.084 115.697 90.3739 114.02 91.0007 112.459C92.9671 108.037 95.9761 105.747 100.595 104.118C101.653 104.769 102.756 105.344 103.894 105.839C107.933 107.614 114.597 109.401 120.972 107.256C125.683 105.681 124.733 100.199 114.716 99.4713C110.572 99.1498 106.404 99.4849 102.364 100.464C101.37 98.8939 100.934 97.033 101.125 95.1829C101.317 93.3328 102.125 91.6017 103.419 90.2699C104.447 89.2585 105.682 88.4828 107.037 87.996C108.393 87.5092 109.838 87.3228 111.272 87.4499C123.836 87.7544 138.907 98.571 158.848 98.6901C166.41 98.6901 171.728 97.1676 174.896 93.2752C176.444 91.3036 177.43 88.9468 177.746 86.4569C177.997 84.6034 177.535 84.4445 176.427 85.5037M111.628 102.026C116.379 101.96 119.362 103.258 118.979 104.939C118.649 106.369 114.492 106.66 112.38 106.369C110.044 106.025 106.151 104.701 104.66 103.006C106.899 102.295 109.241 101.964 111.588 102.026H111.628Z" fill="#004EA2"/>
<path d="M176.757 79.9696L176.651 71.6287L178.274 68.16H176.572L169.3 49.9293L169.01 43.5876C167.34 43.7414 165.736 44.3201 164.351 45.269C163.164 46.1283 161.704 46.5237 160.247 46.3811C160.867 46.9767 161.643 47.3827 162.484 47.5515C163.326 47.7203 164.198 47.645 164.998 47.3344C166.19 46.936 167.487 46.9925 168.64 47.4932V49.9425L161.857 68.3586H160.155L161.87 71.0065L162.121 89.1312C167.835 87.8735 173.193 85.4242 176.757 79.9696Z" fill="#8FC31F"/>
</svg>
