<svg width="360" height="180" viewBox="0 0 360 180" fill="none" xmlns="http://www.w3.org/2000/svg">
<path d="M140.277 93.4572C139.743 92.6488 138.832 91.4792 138.832 90.3096C138.832 89.4152 139.107 88.5208 139.554 87.7984L166.696 50.2336C166.971 49.9584 166.971 49.5112 166.971 49.064C166.971 47.8944 166.077 47 164.907 47H136.768C133.345 47 130.559 49.9584 130.559 53.3812V126.705C130.559 130.214 133.345 133 136.768 133C136.768 133 164.443 133 164.89 133C166.059 133 166.954 132.106 166.954 130.936C166.954 130.489 166.782 130.042 166.593 129.594L140.277 93.4572Z" fill="#ED0000"/>
<path d="M215.045 77.6332C217.109 77.6332 218.107 76.7388 218.107 74.5716C218.107 72.6796 217.126 71.7852 215.045 71.7852C212.981 71.7852 211.983 72.5936 211.983 74.5716C212.069 76.6528 212.964 77.6332 215.045 77.6332Z" fill="#ED0000"/>
<path d="M215.578 87.248H212.62V92.7348H215.578C217.109 92.7348 217.831 91.7544 217.831 89.8624C217.831 87.9704 217.109 87.248 215.578 87.248Z" fill="#ED0000"/>
<path d="M223.215 47H195.179C192.668 47 190.948 48.1696 188.884 49.9584L142.255 89.5012C141.979 89.7764 141.979 89.9484 141.979 90.3096C141.979 90.5848 142.065 90.8428 142.255 91.118L190.157 131.194C191.498 132.278 193.304 132.983 195.196 132.983H223.146C226.655 132.983 229.441 130.196 229.441 126.688V53.364C229.424 49.9584 226.638 47 223.215 47ZM209.644 54.3616H212.603V58.6788L216.92 54.3616H221.048L215.75 59.5732L221.323 64.7848H217.092L212.689 60.4676V64.7848H209.627V54.3616H209.644ZM215.045 69.274C218.915 69.274 221.065 71.166 221.065 74.5716C221.065 78.1664 218.915 80.1444 215.045 80.1444C211.175 80.1444 209.025 78.0804 209.025 74.5716C209.025 71.166 211.175 69.274 215.045 69.274ZM220.79 89.8624C220.79 93.4572 219.001 95.246 215.578 95.246H209.644V84.6508H215.578C219.173 84.6508 220.79 86.3536 220.79 89.8624ZM216.92 125.621L212.517 121.304V125.621H209.644V115.198H212.603V119.515L216.92 115.198H220.876L215.75 120.41L221.323 125.621H216.92ZM218.175 110.434L217.453 108.645H212.689L211.966 110.434H208.819L213.308 99.8212H216.903L221.392 110.434H218.175Z" fill="#ED0000"/>
<path d="M213.6 106.306H216.558L215.045 102.625L213.6 106.306Z" fill="#ED0000"/>
</svg>
