<svg width="16" height="16" viewBox="0 0 16 16" fill="none" xmlns="http://www.w3.org/2000/svg">
<path d="M9.02564 0.615385C9.02564 0.275517 9.30116 0 9.64103 0H15.3846C15.7245 0 16 0.275517 16 0.615385V6.35897C16 6.69884 15.7245 6.97436 15.3846 6.97436C15.0447 6.97436 14.7692 6.69884 14.7692 6.35897V1.23077H9.64103C9.30116 1.23077 9.02564 0.955252 9.02564 0.615385Z" fill="white"/>
<path d="M1.84615 1.23077C1.50629 1.23077 1.23077 1.50629 1.23077 1.84615V14.1538C1.23077 14.4937 1.50628 14.7692 1.84615 14.7692H14.1538C14.4937 14.7692 14.7692 14.4937 14.7692 14.1538V10.2456C14.7692 9.90575 15.0447 9.63024 15.3846 9.63024C15.7245 9.63024 16 9.90575 16 10.2456V14.1538C16 15.1735 15.1735 16 14.1538 16H1.84615C0.82656 16 0 15.1735 0 14.1538V1.84615C0 0.826553 0.826553 0 1.84615 0H5.53846C5.87833 0 6.15385 0.275517 6.15385 0.615385C6.15385 0.955252 5.87833 1.23077 5.53846 1.23077H1.84615Z" fill="white"/>
<path d="M15.4505 0.549469C15.6908 0.789791 15.6908 1.17943 15.4505 1.41975L9.1736 7.69668C8.93328 7.937 8.54364 7.937 8.30332 7.69668C8.063 7.45636 8.06299 7.06672 8.30332 6.8264L14.5802 0.549469C14.8206 0.309146 15.2102 0.309146 15.4505 0.549469Z" fill="white"/>
</svg>
