<svg width="64" height="60" viewBox="0 0 64 60" fill="none" xmlns="http://www.w3.org/2000/svg">
<path d="M40.2837 28.5303L15.2976 24.121V56.7013C15.2976 58.1892 16.5038 59.3954 17.9917 59.3954H61.1059C62.5938 59.3954 63.7999 58.1892 63.7999 56.7013V44.6977L40.2837 28.5303Z" fill="#185C37"/>
<path d="M40.2837 0.604736H17.9917C16.5038 0.604736 15.2976 1.81091 15.2976 3.29881V15.3024L40.2837 30.0001L53.5116 34.4094L63.7999 30.0001V15.3024L40.2837 0.604736Z" fill="#21A366"/>
<path d="M15.2976 15.3024H40.2837V30H15.2976V15.3024Z" fill="#107C41"/>
<path opacity="0.1" d="M33.1803 12.3629H15.2976V49.1071H33.1803C34.6662 49.1022 35.8695 47.8989 35.8744 46.413V15.057C35.8695 13.5711 34.6662 12.3677 33.1803 12.3629Z" fill="black"/>
<path opacity="0.2" d="M31.7105 13.8326H15.2976V50.5768H31.7105C33.1964 50.572 34.3998 49.3686 34.4046 47.8827V16.5267C34.3998 15.0408 33.1964 13.8375 31.7105 13.8326Z" fill="black"/>
<path opacity="0.2" d="M31.7105 13.8326H15.2976V47.6373H31.7105C33.1964 47.6324 34.3998 46.4291 34.4046 44.9432V16.5267C34.3998 15.0408 33.1964 13.8375 31.7105 13.8326Z" fill="black"/>
<path opacity="0.2" d="M30.2408 13.8326H15.2976V47.6373H30.2408C31.7266 47.6324 32.93 46.4291 32.9348 44.9432V16.5267C32.93 15.0408 31.7266 13.8375 30.2408 13.8326Z" fill="black"/>
<path d="M3.29405 13.8326H30.2407C31.7286 13.8326 32.9348 15.0388 32.9348 16.5267V43.4734C32.9348 44.9613 31.7286 46.1675 30.2407 46.1675H3.29405C1.80615 46.1675 0.599976 44.9613 0.599976 43.4734V16.5267C0.599976 15.0388 1.80615 13.8326 3.29405 13.8326Z" fill="url(#paint0_linear_48_1591)"/>
<path d="M8.94382 38.7569L14.6112 29.9751L9.41856 21.2417H13.5956L16.4293 26.8268C16.691 27.3574 16.8703 27.7513 16.9673 28.0114H17.004C17.1902 27.5881 17.3862 27.1771 17.5919 26.7783L20.6211 21.2447H24.4557L19.1307 29.9266L24.591 38.7569H20.5109L17.2377 32.6265C17.0835 32.3657 16.9527 32.0917 16.8468 31.8079H16.7983C16.7024 32.086 16.5752 32.3522 16.4191 32.6015L13.0489 38.7569H8.94382Z" fill="white"/>
<path d="M61.1059 0.604736H40.2837V15.3024H63.7999V3.29881C63.7999 1.81091 62.5938 0.604736 61.1059 0.604736Z" fill="#33C481"/>
<path d="M40.2837 30H63.7999V44.6977H40.2837V30Z" fill="#107C41"/>
<defs>
<linearGradient id="paint0_linear_48_1591" x1="6.21719" y1="11.7275" x2="27.3176" y2="48.2726" gradientUnits="userSpaceOnUse">
<stop stop-color="#18884F"/>
<stop offset="0.5" stop-color="#117E43"/>
<stop offset="1" stop-color="#0B6631"/>
</linearGradient>
</defs>
</svg>
