<svg width="69" height="68" viewBox="0 0 69 68" fill="none" xmlns="http://www.w3.org/2000/svg">
<path d="M0.462372 0H68.4624V68H0.462372V0Z" fill="#F7DF1E"/>
<path d="M18.342 56.8253L23.5457 53.6768C24.5495 55.4567 25.4626 56.9624 27.6537 56.9624C29.7531 56.9624 31.0775 56.141 31.0775 52.9461V31.2185H37.4673V53.0367C37.4673 59.6554 33.5881 62.6679 27.9279 62.6679C22.816 62.6679 19.8478 60.0202 18.342 56.8253ZM40.9385 56.141L46.1422 53.1285C47.5119 55.3649 49.2918 57.0088 52.4413 57.0088C55.089 57.0088 56.7772 55.6844 56.7772 53.8592C56.7772 51.6681 55.0426 50.892 52.1218 49.6141L50.5244 48.9287C45.9133 46.9664 42.8555 44.5033 42.8555 39.2975C42.8555 34.5051 46.507 30.8536 52.2125 30.8536C56.2752 30.8536 59.1971 32.2687 61.2965 35.9655L56.3206 39.1604C55.225 37.1981 54.0388 36.4221 52.2125 36.4221C50.342 36.4221 49.1547 37.6094 49.1547 39.1604C49.1547 41.0785 50.342 41.8588 53.0803 43.0407L54.6778 43.7261C60.1092 46.0533 63.1681 48.4268 63.1681 53.7642C63.1681 59.5162 58.6488 62.6647 52.5784 62.6647C46.6419 62.6647 42.8102 59.8357 40.9385 56.1378" fill="black"/>
</svg>
