<svg width="47" height="71" viewBox="0 0 47 71" fill="none" xmlns="http://www.w3.org/2000/svg">
<path d="M11.75 70.5C18.236 70.5 23.5 65.236 23.5 58.75V47H11.75C5.26397 47 -3.05176e-05 52.264 -3.05176e-05 58.75C-3.05176e-05 65.236 5.26397 70.5 11.75 70.5Z" fill="#0ACF83"/>
<path d="M-3.05176e-05 35.25C-3.05176e-05 28.764 5.26397 23.5 11.75 23.5H23.5V47H11.75C5.26397 47 -3.05176e-05 41.736 -3.05176e-05 35.25Z" fill="#A259FF"/>
<path d="M0 11.75C0 5.264 5.264 0 11.75 0H23.5V23.5H11.75C5.264 23.5 0 18.236 0 11.75Z" fill="#F24E1E"/>
<path d="M23.4999 0H35.2499C41.7359 0 46.9999 5.264 46.9999 11.75C46.9999 18.236 41.7359 23.5 35.2499 23.5H23.4999V0Z" fill="#FF7262"/>
<path d="M46.9999 35.25C46.9999 41.736 41.7359 47 35.2499 47C28.7639 47 23.4999 41.736 23.4999 35.25C23.4999 28.764 28.7639 23.5 35.2499 23.5C41.7359 23.5 46.9999 28.764 46.9999 35.25Z" fill="#1ABCFE"/>
</svg>
