<svg width="76" height="21" viewBox="0 0 76 21" fill="none" xmlns="http://www.w3.org/2000/svg">
<path d="M29.0942 17.9912C29.0942 18.1594 29.078 18.3304 29.0562 18.5122L29.7319 17.2856L29.6587 16.8867L30.3344 16.7836L30.5813 18.4796L30.8934 17.4159C30.9164 17.3271 30.93 17.2361 30.9341 17.1445C30.9369 17.0529 30.926 16.9614 30.9015 16.8731L31.6125 16.7402C31.6937 17.0902 31.6475 17.4577 31.4823 17.7768L30.9124 19.3127H30.0657L29.8866 18.1648L29.2245 19.3127H28.4104C28.4446 18.4977 28.4173 17.6813 28.329 16.8704L29.0345 16.7619C29.0915 17.169 29.1115 17.5804 29.0942 17.9912ZM33.4985 17.3996C33.1702 17.576 33.0508 17.6438 32.7523 17.8256L32.4375 19.3154H31.7048L32.2204 16.8514L32.8689 16.7429L32.8418 17.0848C33.0567 16.9549 33.2807 16.8406 33.5121 16.7429L33.4985 17.3996ZM33.9218 16.846L34.679 16.7429L34.1362 19.3154H33.4035L33.9218 16.846ZM34.1579 15.7307L34.9151 15.6248L34.7468 16.4037L33.9978 16.5095L34.1579 15.7307ZM36.0358 17.3752L35.7644 18.637L35.7509 18.7021C35.7509 18.7401 35.7699 18.7564 35.8214 18.7564C35.9596 18.7448 36.0946 18.709 36.2203 18.6506L36.3479 19.1607C36.0965 19.2927 35.8176 19.3633 35.5338 19.367C35.1647 19.367 34.9748 19.1906 34.991 18.8894C34.9929 18.8529 34.9974 18.8166 35.0046 18.7808L35.3031 17.3752H34.9286L35.0534 16.789H35.4279L35.5528 16.1811L36.3099 16.0916L36.1606 16.8026H36.7631L36.5975 17.3887L36.0358 17.3752ZM36.9069 17.6899C37.0317 17.1092 37.3058 16.7374 38.1036 16.7374C38.5812 16.7374 38.9367 16.9437 38.9177 17.3697C38.8987 17.8636 38.6463 18.0916 38.0086 18.2788C37.6993 18.3711 37.6938 18.3711 37.4659 18.4281L37.4279 18.6044C37.4089 18.6994 37.4279 18.7808 37.5527 18.7808C37.899 18.7497 38.237 18.6579 38.5514 18.5095L38.6735 19.0278C38.3005 19.242 37.8796 19.3587 37.4496 19.367C36.9259 19.367 36.7088 19.139 36.7251 18.7076C36.7292 18.6043 36.7428 18.5017 36.7658 18.4009L36.9069 17.6899ZM38.2393 17.4484C38.2393 17.3589 38.166 17.3019 38.0331 17.3019C37.7617 17.3019 37.683 17.4539 37.6396 17.6601L37.6043 17.8365C37.7291 17.8066 37.7861 17.7958 37.9381 17.7496C38.1389 17.6899 38.2339 17.5977 38.2393 17.4484ZM40.8091 15.7551L41.5662 15.652L40.7929 19.3154H40.0629L40.8091 15.7551ZM41.6612 17.6899C41.7833 17.1092 42.0574 16.7374 42.8552 16.7374C43.3328 16.7374 43.6883 16.9437 43.6693 17.3697C43.6503 17.8636 43.398 18.0916 42.7603 18.2788C42.4509 18.3711 42.4455 18.3711 42.2175 18.4281L42.1795 18.6044C42.1605 18.6994 42.1795 18.7808 42.3044 18.7808C42.6514 18.7495 42.9903 18.6577 43.3057 18.5095L43.4251 19.0278C43.0465 19.2484 42.6176 19.368 42.1795 19.3751C41.6558 19.3751 41.4414 19.1472 41.455 18.7157C41.4601 18.6124 41.4746 18.5097 41.4984 18.4091L41.6612 17.6899ZM42.9909 17.4484C42.9909 17.3589 42.9177 17.3019 42.7847 17.3019C42.5133 17.3019 42.4373 17.4539 42.3939 17.6601L42.3559 17.8365C42.4808 17.8066 42.5377 17.7958 42.6897 17.7496C42.8905 17.6899 42.9855 17.5977 42.9909 17.4484ZM43.7345 19.2015L43.8946 18.6587C44.111 18.7428 44.3408 18.7869 44.573 18.789C44.8172 18.789 44.8444 18.7157 44.8606 18.5963C44.8769 18.4769 44.8145 18.4199 44.535 18.2707C44.014 17.9993 43.9923 17.8039 44.0818 17.424C44.1985 16.8813 44.3532 16.7347 45.0669 16.7347C45.3201 16.7387 45.5714 16.7789 45.8131 16.8541L45.6747 17.3969C45.4697 17.3449 45.2594 17.3167 45.0479 17.3127C44.8308 17.3127 44.7982 17.3372 44.7765 17.4728C44.7548 17.6085 44.7765 17.6194 45.0153 17.7442C45.5852 18.0536 45.6693 18.1621 45.5825 18.5583C45.4604 19.1282 45.2867 19.3561 44.5269 19.3561C44.2553 19.355 43.9865 19.3025 43.7345 19.2015ZM45.8294 19.2015L45.9895 18.6587C46.2075 18.749 46.4402 18.7986 46.6761 18.8053C46.9203 18.8053 46.9474 18.732 46.961 18.6126C46.9746 18.4932 46.9149 18.4362 46.6354 18.2869C46.1171 18.0156 46.0926 17.8202 46.1822 17.4403C46.3016 16.8976 46.4671 16.751 47.1672 16.751C47.4213 16.755 47.6735 16.7952 47.9162 16.8704L47.7778 17.4131C47.5704 17.358 47.3573 17.327 47.1428 17.3209C46.923 17.3209 46.8905 17.3453 46.8715 17.481C46.8525 17.6167 46.8715 17.6275 47.1103 17.7524C47.6828 18.0617 47.767 18.1703 47.6801 18.5665C47.5553 19.1363 47.3816 19.3643 46.6245 19.3643C46.3516 19.3605 46.0819 19.3052 45.8294 19.2015ZM47.8348 19.8907L48.2554 19.3263H47.9841L48.1659 18.466H48.8959L48.6978 19.3887L48.098 20.1051L47.8348 19.8907ZM51.832 19.3154V19.0983C51.6005 19.2807 51.3126 19.3767 51.0179 19.3697C50.4752 19.3697 50.345 19.0386 50.4752 18.4715L50.6163 17.7931C50.7411 17.1906 50.9148 16.7402 51.9732 16.7402C52.0759 16.7398 52.1784 16.7479 52.2798 16.7646L52.4915 15.7578L53.2404 15.6547L52.4698 19.3181L51.832 19.3154ZM51.1618 18.5583C51.1319 18.694 51.1618 18.7564 51.2947 18.7564C51.5207 18.7439 51.7337 18.6471 51.8917 18.485L52.1278 17.3589C52.0382 17.3435 51.9474 17.3363 51.8565 17.3372C51.4766 17.3372 51.3924 17.5407 51.3382 17.7849L51.1618 18.5583ZM53.1319 18.5339C53.1351 18.4747 53.1424 18.4157 53.1536 18.3575L53.2784 17.7713C53.4141 17.1228 53.7452 16.751 54.6353 16.751C55.3164 16.751 55.6068 17.1391 55.5905 17.5895C55.5896 17.6507 55.5823 17.7117 55.5688 17.7713L55.4466 18.3575C55.3164 18.9654 55.0097 19.3806 54.0898 19.3806C53.4412 19.367 53.1156 18.9844 53.1319 18.5339ZM54.8496 17.6465C54.8496 17.462 54.7465 17.3752 54.5077 17.3752C54.3912 17.3643 54.2751 17.3989 54.1835 17.4717C54.092 17.5446 54.0322 17.65 54.0165 17.7659L53.8863 18.3928C53.8827 18.4271 53.8827 18.4616 53.8863 18.4959C53.8863 18.6777 53.9894 18.7835 54.2282 18.7835C54.3447 18.7944 54.4608 18.7598 54.5524 18.687C54.6439 18.6141 54.7038 18.5087 54.7194 18.3928L54.8496 17.7659C54.8533 17.7217 54.8533 17.6772 54.8496 17.633V17.6465ZM60.049 17.5977C60.0568 17.5721 60.0614 17.5457 60.0626 17.519C60.0626 17.4674 60.0382 17.4484 59.9676 17.4484C59.7334 17.4921 59.508 17.5737 59.3 17.6899L58.9581 19.3181H58.2309L58.5918 17.6004C58.5982 17.5745 58.6028 17.5482 58.6054 17.5217C58.6054 17.4701 58.5809 17.4511 58.5077 17.4511C58.2753 17.4938 58.0516 17.5745 57.8455 17.6899L57.5036 19.3181H56.7736L57.2892 16.8541L57.9378 16.7456L57.9215 17.017C58.2337 16.8551 58.5771 16.7625 58.9283 16.7456C59.0234 16.733 59.1197 16.7564 59.1985 16.8111C59.2773 16.8658 59.3329 16.9479 59.3543 17.0414C59.6656 16.8527 60.0216 16.7506 60.3855 16.7456C60.7247 16.7456 60.8414 16.9355 60.8306 17.2585C60.8276 17.3563 60.8148 17.4535 60.7926 17.5488L60.4208 19.3236H59.7017L60.049 17.5977ZM61.0748 18.5339C61.078 18.4747 61.0853 18.4157 61.0965 18.3575L61.2213 17.7713C61.357 17.1228 61.6881 16.751 62.5782 16.751C63.2566 16.751 63.5496 17.1391 63.5334 17.5895C63.5325 17.6507 63.5252 17.7117 63.5117 17.7713L63.3895 18.3575C63.2593 18.9654 62.9526 19.3806 62.0327 19.3806C61.3841 19.367 61.0585 18.9844 61.0748 18.5339ZM62.7925 17.6465C62.7925 17.462 62.6894 17.3752 62.4506 17.3752C62.3341 17.3643 62.218 17.3989 62.1264 17.4717C62.0349 17.5446 61.9751 17.65 61.9594 17.7659L61.8292 18.3928C61.8216 18.4268 61.8161 18.4612 61.8129 18.4959C61.8129 18.6777 61.9187 18.7835 62.1575 18.7835C62.274 18.7944 62.3902 18.7598 62.4817 18.687C62.5733 18.6141 62.6331 18.5087 62.6487 18.3928L62.779 17.7659C62.7871 17.722 62.7917 17.6776 62.7925 17.633V17.6465ZM65.4682 17.3996C65.1399 17.576 65.0177 17.6438 64.722 17.8256L64.4045 19.3154H63.6745L64.1901 16.8514L64.8359 16.7429L64.8088 17.0848C65.024 16.9555 65.248 16.8412 65.4791 16.7429L65.4682 17.3996ZM65.6337 17.6899C65.7586 17.1092 66.0299 16.7374 66.8305 16.7374C67.3054 16.7374 67.6636 16.9437 67.6446 17.3697C67.6283 17.8636 67.3732 18.0916 66.7355 18.2788C66.4261 18.3711 66.4207 18.3711 66.1928 18.4281L66.1575 18.6044C66.1385 18.6994 66.1439 18.7808 66.2796 18.7808C66.6268 18.7501 66.9658 18.6582 67.2809 18.5095L67.4031 19.0278C67.0237 19.2488 66.5938 19.3685 66.1548 19.3751C65.631 19.3751 65.4166 19.1472 65.4329 18.7157C65.437 18.6125 65.4507 18.5098 65.4736 18.4091L65.6337 17.6899ZM66.9662 17.4484C66.9662 17.3589 66.8929 17.3019 66.7572 17.3019C66.4858 17.3019 66.4099 17.4539 66.3664 17.6601L66.3284 17.8365C66.456 17.8066 66.513 17.7958 66.6649 17.7496C66.863 17.6899 66.9607 17.5977 66.9662 17.4484ZM67.9458 18.4552H68.6785L68.4967 19.3154H67.7667L67.9458 18.4552ZM0.888394 4.54223C-0.349037 6.31968 -0.197072 8.63173 0.749997 10.5123C0.771707 10.5584 0.79613 10.6046 0.820553 10.648C0.832836 10.678 0.847349 10.707 0.863971 10.7348L0.891108 10.7809L0.939954 10.8705L1.0295 11.0252L1.08378 11.1093C1.11634 11.1636 1.15162 11.2178 1.1869 11.2721L1.23303 11.3427C1.27916 11.4159 1.32801 11.4892 1.38228 11.5598L1.4067 11.595L1.5451 11.7796L1.59666 11.8447L1.7242 12.0021L1.77305 12.0618C1.83004 12.1296 1.88974 12.1975 1.95215 12.2626L2.13125 12.4526L2.19095 12.5096C2.23709 12.5584 2.28322 12.6045 2.33478 12.6507L2.39448 12.7077C2.45961 12.7701 2.52202 12.8298 2.58986 12.8868L2.62243 12.9166L2.80153 13.0686L2.8748 13.1283L3.02676 13.245L3.10817 13.3047L3.27371 13.4268L3.33612 13.4702H3.3524L3.51522 13.5787L3.58578 13.6249L3.84086 13.7823L3.91142 13.823C3.97655 13.8582 4.03896 13.8962 4.10409 13.9288L4.20992 13.9858L4.34832 14.0563H4.37817L4.43515 14.0835L4.65496 14.1866L4.69838 14.2056C4.7825 14.2436 4.86663 14.2761 4.95346 14.3114L5.01317 14.3358L5.25468 14.4254H5.28182L5.55318 14.5122L5.61831 14.5312C5.70732 14.5615 5.79791 14.5869 5.88968 14.6072C11.8597 15.6927 13.6073 11.0143 13.6073 11.0143C12.1474 12.9139 9.55584 13.4159 7.09455 12.8596C7.005 12.8379 6.91545 12.8081 6.82318 12.7809L6.78519 12.8352L6.51382 12.7484H6.47583L6.24246 12.6398L6.17733 12.6127C6.09049 12.5801 6.00908 12.5448 5.92496 12.5096L5.87611 12.4878L5.66445 12.3874L5.60203 12.3576L5.43921 12.2762L5.33066 12.2192L5.13257 12.1106C5.11246 12.0954 5.09059 12.0827 5.06744 12.0727L4.81235 11.9153L4.7418 11.8691L4.57084 11.7497L4.51114 11.709L4.34289 11.5815L4.26691 11.5245L4.11223 11.4051L4.04439 11.3481C3.97655 11.2938 3.91413 11.2423 3.85172 11.1853L3.82729 11.169L3.62648 10.9818L3.5695 10.9275L3.42296 10.7864L3.36597 10.7267C3.30356 10.667 3.24386 10.6018 3.18687 10.5367L2.98606 10.3223L2.93721 10.2654L2.80696 10.1052L2.75811 10.0428C2.70655 9.9777 2.6577 9.90986 2.60886 9.84202C1.25203 7.98587 0.755424 5.42146 1.8436 3.32922" fill="#0060A9"/>
<path d="M4.72824 3.04425C3.83002 4.33325 3.88157 6.051 4.57899 7.40783C4.69441 7.63665 4.8259 7.85701 4.97247 8.06725C5.10101 8.27894 5.25403 8.47477 5.42836 8.65069C5.49078 8.72124 5.55862 8.78908 5.62918 8.85964C5.64546 8.87592 5.66445 8.8922 5.68073 8.9112L5.88697 9.10116C5.96296 9.169 6.04165 9.23684 6.12578 9.29925L6.18005 9.34267L6.42971 9.5272C6.46498 9.55434 6.50569 9.57876 6.54368 9.60318L6.59795 9.63846C6.65765 9.67917 6.72007 9.71716 6.78248 9.75244H6.80962C6.86118 9.785 6.91817 9.81756 6.97244 9.8447L7.03214 9.87726L7.14611 9.93696H7.16511L7.4012 10.0482L7.45547 10.0699L7.65086 10.1486L7.73498 10.1785L7.9168 10.2409L7.9982 10.268C8.08682 10.2995 8.17748 10.3249 8.26957 10.344C12.8828 11.1093 13.952 7.55437 13.952 7.55437C12.9913 8.93834 11.1298 9.59776 9.14609 9.08216C9.05653 9.06045 8.9697 9.03331 8.87472 9.00618L8.79874 8.98175L8.61421 8.91934L8.53008 8.88678L8.3347 8.80808L8.28314 8.78637L8.04162 8.67511L7.91951 8.6127L7.87066 8.60998C7.81639 8.58285 7.76754 8.553 7.71598 8.52315L7.68342 8.49329C7.62101 8.4553 7.55588 8.41731 7.49889 8.37932L7.4419 8.34133L7.32793 8.27349L7.08099 8.09167L7.024 8.04554C6.13342 7.363 5.47102 6.42619 5.12443 5.35901C4.94424 4.80888 4.88062 4.22725 4.93762 3.65117C4.99462 3.0751 5.171 2.51721 5.4555 2.01306" fill="#0060A9"/>
<path d="M7.95478 1.92628C7.70164 2.30541 7.54914 2.74271 7.51164 3.19703C7.47414 3.65136 7.55286 4.10775 7.7404 4.52326C7.93961 4.97456 8.22818 5.38084 8.58871 5.71758C8.94923 6.05431 9.37422 6.31453 9.83806 6.48252L9.95203 6.52323L10.0036 6.53951C10.0579 6.55579 10.1121 6.5775 10.1664 6.58836C12.7173 7.07953 13.4065 5.27765 13.5938 5.01443C12.9859 5.88552 11.9656 6.0999 10.72 5.79325C10.618 5.76693 10.5174 5.73523 10.4188 5.69827C10.296 5.65483 10.1755 5.60501 10.0579 5.54902C9.83648 5.44306 9.62645 5.31486 9.43101 5.16639C8.31298 4.31702 7.61828 2.69967 8.34554 1.38354" fill="#0060A9"/>
<path d="M67.0286 5.56259L67.129 5.98321C67.1375 6.00934 67.1394 6.03714 67.1347 6.0642C67.1299 6.09125 67.1186 6.11673 67.1017 6.13842C67.0849 6.1601 67.063 6.17732 67.0379 6.18858C67.0129 6.19984 66.9854 6.2048 66.958 6.20301M58.9853 4.83533C58.9608 4.95201 58.9283 5.10669 58.9093 5.19896L58.0273 9.32644L58.9554 4.98458L58.9853 4.83533ZM32.5542 7.59784L32.0684 9.32373L32.5542 7.60055V7.59784Z" fill="#353332"/>
<path d="M67.1262 5.98317L66.8739 4.89771C66.673 4.11888 66.1032 3.75254 64.8278 3.75254H59.4547C59.396 3.74547 59.3366 3.75927 59.287 3.79151C59.2374 3.82374 59.2007 3.87238 59.1833 3.92893L57.1454 13.5923C57.119 13.6802 57.1125 13.7729 57.1264 13.8637C57.1399 13.9261 57.3787 13.9125 57.5009 13.9125H59.3624C59.501 13.922 59.6402 13.9165 59.7776 13.8962C59.8455 13.8691 59.878 13.6846 59.9025 13.5624L60.5592 10.1731L61.3733 6.41465C61.3893 6.35395 61.4243 6.29994 61.473 6.26042C61.5218 6.2209 61.5819 6.19794 61.6446 6.19484H66.9661C66.9935 6.19662 67.021 6.19167 67.046 6.18041C67.0711 6.16915 67.093 6.15192 67.1099 6.13024C67.1267 6.10856 67.138 6.08308 67.1428 6.05602C67.1475 6.02897 67.1456 6.00116 67.1371 5.97503" fill="#353332"/>
<path d="M74.6974 2.06461H72.3365C72.2653 2.07858 72.1977 2.10667 72.1376 2.14722C72.0774 2.18777 72.026 2.23995 71.9864 2.3007L67.8427 8.39559C67.7721 8.496 67.6934 8.49328 67.6663 8.37388L67.3596 7.03604C67.3436 6.97535 67.3086 6.92134 67.2598 6.88182C67.2111 6.8423 67.151 6.81933 67.0883 6.81624H64.4262C64.3989 6.81501 64.3717 6.82054 64.3471 6.83233C64.3225 6.84413 64.3012 6.86183 64.2851 6.88385C64.269 6.90588 64.2586 6.93155 64.2548 6.95857C64.251 6.9856 64.2539 7.01314 64.2633 7.03876L65.4573 11.2232C65.4886 11.3663 65.4886 11.5144 65.4573 11.6574L64.901 13.7768C64.8712 13.8962 64.9472 13.9342 65.0747 13.9342H67.7015C67.8264 13.9342 67.9539 13.8962 67.9729 13.7768L68.5156 11.6276C68.5573 11.4904 68.6215 11.3611 68.7056 11.2449L75.4653 2.28984C75.5413 2.19215 75.5305 2.07275 75.4084 2.07275L74.6974 2.06461ZM46.98 3.7715H44.5784C44.4563 3.7715 44.3288 3.81492 44.307 3.93704L43.5119 7.65205L42.7195 11.2069C42.6951 11.3263 42.573 11.3182 42.4482 11.3182H40.8688C39.3085 11.3182 39.4876 10.3304 39.8078 8.85149L40.8118 3.93432C40.8335 3.81221 40.7521 3.76879 40.63 3.76879H38.3397C38.2176 3.76879 38.0955 3.81221 38.0683 3.93432L37.1457 8.84877C36.6871 11.5055 36.6735 13.8446 39.7562 13.9233H44.6218C44.7467 13.9233 44.8688 13.8826 44.8932 13.7605L45.938 8.83249L46.9854 3.88005C46.9854 3.88005 47.0207 3.7715 46.98 3.7715ZM23.0509 3.76336H20.4756C20.3508 3.76336 20.226 3.79321 20.2043 3.91262L19.7402 5.92616C19.7332 5.95225 19.7325 5.97965 19.7382 6.00606C19.744 6.03247 19.7561 6.0571 19.7734 6.07787C19.7907 6.09863 19.8127 6.11492 19.8377 6.12536C19.8626 6.1358 19.8897 6.14007 19.9166 6.13782H22.3833C22.447 6.13241 22.5073 6.10727 22.5559 6.06593C22.6046 6.02458 22.6391 5.96907 22.6547 5.90716L23.0997 3.88005C23.0997 3.88005 23.135 3.76336 23.0509 3.76336ZM19.7429 6.81624C19.6802 6.81933 19.6201 6.8423 19.5714 6.88182C19.5226 6.92134 19.4876 6.97535 19.4716 7.03604L19.1242 8.56927L18.3481 12.1133C18.3481 12.1133 17.9356 13.9966 17.8949 14.1133C17.8949 14.1133 17.5476 15.4701 16.7199 15.4186C16.4466 15.396 16.1748 15.358 15.9058 15.3046C15.6724 15.234 15.6562 15.4755 15.6345 15.5949L15.1216 17.8039C15.1135 17.8308 15.1118 17.8592 15.1168 17.8869C15.1217 17.9146 15.1331 17.9407 15.15 17.9632C15.1669 17.9856 15.1889 18.0038 15.2141 18.0162C15.2393 18.0286 15.2671 18.0349 15.2952 18.0345C15.925 18.1216 16.5592 18.1732 17.1948 18.1892H17.3224C19.2572 18.1892 20.2802 17.0522 20.9342 13.964L21.6724 10.3928L22.3888 7.06318C22.3972 7.03653 22.3994 7.00827 22.395 6.98065C22.3905 6.95304 22.3797 6.92684 22.3634 6.90415C22.347 6.88147 22.3256 6.86293 22.3008 6.85002C22.276 6.83711 22.2485 6.83018 22.2205 6.82981M53.0586 3.74708C48.7167 3.74708 47.691 6.42547 47.1157 9.07943C46.5404 11.7877 46.5919 13.9206 51.0749 13.9206H55.1753C55.2392 13.915 55.2998 13.8895 55.3485 13.8476C55.3972 13.8058 55.4315 13.7497 55.4466 13.6872L55.8862 11.9695C55.9107 11.8474 55.8293 11.8121 55.7071 11.8121H51.6719C50.212 11.8121 49.6882 11.3616 49.7398 10.3521C49.7398 10.2382 49.8701 9.94509 49.9949 9.94509H56.2038C56.4751 9.94509 56.4751 9.78499 56.4751 9.78499C57.1074 6.93021 57.1481 3.74165 53.0478 3.74165M54.1902 7.99397C54.1902 8.12965 53.7669 8.10251 53.7669 8.10251L50.3884 8.07809C50.2717 8.07809 50.2391 7.91527 50.231 7.80673C50.2333 7.74847 50.2397 7.69044 50.25 7.63305C50.5213 6.72669 51.2893 6.20838 52.524 6.20838C53.9134 6.20838 54.2092 6.89765 54.2092 7.6629M34.3343 11.1337C34.3343 11.1337 35.55 8.18392 35.8214 6.48246C36.1986 4.20026 35.0589 0.89502 30.6492 0.89502C26.2395 0.89502 24.3616 4.05101 23.6343 7.4838C22.9071 10.9166 23.8596 13.9505 28.2231 13.9206H34.8771C34.9387 13.9154 34.9974 13.892 35.0458 13.8533C35.0941 13.8147 35.1298 13.7625 35.1484 13.7035L35.7101 11.5679C35.718 11.5418 35.7194 11.5142 35.7144 11.4874C35.7094 11.4606 35.698 11.4354 35.6813 11.4139C35.6646 11.3924 35.643 11.3752 35.6182 11.3637C35.5935 11.3523 35.5664 11.3469 35.5392 11.3481H34.4646C34.4432 11.351 34.4214 11.3489 34.401 11.3418C34.3807 11.3346 34.3623 11.3227 34.3474 11.3071C34.3326 11.2914 34.3217 11.2725 34.3156 11.2517C34.3095 11.231 34.3085 11.2091 34.3126 11.188C34.3102 11.1718 34.3102 11.1553 34.3126 11.1391M32.0223 9.32909L31.523 11.036C31.4994 11.0957 31.4582 11.1469 31.4049 11.1828C31.3516 11.2186 31.2887 11.2374 31.2245 11.2368H28.6492C26.6926 11.2368 26.2069 9.72529 26.6926 7.47023C27.1702 5.16633 28.1173 3.74165 30.0386 3.59783C32.6681 3.39973 33.2054 5.25588 32.5677 7.39696L32.0223 9.32909Z" fill="#353332"/>
</svg>
