<svg width="67" height="62" viewBox="0 0 67 62" fill="none" xmlns="http://www.w3.org/2000/svg">
<path d="M40.2698 34.0977L35.6232 0.0233154H35.2763C18.3804 0.0726423 4.69584 13.7572 4.64651 30.6531V31L40.2698 34.0977Z" fill="#ED6C47"/>
<path d="M35.9702 0.0233154H35.6232V31L51.1116 37.1954L66.6 31V30.6531C66.5506 13.7572 52.8661 0.0726423 35.9702 0.0233154Z" fill="#FF8F6B"/>
<path d="M66.6 31V31.3407C66.5515 48.2404 52.8636 61.9282 35.964 61.9767H35.2825C18.3828 61.9282 4.69501 48.2404 4.64651 31.3407V31H66.6Z" fill="#D35230"/>
<path opacity="0.1" d="M37.1721 15.2483V48.3005C37.1644 49.449 36.4684 50.4807 35.4064 50.918C35.0683 51.061 34.7049 51.1348 34.3377 51.1348H11.957C11.5234 50.6392 11.1052 50.1126 10.718 49.586C6.77198 44.3221 4.64139 37.9195 4.64652 31.3407V30.6592C4.63747 24.7254 6.37168 18.9195 9.63377 13.9628C9.97452 13.4362 10.3307 12.9096 10.718 12.4139H34.3377C35.8982 12.4258 37.1603 13.6879 37.1721 15.2483Z" fill="black"/>
<path opacity="0.2" d="M35.6232 16.7972V49.8493C35.6231 50.2165 35.5494 50.5799 35.4064 50.918C34.9691 51.98 33.9373 52.676 32.7888 52.6837H13.3664C12.8764 52.1862 12.4062 51.6695 11.957 51.1348C11.5233 50.6392 11.1051 50.1126 10.7179 49.586C6.77192 44.3221 4.64132 37.9194 4.64646 31.3407V30.6592C4.6374 24.7254 6.37162 18.9195 9.63371 13.9628H32.7888C34.3493 13.9746 35.6114 15.2367 35.6232 16.7972Z" fill="black"/>
<path opacity="0.2" d="M35.6232 16.7971V46.7516C35.6115 48.3121 34.3494 49.5742 32.7889 49.586H10.718C6.77198 44.3221 4.64139 37.9194 4.64652 31.3407V30.6592C4.63747 24.7254 6.37168 18.9195 9.63377 13.9628H32.7889C34.3493 13.9745 35.6115 15.2366 35.6232 16.7971Z" fill="black"/>
<path opacity="0.2" d="M34.0744 16.7971V46.7516C34.0626 48.3121 32.8005 49.5742 31.2401 49.586H10.718C6.77198 44.3221 4.64139 37.9194 4.64652 31.3407V30.6592C4.63747 24.7254 6.37168 18.9195 9.63377 13.9628H31.24C32.8005 13.9745 34.0626 15.2366 34.0744 16.7971Z" fill="black"/>
<path d="M2.839 13.9628H31.2354C32.8033 13.9628 34.0744 15.2339 34.0744 16.8018V45.1981C34.0744 46.7661 32.8033 48.0372 31.2354 48.0372H2.839C1.27109 48.0372 0 46.7661 0 45.1982V16.8018C0 15.2339 1.27109 13.9628 2.839 13.9628Z" fill="url(#paint0_linear_48_1590)"/>
<path d="M17.347 21.5351C19.1955 21.4103 21.0281 21.9473 22.517 23.0498C23.7588 24.1585 24.4224 25.7763 24.3167 27.4377C24.337 28.5926 24.0293 29.7296 23.4293 30.7165C22.8218 31.6866 21.9466 32.4601 20.9093 32.9438C19.7234 33.4953 18.4268 33.7677 17.1193 33.7399H13.5275V40.4154H9.84903V21.5351H17.347ZM13.5244 30.856H16.6903C17.6939 30.9297 18.6897 30.6326 19.489 30.0211C20.1501 29.387 20.4966 28.4927 20.4354 27.5786C20.4354 25.498 19.2262 24.4577 16.808 24.4577H13.5245V30.856H13.5244Z" fill="white"/>
<defs>
<linearGradient id="paint0_linear_48_1590" x1="5.91941" y1="11.7444" x2="28.155" y2="50.2555" gradientUnits="userSpaceOnUse">
<stop stop-color="#CA4C28"/>
<stop offset="0.5" stop-color="#C5401E"/>
<stop offset="1" stop-color="#B62F14"/>
</linearGradient>
</defs>
</svg>
