<svg width="64" height="63" viewBox="0 0 64 63" fill="none" xmlns="http://www.w3.org/2000/svg">
<path d="M11.3333 0.0499268H52.6667C58.9333 0.0499268 64 5.11659 64 11.3833V51.1166C64 57.3833 58.9333 62.4499 52.6667 62.4499H11.3333C5.06667 62.4499 0 57.3833 0 51.1166V11.3833C0 5.11659 5.06667 0.0499268 11.3333 0.0499268Z" fill="#330000"/>
<path d="M30.9333 37.3832H21.0134L18.9867 43.6499C18.9333 43.8899 18.72 44.0499 18.48 44.0232H13.4667C13.1733 44.0232 13.0933 43.8632 13.1733 43.5432L21.76 18.8232C21.84 18.5566 21.92 18.2632 22.0267 17.9432C22.1333 17.3832 22.1867 16.7966 22.1867 16.2099C22.16 16.0766 22.2667 15.9432 22.4 15.9166H29.3067C29.52 15.9166 29.6267 15.9966 29.6533 16.1299L39.3867 43.5966C39.4667 43.8899 39.3867 44.0232 39.12 44.0232H33.5467C33.36 44.0499 33.1733 43.9166 33.12 43.7299L30.9333 37.3832ZM22.56 31.9699H29.3333C29.1733 31.4099 28.96 30.7432 28.72 30.0499C28.48 29.3299 28.24 28.5566 28 27.7566C27.7333 26.9299 27.4933 26.1299 27.2267 25.3032C26.96 24.4766 26.72 23.7032 26.5067 22.9299C26.2933 22.1832 26.1067 21.4899 25.92 20.8499H25.8667C25.6267 21.9966 25.3333 23.1432 24.96 24.2899C24.56 25.5699 24.16 26.9032 23.7333 28.2366C23.36 29.5966 22.96 30.8499 22.56 31.9699ZM45.3334 20.5832C44.4534 20.6099 43.6 20.2632 42.96 19.6499C42.3467 18.9832 42.0267 18.1032 42.0534 17.1966C42.0267 16.2899 42.3734 15.4366 43.0134 14.8232C43.6534 14.2099 44.5067 13.8899 45.3867 13.8899C46.4267 13.8899 47.2267 14.2099 47.8134 14.8232C48.4 15.4632 48.72 16.3166 48.6934 17.1966C48.72 18.1032 48.4 18.9832 47.76 19.6499C47.1467 20.2899 46.24 20.6366 45.3334 20.5832ZM42.3467 43.7299V23.1966C42.3467 22.9299 42.4534 22.8232 42.6934 22.8232H47.9733C48.2133 22.8232 48.32 22.9566 48.32 23.1966V43.7299C48.32 44.0232 48.2133 44.1566 47.9733 44.1566H42.7467C42.48 44.1566 42.3467 43.9966 42.3467 43.7299Z" fill="#FF9A00"/>
</svg>
