<svg width="64" height="63" viewBox="0 0 64 63" fill="none" xmlns="http://www.w3.org/2000/svg">
<path d="M11.3333 0.0499268H52.6667C58.9333 0.0499268 64 5.11659 64 11.3833V51.1166C64 57.3833 58.9333 62.4499 52.6667 62.4499H11.3333C5.06667 62.4499 0 57.3833 0 51.1166V11.3833C0 5.11659 5.06667 0.0499268 11.3333 0.0499268Z" fill="#001E36"/>
<path d="M14.4 43.8098V16.3698C14.4 16.1832 14.48 16.0765 14.6667 16.0765C15.12 16.0765 15.5467 16.0765 16.16 16.0498C16.8 16.0232 17.4667 16.0232 18.1867 15.9965C18.9067 15.9698 19.68 15.9698 20.5067 15.9432C21.3333 15.9165 22.1333 15.9165 22.9333 15.9165C25.12 15.9165 26.9333 16.1832 28.4267 16.7432C29.76 17.1965 30.9867 17.9432 32 18.9298C32.8533 19.7832 33.52 20.8232 33.9467 21.9698C34.3467 23.0898 34.56 24.2365 34.56 25.4365C34.56 27.7298 34.0267 29.6232 32.96 31.1165C31.8933 32.6098 30.4 33.7298 28.6667 34.3698C26.8533 35.0365 24.8533 35.2765 22.6667 35.2765C22.0267 35.2765 21.6 35.2765 21.3333 35.2498C21.0667 35.2232 20.6933 35.2232 20.1867 35.2232V43.7832C20.2133 43.9698 20.08 44.1298 19.8933 44.1565C19.8667 44.1565 19.84 44.1565 19.7867 44.1565H14.72C14.5067 44.1565 14.4 44.0498 14.4 43.8098ZM20.2133 21.2232V30.1832C20.5867 30.2098 20.9333 30.2365 21.2533 30.2365H22.6667C23.7067 30.2365 24.7467 30.0765 25.7333 29.7565C26.5867 29.5165 27.3333 29.0098 27.92 28.3432C28.48 27.6765 28.7467 26.7698 28.7467 25.5965C28.7733 24.7698 28.56 23.9432 28.1333 23.2232C27.68 22.5298 27.04 21.9965 26.2667 21.7032C25.28 21.3032 24.2133 21.1432 23.12 21.1698C22.4267 21.1698 21.8133 21.1698 21.3067 21.1965C20.7733 21.1698 20.4 21.1965 20.2133 21.2232Z" fill="#31A8FF"/>
<path d="M51.2 28.5566C50.4 28.1299 49.5467 27.8366 48.64 27.6499C47.6533 27.4366 46.6667 27.3032 45.6533 27.3032C45.12 27.2766 44.56 27.3566 44.0533 27.4899C43.7067 27.5699 43.4133 27.7566 43.2267 28.0232C43.0933 28.2366 43.0133 28.5032 43.0133 28.7432C43.0133 28.9832 43.12 29.2232 43.28 29.4366C43.52 29.7299 43.84 29.9699 44.1867 30.1566C44.8 30.4766 45.44 30.7699 46.08 31.0366C47.52 31.5166 48.9067 32.1832 50.1867 32.9832C51.0667 33.5432 51.7867 34.2899 52.2933 35.1966C52.72 36.0499 52.9333 36.9832 52.9067 37.9432C52.9333 39.1966 52.56 40.4499 51.8667 41.4899C51.12 42.5566 50.08 43.3832 48.88 43.8632C47.5733 44.4232 45.9733 44.7166 44.0533 44.7166C42.8267 44.7166 41.6267 44.6099 40.4267 44.3699C39.4933 44.2099 38.56 43.9166 37.7067 43.5166C37.52 43.4099 37.3867 43.2232 37.4133 43.0099V38.3699C37.4133 38.2899 37.44 38.1832 37.52 38.1299C37.6 38.0766 37.68 38.1032 37.76 38.1566C38.8 38.7699 39.8933 39.1966 41.0667 39.4632C42.08 39.7299 43.1467 39.8632 44.2133 39.8632C45.2267 39.8632 45.9467 39.7299 46.4267 39.4899C46.8533 39.3032 47.1467 38.8499 47.1467 38.3699C47.1467 37.9966 46.9333 37.6499 46.5067 37.3032C46.08 36.9566 45.2 36.5566 43.8933 36.0499C42.5333 35.5699 41.28 34.9299 40.1067 34.1299C39.28 33.5432 38.5867 32.7699 38.08 31.8632C37.6533 31.0099 37.44 30.0766 37.4667 29.1432C37.4667 27.9966 37.7867 26.9032 38.3733 25.9166C39.04 24.8499 40.0267 23.9966 41.1733 23.4632C42.4267 22.8232 44 22.5299 45.8933 22.5299C46.9867 22.5299 48.1067 22.6099 49.2 22.7699C50 22.8766 50.7733 23.0899 51.4933 23.3832C51.6 23.4099 51.7067 23.5166 51.76 23.6232C51.7867 23.7299 51.8133 23.8366 51.8133 23.9432V28.2899C51.8133 28.3966 51.76 28.5032 51.68 28.5566C51.44 28.6099 51.3067 28.6099 51.2 28.5566Z" fill="#31A8FF"/>
</svg>
