<svg width="22" height="22" viewBox="0 0 22 22" fill="none" xmlns="http://www.w3.org/2000/svg">
<path d="M2.11111 7.66667C1.81643 7.66667 1.53381 7.78373 1.32544 7.9921C1.11706 8.20048 1 8.48309 1 8.77778V19.8889C1 20.1836 1.11706 20.4662 1.32544 20.6746C1.53381 20.8829 1.81643 21 2.11111 21H9.88889C10.1836 21 10.4662 20.8829 10.6746 20.6746C10.8829 20.4662 11 20.1836 11 19.8889V8.77778M2.11111 7.66667H9.88889C10.1836 7.66667 10.4662 7.78373 10.6746 7.9921C10.8829 8.20048 11 8.48309 11 8.77778M2.11111 7.66667V2.11111C2.11111 1.81643 2.22817 1.53381 2.43655 1.32544C2.64492 1.11706 2.92754 1 3.22222 1H18.7778C19.0725 1 19.3551 1.11706 19.5635 1.32544C19.7718 1.53381 19.8889 1.81643 19.8889 2.11111V14.3333H11M11 8.77778V14.3333M11 14.3333V16.5556H19.8889C20.1836 16.5556 20.4662 16.4385 20.6746 16.2301C20.8829 16.0217 21 15.7391 21 15.4444V14.3333H11ZM4.88889 9.88889H7.11111L7.66667 7.66667H4.33333L4.88889 9.88889Z" stroke="#055BA6" stroke-linecap="round" stroke-linejoin="round"/>
</svg>
