<svg width="147" height="71" viewBox="0 0 147 71" fill="none" xmlns="http://www.w3.org/2000/svg">
<path d="M143.843 34.9475C142.733 34.2675 140.593 35.5475 138.373 38.5975C133.263 45.5975 130.373 55.3875 131.523 59.0975C135.693 55.6375 146.543 36.5575 143.843 34.9475Z" fill="#7ECEF4"/>
<path d="M83.8226 44.1277C85.9926 39.2677 86.6726 35.1277 85.3226 34.9077C80.9926 35.3177 73.3226 53.9077 74.0726 59.5677C77.0826 56.8577 81.6826 48.9577 83.8226 44.1277Z" fill="#FDD000"/>
<path d="M91.2826 28.1874C92.1281 27.5032 92.8289 26.6573 93.3439 25.6993C93.859 24.7412 94.1781 23.6902 94.2826 22.6074C94.9326 18.2374 92.6226 17.3774 92.6226 17.3774C92.1875 19.3656 91.3909 21.257 90.2726 22.9574C89.6766 23.8698 88.9448 24.6859 88.1026 25.3774C87.1026 26.1974 86.6426 26.3774 85.8826 26.3174C84.8826 26.2274 84.2926 25.5274 83.7326 25.4274C83.4166 25.3246 83.0773 25.3172 82.7572 25.4061C82.437 25.495 82.1502 25.6764 81.9326 25.9274C83.3926 26.1574 84.1926 27.1474 85.3726 27.9274C86.663 28.7768 88.0857 29.4053 89.5826 29.7874C90.5673 30.0347 91.5978 30.0347 92.5826 29.7874C93.6044 29.4406 94.4924 28.7834 95.1226 27.9074C93.9253 28.4877 92.5514 28.5878 91.2826 28.1874Z" fill="#F5A200"/>
<path d="M49.9225 10.3073C49.488 10.1357 49.0289 10.0345 48.5625 10.0073C48.6885 9.84462 48.799 9.67053 48.8925 9.48729C49.7725 7.76729 49.0325 5.21729 49.0325 5.21729C48.6651 6.07108 48.0912 6.82019 47.3625 7.39729C46.9805 7.70509 46.6438 8.06531 46.3625 8.46729C46.2805 8.26196 46.1801 8.06449 46.0625 7.87729C44.9825 6.24729 42.4525 5.64729 42.4525 5.64729C43.0136 6.38608 43.3845 7.25147 43.5325 8.16729C43.6107 8.62858 43.7627 9.07428 43.9825 9.48729C43.7795 9.47102 43.5755 9.47102 43.3725 9.48729C41.3725 9.56729 39.5825 11.4873 39.5825 11.4873C40.5049 11.388 41.4377 11.5115 42.3025 11.8473C42.7635 12.028 43.2488 12.1392 43.7425 12.1773C43.5954 12.3652 43.4712 12.57 43.3725 12.7873C42.4925 14.5273 43.2725 17.0573 43.2725 17.0573C43.6116 16.1859 44.1531 15.4078 44.8525 14.7873C45.2343 14.5062 45.5714 14.169 45.8525 13.7873C45.9222 13.9767 46.0128 14.1579 46.1225 14.3273C47.1825 15.9673 49.7525 16.5973 49.7525 16.5973C49.1981 15.8493 48.8342 14.9775 48.6925 14.0573C48.6249 13.5694 48.4762 13.0962 48.2525 12.6573C48.4852 12.6829 48.7199 12.6829 48.9525 12.6573C50.9025 12.5173 52.7025 10.5673 52.7025 10.5673C51.7686 10.7129 50.8132 10.6235 49.9225 10.3073Z" fill="#FDD000"/>
<path d="M144.233 44.4877C146.413 39.4877 147.323 34.7277 144.683 33.8577C142.683 33.2077 140.583 34.0477 138.593 35.6777C134.263 39.1977 129.853 47.8877 128.433 54.1977C127.324 53.8422 126.152 53.727 124.995 53.8598C123.838 53.9925 122.722 54.3702 121.723 54.9677C120.838 55.5573 120.074 56.3109 119.473 57.1877C118.653 58.3777 117.783 61.0277 116.173 60.6877C115.173 60.4777 117.623 57.0577 116.863 55.6877C115.863 53.8777 114.233 55.2277 113.133 56.3377C111.683 57.7877 107.983 62.0277 105.983 61.4777C105.263 60.9277 108.743 55.4777 106.083 54.8877C103.973 54.4477 101.873 56.4677 100.423 58.2177C99.4225 59.4677 95.1325 64.6777 94.6125 62.0277C94.2025 59.9677 98.9925 54.7477 94.3525 55.4677C93.7325 55.5677 93.1125 56.2277 92.4425 56.2077C91.9225 56.2077 91.1125 55.4077 90.5125 55.3077C89.7305 55.2007 88.9345 55.267 88.181 55.5021C87.4276 55.7371 86.735 56.135 86.1525 56.6677C83.4625 59.0577 82.0225 62.2977 84.0325 64.6677L84.2325 64.8577C83.328 65.3387 82.3359 65.6326 81.3154 65.722C80.2949 65.8113 79.2668 65.6942 78.2925 65.3777C77.4592 65.2261 76.6836 64.8484 76.0504 64.2858C75.4173 63.7232 74.951 62.9974 74.7025 62.1877C79.9427 56.8622 84.0517 50.532 86.7825 43.5777C89.5025 36.8277 89.2925 32.5777 85.7825 33.2577C77.0325 34.8777 69.1225 53.9277 70.1725 62.2577C69.0005 63.2855 67.6428 64.0797 66.1725 64.5977C64.8225 65.0377 62.7225 65.1077 62.3325 64.0177C61.6025 62.0177 65.2525 59.7777 64.2725 58.0177C63.8025 57.1877 62.6825 57.6177 62.0325 57.1177C61.3825 56.6177 61.6925 55.4377 61.0325 54.8577C59.1125 53.2277 56.9325 56.6477 58.2625 58.3477C60.0325 60.6277 55.7325 64.1977 52.3725 65.3477C49.7325 66.3477 47.2825 65.0477 47.5625 62.5177C48.6188 62.5042 49.6633 62.2939 50.6425 61.8977C53.2025 60.8077 55.7125 57.7177 53.7425 55.5577C53.3609 55.2356 52.905 55.0139 52.4161 54.9126C51.9271 54.8113 51.4206 54.8337 50.9425 54.9777C49.6487 55.238 48.4576 55.8665 47.5125 56.7877C46.672 57.5837 45.9929 58.5344 45.5125 59.5877C44.5125 59.1577 44.9425 57.9277 44.5125 57.1477C44.0825 56.3677 42.5125 56.3177 42.3025 57.8777C42.0822 59.7683 41.4581 61.5894 40.4725 63.2177C39.0625 65.2177 37.3625 65.4777 37.0425 65.4077C34.2825 64.8177 38.8725 56.4077 35.9625 56.4777C35.301 56.4795 34.6564 56.6875 34.1187 57.0729C33.5809 57.4583 33.1768 58.0018 32.9625 58.6277C31.4325 62.3977 29.7025 63.3977 30.1725 64.1577C30.4725 64.6677 32.6925 63.5577 33.8025 61.7777C33.7025 63.2077 33.1125 66.3177 34.2925 67.4477C34.7282 67.8082 35.2644 68.0256 35.828 68.0703C36.3917 68.115 36.9555 67.9849 37.4425 67.6977C40.1725 66.4477 42.0925 63.5777 43.1025 61.0777C43.5785 61.51 44.1314 61.8492 44.7325 62.0777C44.6225 63.5377 44.5325 65.0777 45.4725 66.2677C48.2025 69.8177 53.6325 66.8577 56.2125 64.7777C57.9539 63.357 59.4592 61.6694 60.6725 59.7777C60.7756 59.8654 60.8519 59.9805 60.8925 60.1096C60.9332 60.2387 60.9367 60.3767 60.9025 60.5077C60.6652 61.2747 60.329 62.0075 59.9025 62.6877C59.1825 64.2177 58.6725 65.9377 60.3625 67.0077C61.5625 67.7777 63.5425 67.6677 65.6025 67.0077C67.4844 66.466 69.2599 65.607 70.8525 64.4677C71.9825 66.7877 74.0425 68.2077 77.2125 68.6777C81.1125 69.2577 84.8725 67.6777 87.2125 66.1677C89.034 64.9249 90.7111 63.4826 92.2125 61.8677C91.7225 62.8677 91.2825 64.8677 92.2925 65.6777C93.7225 66.8777 95.4525 65.0477 96.4925 64.1877C98.0225 62.9177 103.053 58.2777 102.233 63.0477C101.973 64.5477 100.583 66.2777 102.913 66.0477C105.493 65.7577 109.433 61.2577 111.343 60.9577C113.803 60.5777 112.073 62.6477 111.673 63.6377C111.433 64.2377 111.253 65.1177 111.803 65.3977C113.023 66.0277 116.453 64.3977 118.073 62.2077C118.123 62.4324 118.189 62.653 118.273 62.8677C119.273 65.4277 122.593 66.3977 125.183 65.9777C126.879 65.6801 128.484 64.9957 129.873 63.9777C130.873 65.1077 131.873 65.6977 134.273 66.2377C135.39 66.5034 136.555 66.5034 137.673 66.2377C138.313 66.1077 138.673 65.8977 138.673 65.6677C138.673 65.4377 138.073 65.4077 137.133 65.1277C135.259 64.6259 133.618 63.4874 132.493 61.9077C137.373 57.3177 142.033 49.2677 144.153 44.4577M50.0825 58.0677C50.7525 57.6977 51.7725 57.4877 52.1825 57.9377C52.2584 58.0771 52.2867 58.2375 52.2633 58.3945C52.2398 58.5515 52.1658 58.6965 52.0525 58.8077C51.6112 59.2502 51.0789 59.5914 50.4925 59.8077C50.0049 59.9968 49.4988 60.1342 48.9825 60.2177C48.7276 60.235 48.4715 60.2148 48.2225 60.1577C48.6228 59.285 49.2693 58.5482 50.0825 58.0377M85.3225 34.9077C86.6725 35.1277 85.9925 39.2677 83.8225 44.1277C81.6525 48.9877 77.0825 56.8577 74.0725 59.5677C73.3325 53.9277 80.9825 35.3177 85.3225 34.9077ZM86.2425 62.7877C84.2425 61.2177 88.7525 56.7877 90.5825 57.1977C94.0725 58.0477 87.9325 64.1277 86.2425 62.7877ZM122.603 62.9477C120.853 61.9477 121.143 59.1677 122.893 57.4477C124.269 56.0657 126.132 55.2792 128.083 55.2577C127.692 57.3993 127.794 59.6017 128.383 61.6977C127.183 62.9677 124.383 63.9777 122.603 62.9477ZM131.523 59.1377C130.323 55.4277 133.263 45.6777 138.373 38.6377C140.593 35.5877 142.733 34.3077 143.843 34.9877C146.543 36.5577 135.693 55.6377 131.523 59.0977V59.1377Z" fill="white"/>
<path d="M70.4126 32.4278C66.6326 35.8678 62.1726 37.3478 57.1626 38.0878C53.6669 38.6209 50.1159 38.6882 46.6026 38.2878C43.4826 37.8848 40.3926 37.2768 37.3526 36.4678C32.9626 35.3578 28.8426 33.4678 24.5026 32.1178C22.688 31.4766 20.8161 31.0112 18.9126 30.7278C14.0726 30.2778 10.5426 32.2878 9.22257 34.9178C8.43311 36.4846 8.15982 38.2611 8.44184 39.9928C8.72387 41.7244 9.54674 43.3224 10.7926 44.5578C8.26799 45.2053 5.95331 46.4935 4.07257 48.2978C2.3879 49.8893 1.15932 51.9022 0.514052 54.1281C-0.131215 56.3541 -0.169706 58.712 0.402565 60.9578C1.79257 66.1778 6.63257 69.8578 11.8526 70.6078C15.7677 71.3112 19.8056 70.64 23.2826 68.7078C25.9574 66.9774 28.1491 64.5964 29.6526 61.7878C30.0126 61.1478 32.3126 56.5078 31.2526 56.1978C30.7926 56.0678 30.5226 56.4278 29.8926 57.6278C28.0826 61.2378 25.1626 64.9378 21.1626 66.2178C18.2595 67.0839 15.1476 66.9322 12.3426 65.7878C9.61045 64.7437 7.35041 62.743 5.98257 60.1578C5.41964 59.018 5.10454 57.772 5.058 56.5017C5.01146 55.2314 5.23455 53.9656 5.71257 52.7878C7.20257 49.4578 9.48257 47.7278 12.9826 46.4878C13.7845 46.979 14.6199 47.4134 15.4826 47.7878C18.5426 49.1278 23.5926 50.4778 28.4126 48.8578C31.9926 47.6678 31.2726 43.5278 23.6826 42.9778C20.5425 42.7349 17.3839 42.988 14.3226 43.7278C13.5696 42.5416 13.239 41.1361 13.3842 39.7387C13.5294 38.3413 14.1419 37.0338 15.1226 36.0278C15.9015 35.2639 16.8368 34.678 17.864 34.3103C18.8911 33.9426 19.9858 33.8018 21.0726 33.8978C30.5926 34.1278 42.0026 42.2978 57.1226 42.3778C62.8526 42.3778 66.8726 41.2278 69.2826 38.2978C70.456 36.8086 71.2026 35.0285 71.4426 33.1478C71.6226 31.7478 71.2826 31.6278 70.4426 32.4278M21.3126 44.8978C24.9126 44.8978 27.1726 45.8278 26.8826 47.1078C26.6326 48.1778 23.4826 48.4078 21.8826 48.1878C20.1126 47.9278 17.1626 46.9278 16.0326 45.6478C17.7379 45.1029 19.5229 44.8493 21.3126 44.8978Z" fill="white"/>
<path d="M70.6525 28.2476L70.5626 21.9476L71.8026 19.3276H70.5126L64.9826 5.5776L64.7826 0.787598C63.5185 0.903354 62.3042 1.33678 61.2526 2.0476C60.3548 2.70188 59.2483 3.0043 58.1426 2.8976C58.6121 3.34743 59.2001 3.65408 59.8377 3.7816C60.4754 3.90912 61.1361 3.85223 61.7425 3.6176C62.6464 3.32537 63.6248 3.36436 64.5025 3.7276V5.5776L59.3426 19.4976H58.0526L59.3526 21.4976L59.5426 35.1876C63.9826 34.2176 67.9825 32.3676 70.6525 28.2476Z" fill="#8FC31F"/>
</svg>
