<svg width="147" height="71" viewBox="0 0 147 71" fill="none" xmlns="http://www.w3.org/2000/svg">
<path d="M143.845 34.18C142.735 33.5 140.595 34.78 138.375 37.83C133.265 44.88 130.325 54.63 131.525 58.33C135.695 54.87 146.545 35.79 143.845 34.18Z" fill="#7ECEF4"/>
<path d="M83.8246 43.39C85.9946 38.54 86.6746 34.39 85.3246 34.17C80.9946 34.58 73.3246 53.17 74.0746 58.83C77.0846 56.1 81.6946 48.19 83.8246 43.39Z" fill="#FDD000"/>
<path d="M91.2846 27.39C92.1314 26.7069 92.833 25.8613 93.3483 24.903C93.8635 23.9448 94.1818 22.8932 94.2846 21.81C94.9446 17.44 92.6246 16.58 92.6246 16.58C92.1924 18.5675 91.3993 20.4587 90.2846 22.16C89.6851 23.0697 88.9538 23.8853 88.1146 24.58C87.1146 25.4 86.6446 25.58 85.8846 25.52C84.8846 25.43 84.2946 24.73 83.7346 24.63C83.4184 24.5298 83.0799 24.5237 82.7603 24.6125C82.4407 24.7013 82.1538 24.8811 81.9346 25.13C83.4046 25.36 84.1946 26.36 85.3746 27.13C86.6723 28.0015 88.1098 28.6442 89.6246 29.03C90.6085 29.2841 91.6408 29.2841 92.6246 29.03C93.6483 28.6869 94.5374 28.0288 95.1646 27.15C93.9531 27.737 92.5592 27.8232 91.2846 27.39Z" fill="#F5A200"/>
<path d="M49.9246 9.55002C49.4905 9.37551 49.0315 9.27089 48.5646 9.24002C48.6927 9.07681 48.8065 8.90281 48.9046 8.72C49.7746 7 49.0346 4.45001 49.0346 4.45001C48.6671 5.30381 48.0933 6.05291 47.3646 6.63C46.9997 6.94073 46.6799 7.30088 46.4146 7.70001C46.3267 7.4988 46.2231 7.30488 46.1046 7.12003C45.16 6.00082 43.8802 5.2154 42.4546 4.88C43.0201 5.61625 43.3914 6.48281 43.5346 7.40002C43.6002 7.85903 43.7386 8.3046 43.9446 8.72C43.7416 8.70374 43.5376 8.70374 43.3346 8.72C41.3846 8.8 39.5446 10.72 39.5446 10.72C40.4679 10.6215 41.4012 10.7485 42.2646 11.09C42.7227 11.264 43.2052 11.3652 43.6946 11.39C43.5452 11.58 43.4209 11.7883 43.3246 12.01C42.4446 13.74 43.2246 16.27 43.2246 16.27C43.5824 15.4185 44.1377 14.6644 44.8446 14.07C45.2218 13.7836 45.5582 13.4472 45.8446 13.07C45.9168 13.2552 46.0073 13.4327 46.1146 13.6C47.1746 15.24 49.7446 15.87 49.7446 15.87C49.1913 15.1252 48.8275 14.2569 48.6846 13.34C48.6184 12.8486 48.4697 12.3719 48.2446 11.93C48.4769 11.9606 48.7123 11.9606 48.9446 11.93C50.8946 11.79 52.6946 9.84003 52.6946 9.84003C51.7615 9.97141 50.8103 9.87182 49.9246 9.55002Z" fill="#FDD000"/>
<path d="M144.235 43.72C146.415 38.72 147.325 33.96 144.695 33.09C142.695 32.44 140.585 33.28 138.595 34.91C134.275 38.43 129.855 47.12 128.445 53.43C127.334 53.0743 126.16 52.959 125.002 53.0918C123.843 53.2245 122.726 53.6023 121.725 54.2C120.84 54.7896 120.076 55.5432 119.475 56.42C118.655 57.61 117.785 60.26 116.175 59.93C115.175 59.71 117.625 56.29 116.865 54.87C115.865 53.06 114.235 54.41 113.135 55.52C111.685 57 108.015 61.26 105.945 60.71C105.215 60.16 108.695 54.71 106.035 54.12C103.925 53.68 101.825 55.7 100.375 57.46C99.3746 58.7 95.0846 63.92 94.5746 61.26C94.1546 59.2 98.9446 53.99 94.3046 54.71C93.6846 54.8 93.0746 55.46 92.4046 55.44C91.7346 55.42 91.0646 54.64 90.4646 54.54C89.6826 54.433 88.8866 54.4994 88.1331 54.7344C87.3797 54.9694 86.6871 55.3674 86.1046 55.9C83.4146 58.29 81.9746 61.53 83.9946 63.9L84.1846 64.08C83.2811 64.5638 82.2889 64.8592 81.2679 64.9486C80.2469 65.038 79.2185 64.9194 78.2446 64.6C77.4162 64.4401 76.6474 64.0564 76.0216 63.4905C75.3957 62.9247 74.9368 62.1982 74.6946 61.39C79.9538 56.0738 84.0803 49.7463 86.8246 42.79C89.5546 36.04 89.3446 31.79 85.8246 32.47C77.0746 34.09 69.1746 53.14 70.2246 61.47C69.0503 62.4946 67.6933 63.2885 66.2246 63.81C64.8746 64.25 62.7746 64.33 62.3846 63.24C61.6546 61.24 65.3146 58.99 64.3246 57.24C63.8546 56.42 62.7346 56.84 62.0846 56.34C61.4346 55.84 61.7446 54.66 61.0846 54.08C59.1646 52.45 56.9846 55.87 58.3246 57.57C60.0846 59.85 55.7846 63.42 52.4246 64.62C49.7846 65.57 47.3346 64.32 47.6146 61.8C48.6742 61.778 49.721 61.5646 50.7046 61.17C53.2546 60.08 55.7646 56.99 53.7946 54.83C53.4131 54.508 52.9571 54.2862 52.4682 54.185C51.9792 54.0837 51.4727 54.106 50.9946 54.25C49.701 54.5071 48.5076 55.1281 47.5546 56.04C46.7167 56.8383 46.038 57.7885 45.5546 58.84C44.6046 58.42 44.9846 57.18 44.5546 56.4C44.1246 55.62 42.6046 55.57 42.3446 57.14C42.1226 59.0271 41.4986 60.8446 40.5146 62.47C39.1046 64.47 37.4046 64.74 37.0846 64.66C34.3246 64.07 38.9146 55.66 36.0046 55.73C35.3422 55.734 34.6974 55.9441 34.1599 56.3312C33.6223 56.7182 33.2185 57.2631 33.0046 57.89C31.4746 61.65 29.7446 62.65 30.2146 63.41C30.5146 63.92 32.7346 62.82 33.8446 61.03C33.7446 62.46 33.1546 65.57 34.3346 66.71C34.7714 67.0689 35.3081 67.2845 35.8717 67.3274C36.4354 67.3704 36.9986 67.2386 37.4846 66.95C40.2146 65.7 42.1346 62.83 43.1446 60.33C43.6206 60.7624 44.1735 61.1016 44.7746 61.33C44.6646 62.79 44.5746 64.33 45.5246 65.52C48.2446 69.07 53.6746 66.11 56.2646 64.03C58.0006 62.6066 59.5022 60.9194 60.7146 59.03C60.8177 59.1178 60.894 59.2328 60.9347 59.3619C60.9753 59.491 60.9788 59.629 60.9446 59.76C60.7093 60.5277 60.373 61.2608 59.9446 61.94C59.2246 63.47 58.7246 65.19 60.4046 66.26C61.6046 67.03 63.5846 66.92 65.6446 66.26C67.5259 65.7216 69.3014 64.866 70.8946 63.73C71.9646 65.97 74.0746 67.39 77.2446 67.85C81.1546 68.43 84.9046 66.85 87.2446 65.35C89.0832 64.1059 90.777 62.6602 92.2946 61.04C91.8046 62.04 91.3646 64.04 92.3746 64.85C93.8146 66.05 95.5346 64.22 96.5746 63.36C98.1046 62.09 103.135 57.45 102.315 62.22C102.055 63.72 100.665 65.45 102.995 65.22C105.575 64.93 109.515 60.43 111.425 60.14C113.885 59.75 112.155 61.82 111.755 62.81C111.515 63.41 111.335 64.3 111.885 64.58C113.105 65.2 116.535 63.58 118.155 61.39C118.206 61.6111 118.273 61.8283 118.355 62.04C119.415 64.61 122.675 65.57 125.265 65.15C126.959 64.8453 128.562 64.1616 129.955 63.15C130.955 64.28 131.955 64.86 134.355 65.4C135.473 65.6603 136.636 65.6603 137.755 65.4C138.405 65.26 138.755 65.05 138.755 64.82C138.755 64.59 138.155 64.56 137.215 64.28C135.342 63.7824 133.701 62.6472 132.575 61.07C137.455 56.47 142.115 48.42 144.235 43.61M50.0946 57.3C50.7546 56.93 51.7746 56.72 52.1946 57.17C52.2693 57.3105 52.296 57.4715 52.2707 57.6285C52.2454 57.7855 52.1696 57.93 52.0546 58.04C51.6151 58.4848 51.0823 58.8264 50.4946 59.04C50.007 59.2291 49.5009 59.3665 48.9846 59.45C48.7297 59.4673 48.4737 59.4471 48.2246 59.39C48.6281 58.5163 49.2781 57.7794 50.0946 57.27M85.3246 34.11C86.6746 34.33 85.9946 38.48 83.8246 43.33C81.6546 48.18 77.0846 56.07 74.0746 58.77C73.3346 53.14 80.9946 34.52 85.3246 34.11ZM86.2446 61.95C84.2446 60.39 88.7546 55.95 90.5846 56.36C94.0746 57.21 87.9446 63.29 86.2446 61.95ZM122.615 62.11C120.855 61.11 121.145 58.33 122.905 56.61C124.278 55.2304 126.138 54.4442 128.085 54.42C127.691 56.5619 127.797 58.7659 128.395 60.86C127.185 62.14 124.395 63.14 122.615 62.11ZM131.525 58.3C130.325 54.6 133.265 44.85 138.375 37.8C140.595 34.75 142.735 33.47 143.845 34.15C146.545 35.79 135.695 54.87 131.525 58.33V58.3Z" fill="#004EA2"/>
<path d="M70.4146 31.66C66.6346 35.1 62.1746 36.58 57.1746 37.32C53.676 37.8576 50.1211 37.9249 46.6046 37.52C43.4847 37.117 40.3947 36.509 37.3546 35.7C32.9646 34.59 28.8446 32.7 24.5046 31.35C22.6911 30.7075 20.8188 30.2452 18.9146 29.97C14.0746 29.51 10.5446 31.53 9.23461 34.16C8.44626 35.7247 8.17263 37.4985 8.4528 39.228C8.73297 40.9575 9.55262 42.5542 10.7946 43.79C8.27089 44.4396 5.95672 45.7275 4.07462 47.53C2.38824 49.1225 1.15861 51.1371 0.513283 53.3649C-0.13204 55.5928 -0.16955 57.9527 0.404626 60.2C1.79463 65.42 6.63462 69.09 11.8546 69.84C15.7697 70.5443 19.8079 69.873 23.2846 67.94C25.9594 66.2096 28.1512 63.8286 29.6546 61.02C30.0146 60.38 32.3146 55.74 31.2546 55.43C30.7946 55.3 30.5246 55.66 29.8946 56.86C28.0846 60.47 25.1646 64.18 21.1646 65.45C18.2661 66.3289 15.1543 66.1913 12.3446 65.06C9.6133 64.0019 7.35995 61.9867 6.00462 59.39C5.43849 58.2517 5.11996 57.0064 5.06997 55.7361C5.01998 54.4657 5.23969 53.1993 5.71462 52.02C7.20462 48.68 9.48461 46.95 12.9846 45.72C13.7865 46.2113 14.6219 46.6457 15.4846 47.02C18.5446 48.36 23.5946 49.71 28.4246 48.09C31.9946 46.9 31.2746 42.76 23.6846 42.21C20.5446 41.9672 17.3859 42.2203 14.3246 42.96C13.5717 41.7739 13.241 40.3683 13.3862 38.9709C13.5314 37.5735 14.1439 36.266 15.1246 35.26C15.9036 34.4961 16.8389 33.9102 17.866 33.5425C18.8932 33.1748 19.9879 33.034 21.0746 33.13C30.5946 33.36 42.0146 41.53 57.1246 41.62C62.8546 41.62 66.8846 40.47 69.2846 37.53C70.458 36.0408 71.2047 34.2607 71.4446 32.38C71.6346 30.98 71.2846 30.86 70.4446 31.66M21.3446 44.14C24.9446 44.09 27.2046 45.07 26.9146 46.34C26.6646 47.42 23.5146 47.64 21.9146 47.42C20.1446 47.16 17.1946 46.16 16.0646 44.88C17.7613 44.3431 19.5356 44.093 21.3146 44.14H21.3446Z" fill="#004EA2"/>
<path d="M70.6946 27.48L70.6146 21.18L71.8446 18.56H70.5546L65.0446 4.79001L64.8246 0C63.5591 0.116164 62.3441 0.553301 61.2946 1.27002C60.3947 1.91907 59.289 2.21772 58.1846 2.11002C58.6542 2.55985 59.2422 2.8665 59.8798 2.99402C60.5174 3.12154 61.1782 3.06465 61.7846 2.83002C62.6881 2.5291 63.6707 2.57182 64.5446 2.95001V4.80002L59.4046 18.71H58.1146L59.4146 20.71L59.6046 34.4C63.9346 33.45 67.9946 31.6 70.6946 27.48Z" fill="#8FC31F"/>
</svg>
