<svg width="22" height="23" viewBox="0 0 22 23" fill="none" xmlns="http://www.w3.org/2000/svg">
<path d="M19.8888 2.61109C19.4362 2.19475 18.8369 1.97497 18.2224 1.99997C17.6079 2.02496 17.0284 2.2927 16.6111 2.74442L8.96663 10.3889L7.66663 14.8333L12.1111 13.5333L19.7555 5.94442C19.9875 5.73702 20.1754 5.48511 20.3082 5.20365C20.4409 4.92219 20.5157 4.61693 20.5281 4.306C20.5406 3.99506 20.4904 3.6848 20.3806 3.39364C20.2707 3.10248 20.1035 2.83636 19.8888 2.61109V2.61109Z" stroke="#FF4C2B" stroke-width="2" stroke-linecap="round" stroke-linejoin="round"/>
<path d="M11 1.5H2.11111C1.81643 1.5 1.53381 1.61706 1.32544 1.82544C1.11706 2.03381 1 2.31643 1 2.61111V20.3889C1 20.6836 1.11706 20.9662 1.32544 21.1746C1.53381 21.3829 1.81643 21.5 2.11111 21.5H19.8889C20.1836 21.5 20.4662 21.3829 20.6746 21.1746C20.8829 20.9662 21 20.6836 21 20.3889V11.5" stroke="#FF4C2B" stroke-width="2" stroke-linecap="round" stroke-linejoin="round"/>
</svg>
