<svg width="18" height="17" viewBox="0 0 18 17" fill="none" xmlns="http://www.w3.org/2000/svg">
<path d="M15.5 1.83332C15.1605 1.52106 14.711 1.35623 14.2501 1.37498C13.7893 1.39372 13.3546 1.59452 13.0416 1.93332L7.30831 7.66665L6.33331 11L9.66665 10.025L15.4 4.33332C15.574 4.17777 15.7149 3.98883 15.8145 3.77774C15.914 3.56665 15.9701 3.3377 15.9794 3.1045C15.9888 2.8713 15.9511 2.6386 15.8688 2.42023C15.7864 2.20186 15.661 2.00227 15.5 1.83332V1.83332Z" stroke="white" stroke-width="2" stroke-linecap="round" stroke-linejoin="round"/>
<path d="M8.83334 1H2.16668C1.94566 1 1.7337 1.0878 1.57742 1.24408C1.42114 1.40036 1.33334 1.61232 1.33334 1.83333V15.1667C1.33334 15.3877 1.42114 15.5996 1.57742 15.7559C1.7337 15.9122 1.94566 16 2.16668 16H15.5C15.721 16 15.933 15.9122 16.0893 15.7559C16.2455 15.5996 16.3333 15.3877 16.3333 15.1667V8.5" stroke="white" stroke-width="2" stroke-linecap="round" stroke-linejoin="round"/>
</svg>
