<svg width="16" height="17" viewBox="0 0 16 17" fill="none" xmlns="http://www.w3.org/2000/svg">
<path d="M11.8333 5.16667C11.8333 5.99076 11.589 6.79634 11.1311 7.48154C10.6733 8.16675 10.0225 8.7008 9.26118 9.01616C8.49982 9.33153 7.66204 9.41404 6.85379 9.25327C6.04554 9.0925 5.30311 8.69566 4.72039 8.11294C4.13767 7.53023 3.74083 6.7878 3.58006 5.97954C3.41929 5.17129 3.5018 4.33351 3.81717 3.57215C4.13253 2.81079 4.66659 2.16005 5.35179 1.70221C6.037 1.24437 6.84258 1 7.66667 1C8.77174 1 9.83154 1.43899 10.6129 2.22039C11.3943 3.00179 11.8333 4.0616 11.8333 5.16667ZM8.5 9.33333H6.83333C5.28624 9.33333 3.80251 9.94792 2.70854 11.0419C1.61458 12.1358 1 13.6196 1 15.1667V15.1667C1 15.3877 1.0878 15.5996 1.24408 15.7559C1.40036 15.9122 1.61232 16 1.83333 16H13.5C13.721 16 13.933 15.9122 14.0893 15.7559C14.2455 15.5996 14.3333 15.3877 14.3333 15.1667C14.3333 13.6196 13.7188 12.1358 12.6248 11.0419C11.5308 9.94792 10.0471 9.33333 8.5 9.33333V9.33333Z" stroke="white" stroke-width="2" stroke-linecap="round" stroke-linejoin="round"/>
</svg>
