<svg width="22" height="25" viewBox="0 0 22 25" fill="none" xmlns="http://www.w3.org/2000/svg">
<path d="M17.25 7.25C17.25 8.48613 16.8834 9.69451 16.1967 10.7223C15.5099 11.7501 14.5338 12.5512 13.3918 13.0242C12.2497 13.4973 10.9931 13.6211 9.78069 13.3799C8.5683 13.1387 7.45466 12.5435 6.58058 11.6694C5.7065 10.7953 5.11125 9.68169 4.87009 8.46931C4.62893 7.25693 4.75271 6.00027 5.22575 4.85823C5.6988 3.71619 6.49988 2.74007 7.52769 2.05331C8.55549 1.36656 9.76387 1 11 1C12.6576 1 14.2473 1.65848 15.4194 2.83058C16.5915 4.00268 17.25 5.5924 17.25 7.25ZM12.25 13.5H9.75C7.42936 13.5 5.20376 14.4219 3.56282 16.0628C1.92187 17.7038 1 19.9294 1 22.25V22.25C1 22.5815 1.1317 22.8995 1.36612 23.1339C1.60054 23.3683 1.91848 23.5 2.25 23.5H19.75C20.0815 23.5 20.3995 23.3683 20.6339 23.1339C20.8683 22.8995 21 22.5815 21 22.25C21 19.9294 20.0781 17.7038 18.4372 16.0628C16.7962 14.4219 14.5706 13.5 12.25 13.5V13.5Z" stroke="#FF4C2B" stroke-width="2" stroke-linecap="round" stroke-linejoin="round"/>
</svg>
