<svg width="22" height="23" viewBox="0 0 22 23" fill="none" xmlns="http://www.w3.org/2000/svg">
<path d="M21 21.5L15.1177 15.6176M17.4706 9.73529C17.4706 11.3641 16.9876 12.9563 16.0827 14.3106C15.1778 15.6649 13.8916 16.7204 12.3868 17.3437C10.882 17.967 9.22616 18.1301 7.62867 17.8124C6.03118 17.4946 4.56379 16.7103 3.41207 15.5585C2.26034 14.4068 1.476 12.9394 1.15824 11.3419C0.840482 9.74443 1.00357 8.08859 1.62688 6.58378C2.25019 5.07898 3.30573 3.7928 4.66001 2.8879C6.0143 1.98299 7.60651 1.5 9.2353 1.5C11.4194 1.5 13.5141 2.36764 15.0585 3.91206C16.6029 5.45648 17.4706 7.55116 17.4706 9.73529V9.73529Z" stroke="#FF4C2B" stroke-width="2" stroke-linecap="round" stroke-linejoin="round"/>
</svg>
