<svg width="20" height="19" viewBox="0 0 20 19" fill="none" xmlns="http://www.w3.org/2000/svg">
<path d="M2 6.5C1.73478 6.5 1.48043 6.60536 1.29289 6.79289C1.10536 6.98043 1 7.23478 1 7.5V17.5C1 17.7652 1.10536 18.0196 1.29289 18.2071C1.48043 18.3946 1.73478 18.5 2 18.5H9C9.26522 18.5 9.51957 18.3946 9.70711 18.2071C9.89464 18.0196 10 17.7652 10 17.5V7.5M2 6.5H9C9.26522 6.5 9.51957 6.60536 9.70711 6.79289C9.89464 6.98043 10 7.23478 10 7.5M2 6.5V1.5C2 1.23478 2.10536 0.98043 2.29289 0.792893C2.48043 0.605357 2.73478 0.5 3 0.5H17C17.2652 0.5 17.5196 0.605357 17.7071 0.792893C17.8946 0.98043 18 1.23478 18 1.5V12.5H10M10 7.5V12.5M10 12.5V14.5H18C18.2652 14.5 18.5196 14.3946 18.7071 14.2071C18.8946 14.0196 19 13.7652 19 13.5V12.5H10ZM4.5 8.5H6.5L7 6.5H4L4.5 8.5Z" stroke="#FF4C2B" stroke-linecap="round" stroke-linejoin="round"/>
</svg>
