<svg width="108" height="108" viewBox="0 0 108 108" fill="none" xmlns="http://www.w3.org/2000/svg">
<path d="M42.8889 104H9.55556C8.08213 104 6.66905 103.415 5.62718 102.373C4.58532 101.331 4 99.9179 4 98.4444V26.2222L26.2222 4H76.2222C77.6957 4 79.1087 4.58532 80.1506 5.62718C81.1925 6.66905 81.7778 8.08213 81.7778 9.55556V42.8889" stroke="#FFB500" stroke-opacity="0.5" stroke-width="8" stroke-linecap="round" stroke-linejoin="round"/>
<path d="M26.2222 37.3333H59.5556M81.7778 65.1111L74.8889 77.8889L59.5556 79.9444L70.6667 89.9444L68.0556 104L81.7778 97.3333L95.5 104L92.8889 89.9444L104 79.9444L88.6667 77.8889L81.7778 65.1111ZM26.2222 59.5555H59.5556H26.2222Z" stroke="#FFB500" stroke-opacity="0.5" stroke-width="8" stroke-linecap="round" stroke-linejoin="round"/>
</svg>
