<svg width="100" height="100" viewBox="0 0 100 100" fill="none" xmlns="http://www.w3.org/2000/svg">
<path fill-rule="evenodd" clip-rule="evenodd" d="M48.8593 0.200802C49.5977 -0.066934 50.4004 -0.066934 51.1388 0.200802L97.6496 17.065C99.0505 17.573 99.9924 18.9541 99.9981 20.5088C100.004 22.0634 99.0719 23.4521 97.6747 23.9712L51.164 41.2535C50.4103 41.5335 49.5878 41.5335 48.8341 41.2535L2.3234 23.9712C0.926157 23.4521 -0.0056331 22.0634 2.56314e-05 20.5088C0.00568408 18.9541 0.947556 17.573 2.34854 17.065L48.8593 0.200802ZM14.0478 20.565L49.9991 33.9236L85.9503 20.565L49.9991 7.52955L14.0478 20.565Z" fill="#FFB500" fill-opacity="0.5"/>
<path fill-rule="evenodd" clip-rule="evenodd" d="M0.19679 39.0352C0.833222 37.1281 2.82324 36.1231 4.64162 36.7906L50 53.4408L95.3584 36.7906C97.1768 36.1231 99.1668 37.1281 99.8032 39.0352C100.44 40.9423 99.4815 43.0294 97.6631 43.6969L51.1524 60.7701C50.4063 61.044 49.5937 61.044 48.8476 60.7701L2.33689 43.6969C0.518514 43.0294 -0.439643 40.9423 0.19679 39.0352Z" fill="#FFB500" fill-opacity="0.5"/>
<path fill-rule="evenodd" clip-rule="evenodd" d="M0.19679 58.5474C0.833222 56.6403 2.82324 55.6354 4.64162 56.3029L50 72.9531L95.3584 56.3029C97.1768 55.6354 99.1668 56.6403 99.8032 58.5474C100.44 60.4545 99.4815 62.5417 97.6631 63.2092L51.1524 80.2824C50.4063 80.5562 49.5937 80.5562 48.8476 80.2824L2.33689 63.2092C0.518514 62.5417 -0.439643 60.4545 0.19679 58.5474Z" fill="#FFB500" fill-opacity="0.5"/>
<path fill-rule="evenodd" clip-rule="evenodd" d="M0.19679 78.0597C0.833222 76.1525 2.82324 75.1476 4.64162 75.8151L50 92.4653L95.3584 75.8151C97.1768 75.1476 99.1668 76.1525 99.8032 78.0597C100.44 79.9668 99.4815 82.0539 97.6631 82.7214L51.1524 99.7946C50.4063 100.068 49.5937 100.068 48.8476 99.7946L2.33689 82.7214C0.518514 82.0539 -0.439643 79.9668 0.19679 78.0597Z" fill="#FFB500" fill-opacity="0.5"/>
</svg>
