<svg width="108" height="108" viewBox="0 0 108 108" fill="none" xmlns="http://www.w3.org/2000/svg">
<path d="M100.347 94.9172L103.199 97.721L103.199 97.7209L100.347 94.9172ZM85.3071 74.4169L86.9559 78.0613L86.9562 78.0612L85.3071 74.4169ZM26.6624 94.9172L29.5152 97.721L29.5153 97.7209L26.6624 94.9172ZM11.6228 74.4169L13.2717 78.0613L13.2717 78.0613L11.6228 74.4169ZM63.5045 25.6864L66.3573 28.4902L66.3574 28.4902L63.5045 25.6864ZM48.465 5.18615L50.1138 8.83054L50.114 8.83046L48.465 5.18615ZM23.9356 97.8692C32.2238 104.22 42.6701 108 54 108V100C44.4725 100 35.7278 96.8263 28.8013 91.519L23.9356 97.8692ZM54 108C65.3299 108 75.7762 104.22 84.0644 97.8692L79.1987 91.519C72.2722 96.8263 63.5275 100 54 100V108ZM39.6949 14.9044C19.821 20.8544 5.26316 38.9235 5.26316 60.4103H13.2632C13.2632 42.673 25.2911 27.5676 41.9893 22.5683L39.6949 14.9044ZM5.26316 60.4103C5.26316 65.8037 6.18359 70.9947 7.88173 75.8366L15.4309 73.189C14.0264 69.1842 13.2632 64.8876 13.2632 60.4103H5.26316ZM66.0107 22.5683C82.7089 27.5676 94.7368 42.673 94.7368 60.4103H102.737C102.737 38.9235 88.179 20.8544 68.3051 14.9044L66.0107 22.5683ZM94.7368 60.4103C94.7368 64.8876 93.9736 69.1842 92.5691 73.189L100.118 75.8366C101.816 70.9947 102.737 65.8037 102.737 60.4103H94.7368ZM100 86.0513C100 88.3862 99.0618 90.5178 97.4937 92.1134L103.199 97.7209C106.157 94.7114 108 90.5963 108 86.0513H100ZM97.4937 92.1134C95.831 93.8052 93.4783 94.8718 90.8421 94.8718V102.872C95.6791 102.872 100.072 100.903 103.199 97.721L97.4937 92.1134ZM90.8421 94.8718C85.6858 94.8718 81.6842 90.8253 81.6842 86.0513H73.6842C73.6842 95.4382 81.4647 102.872 90.8421 102.872V94.8718ZM81.6842 86.0513C81.6842 82.5695 83.7913 79.4931 86.9559 78.0613L83.6583 70.7726C77.8198 73.4141 73.6842 79.2249 73.6842 86.0513H81.6842ZM86.9562 78.0612C88.1284 77.5308 89.4424 77.2308 90.8421 77.2308V69.2308C88.2876 69.2308 85.8506 69.7805 83.6581 70.7727L86.9562 78.0612ZM90.8421 77.2308C95.9984 77.2308 100 81.2772 100 86.0513H108C108 76.6643 100.22 69.2308 90.8421 69.2308V77.2308ZM26.3158 86.0513C26.3158 88.3862 25.3776 90.5179 23.8095 92.1134L29.5153 97.7209C32.473 94.7114 34.3158 90.5963 34.3158 86.0513H26.3158ZM23.8095 92.1134C22.1468 93.8052 19.794 94.8718 17.1579 94.8718V102.872C21.9949 102.872 26.3874 100.903 29.5152 97.721L23.8095 92.1134ZM17.1579 94.8718C12.0016 94.8718 8 90.8254 8 86.0513H0C0 95.4382 7.78043 102.872 17.1579 102.872V94.8718ZM8 86.0513C8 82.5695 10.1071 79.4931 13.2717 78.0613L9.97393 70.7726C4.1357 73.4141 0 79.2249 0 86.0513H8ZM13.2717 78.0613C14.4443 77.5307 15.7582 77.2308 17.1579 77.2308V69.2308C14.6032 69.2308 12.1665 69.7806 9.97392 70.7726L13.2717 78.0613ZM17.1579 77.2308C22.3142 77.2308 26.3158 81.2772 26.3158 86.0513H34.3158C34.3158 76.6643 26.5353 69.2308 17.1579 69.2308V77.2308ZM63.1579 16.8205C63.1579 19.1555 62.2197 21.2871 60.6516 22.8827L66.3574 28.4902C69.3151 25.4806 71.1579 21.3656 71.1579 16.8205H63.1579ZM60.6516 22.8826C58.9889 24.5745 56.6362 25.641 54 25.641V33.641C58.837 33.641 63.2295 31.6727 66.3573 28.4902L60.6516 22.8826ZM54 25.641C48.8437 25.641 44.8421 21.5946 44.8421 16.8205H36.8421C36.8421 26.2075 44.6226 33.641 54 33.641V25.641ZM44.8421 16.8205C44.8421 13.3387 46.9492 10.2622 50.1138 8.83054L46.8162 1.54176C40.9776 4.18321 36.8421 9.9942 36.8421 16.8205H44.8421ZM50.114 8.83046C51.2863 8.30001 52.6004 8 54 8V0C51.4454 0 49.0085 0.549837 46.816 1.54185L50.114 8.83046ZM54 8C59.1563 8 63.1579 12.0464 63.1579 16.8205H71.1579C71.1579 7.43349 63.3774 0 54 0V8Z" fill="#FFB500" fill-opacity="0.5"/>
</svg>
