<svg width="100" height="100" viewBox="0 0 100 100" fill="none" xmlns="http://www.w3.org/2000/svg">
<path d="M36.6324 0.13159C38.2295 -0.327073 39.9173 0.443308 40.6704 1.97476C42.4055 5.50315 45.9353 7.90656 50 7.90656C54.0647 7.90656 57.5945 5.50315 59.3296 1.97476C60.0827 0.443308 61.7705 -0.327073 63.3676 0.13159C71.2022 2.38149 78.2599 6.55741 84.0391 12.1322C85.1677 13.2209 85.474 14.9489 84.7925 16.3828C84.1075 17.8241 83.7209 19.448 83.7209 21.1759C83.7209 27.172 88.4063 32.0327 94.186 32.0327L94.332 32.0316C95.8742 32.0088 97.2477 33.0392 97.7099 34.5657C99.1986 39.4828 100 44.7114 100 50.1274C100 53.702 99.6509 57.196 98.985 60.5731C98.627 62.3889 97.0044 63.6306 95.2263 63.4494C94.8854 63.4146 94.5386 63.3968 94.186 63.3968C88.4063 63.3968 83.7209 68.2576 83.7209 74.2536C83.7209 76.9225 84.6447 79.3582 86.1827 81.2492C87.3349 82.6659 87.269 84.7568 86.03 86.0923C80.1289 92.4539 72.6723 97.2593 64.2889 99.8487C62.4685 100.411 60.5491 99.359 59.9708 97.4821C58.6207 93.1008 54.6622 89.9356 50 89.9356C45.3378 89.9356 41.3793 93.1008 40.0292 97.4821C39.4509 99.359 37.5315 100.411 35.7111 99.8487C27.3277 97.2593 19.8711 92.4539 13.9699 86.0924C12.731 84.7568 12.6651 82.6659 13.8173 81.2492C15.3553 79.3581 16.2791 76.9225 16.2791 74.2536C16.2791 68.2575 11.5937 63.3968 5.81395 63.3968C5.46154 63.3968 5.11455 63.4146 4.77366 63.4494C2.99561 63.6306 1.37296 62.3889 1.01493 60.5731C0.349067 57.196 0 53.702 0 50.1274C0 44.7114 0.801274 39.4828 2.29006 34.5657C2.75225 33.0392 4.12579 32.0088 5.66791 32.0316L5.81395 32.0327C11.5937 32.0327 16.2791 27.172 16.2791 21.1759C16.2791 19.448 15.8925 17.8241 15.2075 16.3828C14.526 14.9489 14.8323 13.2209 15.9609 12.1322C21.7401 6.55741 28.7978 2.38149 36.6324 0.13159ZM22.478 15.8195C22.9838 17.5147 23.2558 19.3146 23.2558 21.1759C23.2558 30.293 16.7563 37.8352 8.30198 39.0879C7.4371 42.6153 6.97674 46.3133 6.97674 50.1274C6.97674 52.1992 7.11259 54.2365 7.37519 56.2304C16.2766 57.0496 23.2558 64.8061 23.2558 74.2536C23.2558 77.4717 22.4437 80.498 21.0219 83.1185C25.0068 86.888 29.6745 89.8891 34.8076 91.8994C37.8003 86.4081 43.4792 82.6977 50 82.6977C56.5208 82.6977 62.1997 86.4081 65.1924 91.8994C70.3255 89.889 74.9932 86.888 78.978 83.1185C77.5563 80.498 76.7442 77.4717 76.7442 74.2536C76.7442 64.8061 83.7234 57.0496 92.6248 56.2304C92.8874 54.2365 93.0233 52.1992 93.0233 50.1274C93.0233 46.3134 92.5629 42.6154 91.698 39.0879C83.2437 37.8352 76.7442 30.293 76.7442 21.1759C76.7442 19.3146 77.0162 17.5147 77.522 15.8195C73.5431 12.38 68.959 9.67325 63.9619 7.89567C60.7833 12.2925 55.7147 15.1444 50 15.1444C44.2852 15.1444 39.2167 12.2925 36.0381 7.89567C31.041 9.67325 26.4569 12.38 22.478 15.8195Z" fill="#FFB500" fill-opacity="0.5"/>
<path d="M30.2326 50.1274C30.2326 38.8015 39.0827 29.6201 50 29.6201C60.9173 29.6201 69.7674 38.8015 69.7674 50.1274C69.7674 61.4532 60.9173 70.6346 50 70.6346C39.0827 70.6346 30.2326 61.4532 30.2326 50.1274ZM50 36.858C42.9359 36.858 37.2093 42.7989 37.2093 50.1274C37.2093 57.4559 42.9359 63.3968 50 63.3968C57.0641 63.3968 62.7907 57.4559 62.7907 50.1274C62.7907 42.7989 57.0641 36.858 50 36.858Z" fill="#FFB500" fill-opacity="0.5"/>
</svg>
