<svg width="21" height="30" viewBox="0 0 21 30" fill="none" xmlns="http://www.w3.org/2000/svg">
<path d="M16.2192 0.128321C16.4006 0.234699 16.541 0.400162 16.6174 0.597677C16.6938 0.795193 16.7018 1.01309 16.64 1.21576L13.302 12.1876H19.4608C19.6418 12.1876 19.8188 12.2411 19.9701 12.3417C20.1213 12.4422 20.2402 12.5854 20.3119 12.7535C20.3837 12.9216 20.4052 13.1072 20.3738 13.2875C20.3425 13.4679 20.2596 13.6349 20.1354 13.7682L5.30843 29.7048C5.16497 29.8591 4.97406 29.9597 4.76683 29.9902C4.55959 30.0207 4.34825 29.9793 4.16725 29.8728C3.98625 29.7662 3.84627 29.6008 3.77011 29.4035C3.69396 29.2061 3.68613 28.9885 3.74789 28.7861L7.08582 17.8123H0.927056C0.746065 17.8124 0.569014 17.7588 0.41776 17.6583C0.266506 17.5577 0.14767 17.4146 0.0759226 17.2465C0.00417488 17.0784 -0.0173438 16.8927 0.0140229 16.7124C0.0453896 16.5321 0.128268 16.365 0.252428 16.2318L15.0794 0.295186C15.2227 0.141069 15.4133 0.0405171 15.6203 0.00988123C15.8272 -0.0207546 16.0383 0.0203269 16.2192 0.126446V0.128321Z" fill="white"/>
</svg>
