<svg width="370" height="27" viewBox="0 0 370 27" fill="none" xmlns="http://www.w3.org/2000/svg">
<path d="M30 25C30 25 35 22.8438 35 12.7812C35 2.71875 30 2 30 2" stroke="#999999" stroke-width="3" stroke-linecap="round"/>
<path d="M53.4615 25C53.4615 25 58.4615 22.8438 58.4615 12.7812C58.4615 2.71875 53.4615 2 53.4615 2" stroke="#999999" stroke-width="3" stroke-linecap="round"/>
<path d="M76.9231 25C76.9231 25 81.9231 22.8438 81.9231 12.7812C81.9231 2.71875 76.9231 2 76.9231 2" stroke="#999999" stroke-width="3" stroke-linecap="round"/>
<path d="M100.385 25C100.385 25 105.385 22.8438 105.385 12.7812C105.385 2.71875 100.385 2 100.385 2" stroke="#999999" stroke-width="3" stroke-linecap="round"/>
<path d="M123.846 25C123.846 25 128.846 22.8438 128.846 12.7812C128.846 2.71875 123.846 2 123.846 2" stroke="#999999" stroke-width="3" stroke-linecap="round"/>
<path d="M147.308 25C147.308 25 152.308 22.8438 152.308 12.7812C152.308 2.71875 147.308 2 147.308 2" stroke="#999999" stroke-width="3" stroke-linecap="round"/>
<path d="M170.769 25C170.769 25 175.769 22.8438 175.769 12.7812C175.769 2.71875 170.769 2 170.769 2" stroke="#999999" stroke-width="3" stroke-linecap="round"/>
<path d="M194.231 25C194.231 25 199.231 22.8438 199.231 12.7812C199.231 2.71875 194.231 2 194.231 2" stroke="#999999" stroke-width="3" stroke-linecap="round"/>
<path d="M217.692 25C217.692 25 222.692 22.8438 222.692 12.7812C222.692 2.71875 217.692 2 217.692 2" stroke="#999999" stroke-width="3" stroke-linecap="round"/>
<path d="M241.154 25C241.154 25 246.154 22.8438 246.154 12.7812C246.154 2.71875 241.154 2 241.154 2" stroke="#999999" stroke-width="3" stroke-linecap="round"/>
<path d="M264.615 25C264.615 25 269.615 22.8438 269.615 12.7812C269.615 2.71875 264.615 2 264.615 2" stroke="#999999" stroke-width="3" stroke-linecap="round"/>
<path d="M288.077 25C288.077 25 293.077 22.8438 293.077 12.7812C293.077 2.71875 288.077 2 288.077 2" stroke="#999999" stroke-width="3" stroke-linecap="round"/>
<path d="M311.538 25C311.538 25 316.538 22.8438 316.538 12.7812C316.538 2.71875 311.538 2 311.538 2" stroke="#999999" stroke-width="3" stroke-linecap="round"/>
<path d="M335 25C335 25 340 22.8438 340 12.7812C340 2.71875 335 2 335 2" stroke="#999999" stroke-width="3" stroke-linecap="round"/>
</svg>
