<svg width="69" height="69" viewBox="0 0 69 69" fill="none" xmlns="http://www.w3.org/2000/svg">
<path d="M34.3158 16.1569C40.234 16.1569 40.9287 16.1833 43.2678 16.2888C45.4311 16.3855 46.6006 16.7461 47.3833 17.0538C48.4209 17.4584 49.1596 17.9332 49.9334 18.7071C50.7073 19.4809 51.1909 20.2196 51.5866 21.2572C51.8856 22.0399 52.255 23.2094 52.3517 25.3727C52.4572 27.7118 52.4836 28.4065 52.4836 34.3247C52.4836 40.2428 52.4572 40.9375 52.3517 43.2766C52.255 45.4399 51.8944 46.6095 51.5866 47.3921C51.1821 48.4298 50.7073 49.1684 49.9334 49.9423C49.1596 50.7161 48.4209 51.1998 47.3833 51.5955C46.6006 51.8945 45.4311 52.2638 43.2678 52.3605C40.9287 52.4661 40.234 52.4924 34.3158 52.4924C28.3977 52.4924 27.7029 52.4661 25.3638 52.3605C23.2006 52.2638 22.031 51.9033 21.2484 51.5955C20.2107 51.191 19.472 50.7161 18.6982 49.9423C17.9244 49.1684 17.4407 48.4298 17.045 47.3921C16.746 46.6095 16.3767 45.4399 16.2799 43.2766C16.1744 40.9375 16.148 40.2428 16.148 34.3247C16.148 28.4065 16.1744 27.7118 16.2799 25.3727C16.3767 23.2094 16.7372 22.0399 17.045 21.2572C17.4495 20.2196 17.9244 19.4809 18.6982 18.7071C19.472 17.9332 20.2107 17.4496 21.2484 17.0538C22.031 16.7549 23.2006 16.3855 25.3638 16.2888C27.7029 16.1745 28.4064 16.1569 34.3158 16.1569ZM34.3158 12.1646C28.3009 12.1646 27.5447 12.1909 25.1792 12.2965C22.8224 12.402 21.2132 12.7801 19.8062 13.3253C18.3464 13.8881 17.1153 14.6532 15.8842 15.8843C14.6531 17.1154 13.8968 18.3553 13.3252 19.8063C12.78 21.2133 12.4019 22.8225 12.2964 25.188C12.1909 27.5447 12.1645 28.301 12.1645 34.3159C12.1645 40.3308 12.1909 41.087 12.2964 43.4525C12.4019 45.8092 12.78 47.4185 13.3252 48.8343C13.888 50.294 14.6531 51.5251 15.8842 52.7563C17.1153 53.9874 18.3552 54.7436 19.8062 55.3152C21.2132 55.8604 22.8224 56.2386 25.1879 56.3441C27.5535 56.4496 28.3009 56.476 34.3246 56.476C40.3483 56.476 41.0958 56.4496 43.4613 56.3441C45.818 56.2386 47.4272 55.8604 48.843 55.3152C50.3028 54.7524 51.5339 53.9874 52.765 52.7563C53.9961 51.5251 54.7524 50.2852 55.324 48.8343C55.8692 47.4273 56.2473 45.818 56.3528 43.4525C56.4584 41.087 56.4847 40.3396 56.4847 34.3159C56.4847 28.2922 56.4584 27.5447 56.3528 25.1792C56.2473 22.8225 55.8692 21.2133 55.324 19.7975C54.7612 18.3377 53.9961 17.1066 52.765 15.8755C51.5339 14.6444 50.294 13.8881 48.843 13.3165C47.436 12.7713 45.8268 12.3932 43.4613 12.2877C41.087 12.1909 40.3307 12.1646 34.3158 12.1646Z" fill="white"/>
<path d="M34.3157 22.9456C28.037 22.9456 22.9367 28.0371 22.9367 34.3246C22.9367 40.6121 28.0282 45.7036 34.3157 45.7036C40.6032 45.7036 45.6947 40.6121 45.6947 34.3246C45.6947 28.0371 40.6032 22.9456 34.3157 22.9456ZM34.3157 41.7025C30.2354 41.7025 26.929 38.3961 26.929 34.3158C26.929 30.2355 30.2354 26.9291 34.3157 26.9291C38.396 26.9291 41.7024 30.2355 41.7024 34.3158C41.7024 38.3961 38.396 41.7025 34.3157 41.7025Z" fill="white"/>
<path d="M46.143 25.1442C47.6097 25.1442 48.7987 23.9552 48.7987 22.4885C48.7987 21.0218 47.6097 19.8328 46.143 19.8328C44.6763 19.8328 43.4873 21.0218 43.4873 22.4885C43.4873 23.9552 44.6763 25.1442 46.143 25.1442Z" fill="white"/>
</svg>
