<svg width="30" height="31" viewBox="0 0 30 31" fill="none" xmlns="http://www.w3.org/2000/svg">
<rect y="0.5" width="30" height="30" rx="5" fill="#FF4C2B"/>
<path d="M14.75 7.25725C17.3549 7.25725 17.6607 7.26886 18.6903 7.3153C19.6424 7.35788 20.1572 7.51657 20.5017 7.65204C20.9584 7.83009 21.2836 8.0391 21.6242 8.37971C21.9648 8.72033 22.1777 9.04545 22.3518 9.50218C22.4834 9.84667 22.646 10.3615 22.6886 11.3136C22.735 12.3432 22.7466 12.649 22.7466 15.2539C22.7466 17.8588 22.735 18.1645 22.6886 19.1941C22.646 20.1463 22.4873 20.6611 22.3518 21.0056C22.1738 21.4623 21.9648 21.7874 21.6242 22.128C21.2836 22.4686 20.9584 22.6815 20.5017 22.8557C20.1572 22.9873 19.6424 23.1499 18.6903 23.1924C17.6607 23.2389 17.3549 23.2505 14.75 23.2505C12.1451 23.2505 11.8393 23.2389 10.8098 23.1924C9.85759 23.1499 9.3428 22.9912 8.99832 22.8557C8.54159 22.6777 8.21646 22.4686 7.87585 22.128C7.53523 21.7874 7.32235 21.4623 7.14818 21.0056C7.01658 20.6611 6.85401 20.1463 6.81143 19.1941C6.76499 18.1645 6.75338 17.8588 6.75338 15.2539C6.75338 12.649 6.76499 12.3432 6.81143 11.3136C6.85401 10.3615 7.01271 9.84667 7.14818 9.50218C7.32622 9.04545 7.53523 8.72033 7.87585 8.37971C8.21646 8.0391 8.54159 7.82622 8.99832 7.65204C9.3428 7.52044 9.85759 7.35788 10.8098 7.3153C11.8393 7.26499 12.149 7.25725 14.75 7.25725ZM14.75 5.5C12.1025 5.5 11.7697 5.51161 10.7285 5.55806C9.69115 5.60451 8.98283 5.77094 8.36354 6.01092C7.72102 6.25863 7.17914 6.59538 6.63726 7.13726C6.09538 7.67914 5.76251 8.22489 5.51092 8.86354C5.27094 9.48283 5.10451 10.1911 5.05806 11.2323C5.01161 12.2697 5 12.6025 5 15.25C5 17.8975 5.01161 18.2303 5.05806 19.2715C5.10451 20.3089 5.27094 21.0172 5.51092 21.6403C5.75864 22.2829 6.09538 22.8247 6.63726 23.3666C7.17914 23.9085 7.72489 24.2414 8.36354 24.493C8.98283 24.7329 9.69115 24.8994 10.7323 24.9458C11.7735 24.9923 12.1025 25.0039 14.7539 25.0039C17.4052 25.0039 17.7342 24.9923 18.7754 24.9458C19.8127 24.8994 20.5211 24.7329 21.1442 24.493C21.7867 24.2452 22.3286 23.9085 22.8705 23.3666C23.4124 22.8247 23.7453 22.279 23.9968 21.6403C24.2368 21.021 24.4033 20.3127 24.4497 19.2715C24.4961 18.2303 24.5078 17.9014 24.5078 15.25C24.5078 12.5987 24.4961 12.2697 24.4497 11.2285C24.4033 10.1911 24.2368 9.48283 23.9968 8.85967C23.7491 8.21715 23.4124 7.67527 22.8705 7.13339C22.3286 6.5915 21.7829 6.25863 21.1442 6.00705C20.5249 5.76707 19.8166 5.60064 18.7754 5.55419C17.7304 5.51161 17.3975 5.5 14.75 5.5Z" fill="white"/>
<path d="M14.75 10.2454C11.9864 10.2454 9.74142 12.4864 9.74142 15.2539C9.74142 18.0214 11.9825 20.2624 14.75 20.2624C17.5174 20.2624 19.7585 18.0214 19.7585 15.2539C19.7585 12.4864 17.5174 10.2454 14.75 10.2454ZM14.75 18.5013C12.954 18.5013 11.4987 17.046 11.4987 15.25C11.4987 13.4541 12.954 11.9987 14.75 11.9987C16.5459 11.9987 18.0012 13.4541 18.0012 15.25C18.0012 17.046 16.5459 18.5013 14.75 18.5013Z" fill="white"/>
<path d="M19.9558 11.2131C20.6014 11.2131 21.1247 10.6897 21.1247 10.0442C21.1247 9.39859 20.6014 8.87524 19.9558 8.87524C19.3102 8.87524 18.7869 9.39859 18.7869 10.0442C18.7869 10.6897 19.3102 11.2131 19.9558 11.2131Z" fill="white"/>
</svg>
