<svg width="88" height="80" viewBox="0 0 88 80" fill="none" xmlns="http://www.w3.org/2000/svg">
<path d="M24.4784 76.8351C24.5504 76.8458 24.7504 76.8671 24.8143 76.8671C26.2061 76.8031 26.686 76.2699 26.686 75.2034C26.686 74.1369 26.1208 73.5184 24.9797 73.5184C24.8223 73.5184 24.5717 73.537 24.4757 73.5584V76.8351H24.4784ZM24.4784 78.5095C24.4784 79.4107 24.5931 79.5787 25.5449 79.5467V79.8293H22.3428V79.5467C23.2226 79.5787 23.3159 79.336 23.3159 78.6455V74.4489C23.3159 73.769 23.2013 73.601 22.3428 73.601V73.3184C22.5827 73.3184 23.1186 73.2784 23.8385 73.2464C24.3931 73.2251 24.905 73.2251 25.1156 73.2251C27.2299 73.2251 27.9525 74.1449 27.9525 75.0968C27.9525 75.8726 27.5126 76.4379 26.6354 76.8031C26.8033 76.9178 27.2539 77.3577 27.4192 77.5257L28.0991 78.2056C29.0296 79.1387 29.8055 79.5813 30.608 79.5013V79.8293C28.5764 79.9146 27.7712 79.376 27.094 78.6882L26.5394 78.1336C26.0061 77.6003 25.8488 77.4537 25.4089 77.1311C25.1076 77.1524 24.7504 77.1631 24.4784 77.1311V78.5122V78.5095Z" fill="#56227D"/>
<path d="M29.9873 79.8266V79.5439C30.8352 79.5439 31.0458 79.408 31.0458 78.8214V74.3102C31.0458 73.6196 30.6992 73.5983 29.9873 73.5983V73.3157H35.3357L35.429 74.8861H35.1464L35.0931 74.6674C34.8825 73.8089 34.7172 73.7876 34.0479 73.7876H32.2056V76.2272H33.8293C34.4345 76.2272 34.5492 76.1525 34.6132 75.4326H34.8958V77.5363H34.6132C34.5412 76.7924 34.4025 76.6991 33.8293 76.6991H32.2056V78.6028C32.2056 79.2533 32.2882 79.3573 32.8242 79.3573H33.9866C35.0424 79.3573 35.2531 79.2107 35.5357 78.1868H35.8183L35.661 79.8292H29.99L29.9873 79.8266Z" fill="#56227D"/>
<path d="M37.0654 78.1122H37.38C37.644 79.0747 38.2919 79.6186 39.1904 79.6186C39.9529 79.6186 40.4888 79.168 40.4888 78.5415C40.4888 77.0777 37.1907 76.5018 37.1907 74.6808C37.1907 73.7796 37.9853 73.1531 39.1077 73.1531C39.4517 73.1531 39.705 73.1957 39.9129 73.2384C40.1209 73.2811 40.2889 73.321 40.4675 73.321C40.6035 73.321 40.6781 73.2891 40.7608 73.1957H41.0221L41.2514 74.8168H40.9368C40.6221 73.9903 39.9743 73.489 39.2304 73.489C38.5585 73.489 38.2039 73.8863 38.2039 74.3475C38.2039 75.75 41.5127 76.1686 41.5127 78.1895C41.5127 79.2667 40.6008 79.9999 39.2624 79.9999C38.4785 79.9999 38.1532 79.8106 37.86 79.8106C37.7346 79.8106 37.6493 79.8426 37.5773 79.9252H37.3267L37.0654 78.1149V78.1122Z" fill="#56227D"/>
<path d="M46.6484 79.6613C48.1015 79.6613 49.0773 78.4775 49.0773 76.7204C49.0773 74.8248 47.9788 73.4863 46.4404 73.4863C44.902 73.4863 43.9715 74.6355 43.9715 76.4672C43.9715 78.5708 45.3206 79.6586 46.6511 79.6586L46.6484 79.6613ZM46.5231 73.1504C48.784 73.1504 50.3438 74.4995 50.3438 76.4565C50.3438 78.4135 48.8374 79.9946 46.4831 79.9946C44.2941 79.9946 42.7051 78.6215 42.7051 76.7498C42.7051 74.6568 44.3048 73.1504 46.5231 73.1504Z" fill="#56227D"/>
<path d="M53.2499 76.8351C53.3219 76.8458 53.5218 76.8671 53.5832 76.8671C54.9749 76.8031 55.4548 76.2699 55.4548 75.2034C55.4548 74.1369 54.8896 73.5184 53.7485 73.5184C53.5912 73.5184 53.3405 73.537 53.2472 73.5584V76.8351H53.2499ZM53.2499 78.5095C53.2499 79.4107 53.3645 79.5787 54.3164 79.5467V79.8293H51.1143V79.5467C51.9941 79.5787 52.0874 79.336 52.0874 78.6455V74.4489C52.0874 73.769 51.9728 73.601 51.1143 73.601V73.3184C51.3569 73.3184 51.8901 73.2784 52.6127 73.2464C53.1672 73.2251 53.6791 73.2251 53.8898 73.2251C56.0041 73.2251 56.7266 74.1449 56.7266 75.0968C56.7266 75.8726 56.2867 76.4379 55.4069 76.8031C55.5748 76.9178 56.0254 77.3577 56.1907 77.5257L56.8706 78.2056C57.8038 79.1387 58.513 79.5573 59.3822 79.6507V79.9439C57.3185 79.9973 56.8066 79.6293 55.8654 78.6882L55.3109 78.1336C54.7776 77.6003 54.6203 77.4537 54.1804 77.1311C53.8764 77.1524 53.5218 77.1631 53.2499 77.1311V78.5122V78.5095Z" fill="#56227D"/>
<path d="M58.4327 73.1426H58.7153C58.7553 73.2146 58.7873 73.2679 58.8833 73.2892C58.9766 73.3106 59.1233 73.3212 59.3952 73.3212H63.8238C64.357 73.3212 64.4424 73.2999 64.5037 73.1452H64.7863L64.9756 74.9449H64.6717C64.525 73.8571 64.317 73.7931 63.6878 73.7931H62.1894V78.723C62.1894 79.4348 62.3041 79.5495 63.4052 79.5495V79.8321H59.8165V79.5495C60.8616 79.5495 61.0296 79.4135 61.0296 78.723V73.7931H59.5339C58.9153 73.7931 58.7047 73.8571 58.55 74.9449H58.2461L58.4354 73.1452L58.4327 73.1426Z" fill="#56227D"/>
<path d="M0 66.7942V66.3703C1.27178 66.3703 1.58639 66.1676 1.58639 65.2878V58.5236C1.58639 57.4865 1.06648 57.4571 0 57.4571V57.0332H8.01995L8.16126 59.3875H7.73734L7.65735 59.0595C7.34274 57.7717 7.09478 57.7397 6.08962 57.7397H3.32743V61.3951H5.76168C6.67085 61.3951 6.84416 61.2858 6.93747 60.2007H7.3614V63.3574H6.93747C6.82816 62.243 6.62286 62.1017 5.76168 62.1017H3.32743V64.9572C3.32743 65.9303 3.45274 66.0876 4.25527 66.0876H5.9963C7.5827 66.0876 7.89464 65.8664 8.32124 64.3279H8.74516L8.50787 66.7915H0V66.7942Z" fill="#56227D"/>
<path d="M11.187 58.6622C10.7471 57.5797 10.5738 57.4544 9.57129 57.4544V57.0305H14.4051V57.4544C13.1173 57.4704 12.8987 57.7984 12.8987 58.129C12.8987 58.3316 12.9787 58.6462 13.1493 59.0701L15.5196 64.8931L17.8285 59.3341C18.1112 58.6595 18.1911 58.3609 18.1911 58.1263C18.1911 57.6064 17.7832 57.4518 16.778 57.4518V57.0278H20.5934V57.4518C19.4789 57.4518 19.2736 58.0303 18.7724 59.2408L15.5223 67.0448H14.5651L11.1897 58.6622H11.187Z" fill="#56227D"/>
<path d="M21.0605 66.7942V66.3703C22.3323 66.3703 22.6469 66.1676 22.6469 65.2878V58.5236C22.6469 57.4865 22.1297 57.4571 21.0605 57.4571V57.0332H29.0832L29.2245 59.3875H28.8005L28.7232 59.0595C28.4086 57.7717 28.158 57.7397 27.1528 57.7397H24.3906V61.3951H26.8222C27.7341 61.3951 27.9074 61.2858 28.0007 60.2007H28.4246V63.3574H28.0007C27.8914 62.243 27.6861 62.1017 26.8222 62.1017H24.3906V64.9572C24.3906 65.9303 24.516 66.0876 25.3158 66.0876H27.0595C28.6432 66.0876 28.9579 65.8664 29.3818 64.3279H29.8057L29.5684 66.7915H21.0605V66.7942Z" fill="#56227D"/>
<path d="M34.7109 62.3072C34.8202 62.3232 35.1188 62.3525 35.2122 62.3525C37.2998 62.2592 38.0223 61.4566 38.0223 59.8569C38.0223 58.2572 37.1745 57.3293 35.4628 57.3293C35.2255 57.3293 34.8522 57.3613 34.7082 57.3933V62.3072H34.7109ZM34.7109 64.8187C34.7109 66.1678 34.8842 66.4211 36.3133 66.3731V66.7971H31.5088V66.3731C32.8286 66.4211 32.9699 66.0585 32.9699 65.024V58.7291C32.9699 57.7079 32.7966 57.4573 31.5088 57.4573V57.0334C31.8714 57.0334 32.6713 56.9694 33.7537 56.9241C34.5856 56.8921 35.3561 56.8921 35.6681 56.8921C38.8409 56.8921 39.9233 58.2732 39.9233 59.7023C39.9233 60.8647 39.2648 61.7126 37.945 62.2618C38.1956 62.4351 39.9687 64.6428 40.222 64.8934L41.0591 65.8026C42.4562 67.1997 43.6614 68.3808 45.677 68.4288V68.7381C42.5842 68.8154 41.1498 67.9382 39.7367 66.5251L38.9049 65.6932C38.0197 64.7574 36.7719 63.235 36.1107 62.7498C35.6547 62.7817 35.1215 62.7951 34.7136 62.7498V64.8214L34.7109 64.8187Z" fill="#56227D"/>
<path d="M43.1709 66.7942V66.3703C44.4267 66.3703 44.6933 66.2609 44.6933 65.0212V58.8062C44.6933 57.7397 44.584 57.4251 43.1709 57.4571V57.0332H48.3193V57.4571C46.6236 57.4571 46.4343 57.5185 46.4343 58.6969V65.3224C46.4343 65.965 46.5596 66.0903 47.2822 66.0903H48.8979C50.231 66.0903 50.327 66.0263 51.5055 64.4266H51.9774L50.7696 66.7969H43.1709V66.7942Z" fill="#56227D"/>
<path d="M58.1873 62.2271L56.6783 58.2544L55.1879 62.2271H58.1873ZM51.7031 66.3704C52.7536 66.3544 52.9589 66.1811 53.3988 64.96L56.241 57.172L56.1157 56.78H57.8727L60.9335 64.96C61.3895 66.1837 61.5468 66.3704 62.5359 66.3704V66.7943H57.8727V66.3704C59.1152 66.3704 59.4591 66.2451 59.4591 65.7891C59.4591 65.6318 59.3951 65.3652 59.2405 64.9573L58.486 63.011H54.8919L54.124 65.0986C54.0121 65.3972 53.9667 65.6025 53.9667 65.7572C53.9667 66.2131 54.2813 66.4157 55.5345 66.3677V66.7916H51.7058V66.3677L51.7031 66.3704Z" fill="#56227D"/>
<path d="M65.2825 58.8063V64.8345C65.2825 66.0583 65.4398 66.4503 66.8529 66.373V66.7969H63.1016V66.373C64.232 66.4049 64.4213 66.045 64.4213 65.0238V57.9611C64.0454 57.6305 63.6988 57.5051 63.1016 57.4598V57.0359H65.9437L72.9452 64.4293V58.8089C72.9452 57.6305 72.7559 57.4412 71.3908 57.4598V57.0359H75.1902V57.4598C74.1397 57.4598 73.8091 57.6465 73.8091 58.8409V66.8955H72.9612L65.2852 58.8116L65.2825 58.8063Z" fill="#56227D"/>
<path d="M79.5974 65.2236C79.5974 66.2128 79.7387 66.3541 80.7599 66.3541C82.6449 66.3541 83.6154 65.9461 84.3379 65.2236C85.2951 64.2664 85.5617 62.9467 85.5617 61.8482C85.5617 60.7497 85.3111 59.4459 84.3539 58.4888C83.5674 57.7022 82.5782 57.3423 80.7412 57.3423C80.4746 57.3423 79.9867 57.3423 79.5947 57.3743V65.2236H79.5974ZM77.8564 58.8354C77.8564 57.6889 77.5577 57.4383 76.3633 57.4543V57.0303C76.8192 57.0303 78.1683 56.9664 78.8269 56.937C79.6747 56.905 80.4772 56.905 81.0718 56.905C83.4421 56.905 85.1538 57.329 86.1109 58.2861C87.0841 59.2566 87.46 60.4511 87.46 61.6269C87.46 63.9358 85.8443 66.7913 81.2451 66.7913H76.3633V66.3674C77.6964 66.3674 77.8564 66.1488 77.8564 65.0956V58.8327V58.8354Z" fill="#56227D"/>
<path d="M54.2811 10.9958C54.3771 10.9958 54.4518 11.1185 54.4571 11.2171C54.7877 17.52 51.0417 22.8631 45.9919 23.7056C45.9919 23.7056 45.9066 23.711 45.9092 23.783C45.9146 23.8629 46.0212 23.8709 46.0212 23.8709C49.9832 24.1829 53.9905 22.2259 56.0142 18.8398C58.6457 14.4326 57.5446 8.96417 57.1553 7.01251C56.5448 3.9517 54.9024 -0.0449435 54.5211 0.000382083C54.2731 0.0297104 54.3158 0.357654 54.1532 1.0402C52.9667 5.96736 48.9247 7.92169 47.4823 11.4891C44.8801 6.89786 38.1079 3.3758 29.4694 2.81057C29.3094 2.7999 29.2454 3.0052 29.3201 3.09585C29.3414 3.12251 29.3601 3.15984 29.4001 3.1865C33.6527 5.95403 33.9593 8.76421 34.8658 12.6222C35.687 16.1283 38.1186 16.2723 38.1186 16.2723C37.3294 15.4937 37.0228 14.3712 36.4869 12.0303C35.8336 9.16414 34.5965 6.11933 31.0345 3.69841C30.8292 3.5571 30.7492 3.40246 31.1358 3.43712C35.8603 3.90638 44.6375 7.03651 47.1384 13.782C48.2235 16.7042 47.6609 20.5808 45.4693 22.6445C45.4693 22.6445 45.4293 22.6818 45.4613 22.7245C45.4986 22.7698 45.5973 22.7458 45.5973 22.7458C50.7751 21.9539 54.1052 16.7122 54.1052 11.2145C54.1052 11.1158 54.1852 10.9932 54.2811 10.9932V10.9958ZM44.2962 21.9699C44.1762 21.9833 44.1762 21.8606 44.1762 21.8606C45.9172 17.5334 43.6243 11.8703 39.5343 9.07616C39.3637 8.95884 39.545 8.74288 39.7103 8.85219C44.4962 12.0197 46.8318 17.3441 44.4268 21.8473C44.4268 21.8473 44.3682 21.9646 44.2935 21.9699H44.2962Z" fill="#E56606"/>
<path d="M27.0889 21.5488C27.0409 21.4635 27.1102 21.3381 27.1928 21.2875C32.4879 17.8481 38.9881 18.4213 42.2409 22.3726C42.2409 22.3726 42.2862 22.4446 42.3502 22.4046C42.4169 22.362 42.3689 22.2633 42.3689 22.2633C40.6572 18.6773 36.9592 16.1817 33.0158 16.1257C27.8834 16.0484 23.6974 19.7384 22.2017 21.0529C19.8581 23.1138 17.2159 26.5319 17.4478 26.8412C17.5945 27.0412 17.8584 26.8385 18.533 26.6386C23.3935 25.2041 27.1075 27.7237 30.9149 27.1931C28.2407 31.739 28.5766 39.367 32.4079 47.131C32.4773 47.275 32.6879 47.2297 32.7279 47.1177C32.7412 47.0831 32.7652 47.0484 32.7679 47.0004C33.0398 41.9346 35.3194 40.2629 38.2069 37.5514C40.8332 35.0878 39.7427 32.9095 39.7427 32.9095C39.4654 33.984 38.6442 34.8105 36.8845 36.4449C34.7302 38.4445 32.7119 41.0388 32.3946 45.334C32.376 45.582 32.28 45.7313 32.12 45.3767C30.163 41.0521 28.486 31.8857 33.0772 26.3453C35.0662 23.9457 38.7029 22.4953 41.5877 23.3591C41.5877 23.3591 41.6384 23.3751 41.6597 23.3271C41.681 23.2711 41.6117 23.1992 41.6117 23.1992C38.3376 19.1119 32.1333 18.8452 27.3715 21.5968C27.2862 21.6448 27.1422 21.6368 27.0915 21.5541L27.0889 21.5488ZM41.5877 24.7082C41.657 24.8042 41.5504 24.8682 41.5504 24.8682C36.9352 25.5241 33.1758 30.3419 32.7972 35.2798C32.7812 35.485 32.5013 35.4344 32.5146 35.2371C32.8639 29.5101 36.3086 24.8255 41.4117 24.6549C41.4117 24.6549 41.5424 24.6469 41.585 24.7082H41.5877Z" fill="#7A207F"/>
<path d="M49.8262 39.8205C49.7782 39.9031 49.6342 39.9058 49.5489 39.8605C43.9232 36.9943 41.169 31.078 42.9661 26.2841C42.9661 26.2841 43.0034 26.2068 42.9367 26.1748C42.8674 26.1401 42.8034 26.2281 42.8034 26.2281C40.5531 29.5049 40.2412 33.9521 42.1635 37.3995C44.6644 41.8814 49.9515 43.6625 51.8365 44.2997C54.7934 45.2995 59.0753 45.8781 59.2273 45.5235C59.3259 45.2969 59.0193 45.1689 58.51 44.6836C54.8387 41.1936 55.164 36.717 52.799 33.6855C58.0755 33.7282 64.5143 29.6222 69.3215 22.4261C69.4095 22.2928 69.2655 22.1328 69.1482 22.1542C69.1136 22.1595 69.0709 22.1542 69.0282 22.1782C64.5063 24.4764 61.9175 23.338 58.1261 22.1915C54.6787 21.1517 53.3376 23.1833 53.3376 23.1833C54.4068 22.8874 55.5319 23.1833 57.8275 23.8925C60.6377 24.7564 63.8931 25.2096 67.7698 23.338C67.9937 23.2286 68.1697 23.2393 67.9431 23.5539C65.1756 27.4119 58.0755 33.4456 50.9833 32.2404C47.9119 31.7179 44.8351 29.2943 44.1445 26.3614C44.1445 26.3614 44.1339 26.3081 44.0779 26.3161C44.0192 26.3241 43.9925 26.4228 43.9925 26.4228C42.0862 31.2993 44.963 36.8076 49.7222 39.5565C49.8075 39.6045 49.8742 39.7351 49.8262 39.8205ZM45.315 25.6842C45.3656 25.5722 45.4723 25.6362 45.4723 25.6362C48.3491 29.3049 54.4014 30.1528 58.8647 28.0092C59.0513 27.9185 59.1499 28.1851 58.9713 28.2758C53.8362 30.8353 48.0558 30.1981 45.3576 25.8629C45.3576 25.8629 45.2857 25.7535 45.315 25.6869V25.6842Z" fill="#4CA32F"/>
</svg>
