<svg width="22" height="22" viewBox="0 0 22 22" fill="none" xmlns="http://www.w3.org/2000/svg">
<path d="M11 2.39535C14.211 2.39535 16.814 4.99834 16.814 8.2093V16.814H5.18605V8.2093C5.18605 4.99834 7.78904 2.39535 11 2.39535ZM18.2093 16.814V8.2093C18.2093 4.22771 14.9816 1 11 1C7.01841 1 3.7907 4.22771 3.7907 8.2093V16.814H1.69767C1.31236 16.814 1 17.1263 1 17.5116C1 17.8969 1.31236 18.2093 1.69767 18.2093H20.3023C20.6876 18.2093 21 17.8969 21 17.5116C21 17.1263 20.6876 16.814 20.3023 16.814H18.2093Z" fill="#333333"/>
<path d="M7.97674 17.5116C7.97674 17.1263 8.2891 16.814 8.67442 16.814H13.3256C13.7109 16.814 14.0233 17.1263 14.0233 17.5116V17.9767C14.0233 19.6464 12.6697 21 11 21C9.33031 21 7.97674 19.6464 7.97674 17.9767V17.5116ZM9.38858 18.2093C9.50143 18.9982 10.1799 19.6047 11 19.6047C11.8201 19.6047 12.4986 18.9982 12.6114 18.2093H9.38858Z" fill="#333333"/>
<path d="M11 2.39535C14.211 2.39535 16.814 4.99834 16.814 8.2093V16.814H5.18605V8.2093C5.18605 4.99834 7.78904 2.39535 11 2.39535ZM18.2093 16.814V8.2093C18.2093 4.22771 14.9816 1 11 1C7.01841 1 3.7907 4.22771 3.7907 8.2093V16.814H1.69767C1.31236 16.814 1 17.1263 1 17.5116C1 17.8969 1.31236 18.2093 1.69767 18.2093H20.3023C20.6876 18.2093 21 17.8969 21 17.5116C21 17.1263 20.6876 16.814 20.3023 16.814H18.2093Z" stroke="#333333" stroke-linecap="round" stroke-linejoin="round"/>
<path d="M7.97674 17.5116C7.97674 17.1263 8.2891 16.814 8.67442 16.814H13.3256C13.7109 16.814 14.0233 17.1263 14.0233 17.5116V17.9767C14.0233 19.6464 12.6697 21 11 21C9.33031 21 7.97674 19.6464 7.97674 17.9767V17.5116ZM9.38858 18.2093C9.50143 18.9982 10.1799 19.6047 11 19.6047C11.8201 19.6047 12.4986 18.9982 12.6114 18.2093H9.38858Z" stroke="#333333" stroke-linecap="round" stroke-linejoin="round"/>
</svg>
