<svg width="160" height="71" viewBox="0 0 160 71" fill="none" xmlns="http://www.w3.org/2000/svg">
<path d="M110.069 35.5038C110.069 52.0656 96.5938 65.5 80 65.5C63.4062 65.5 49.9312 52.0656 49.9312 35.5038C49.9312 18.9421 63.3947 5.5 80 5.5C96.6053 5.5 110.069 18.9306 110.069 35.5038Z" fill="#E73947"/>
<path d="M64.509 28.3967C63.5626 27.8308 62.4937 27.6703 61.4132 27.827C63.3825 25.732 64.4553 23.4534 64.4553 21.1557C64.4553 20.9454 64.4515 20.7351 64.4247 20.521C64.3212 19.0912 63.6622 18.0169 62.6392 17.6537C61.6163 17.2714 59.735 17.4664 56.7504 20.5096L54.9573 22.5129C54.4592 23.1169 52.578 25.9613 52.2293 28.9243C51.647 33.9593 52.0186 38.9867 53.306 43.4445C53.4554 43.9644 53.9343 45.2222 55.0914 45.6886C56.3213 46.1895 57.486 45.5854 58.5205 45.054L58.7964 44.9164L59.8615 44.4423L60.896 43.9873L62.1565 43.4368C63.0607 43.0698 63.9113 42.7257 64.7427 42.0337C65.8423 41.0971 66.6507 39.8698 67.0683 38.4744C67.2829 37.7557 67.4323 36.9681 67.509 36.0735C67.5741 35.3777 67.6469 34.0319 67.3864 32.8468C66.8193 30.2356 65.5166 28.9893 64.5128 28.4005L64.509 28.3967ZM54.942 32.1586C54.942 32.1777 54.9994 32.82 54.9994 32.82C54.9879 32.9691 55.0722 33.1068 55.2025 33.1603C55.3213 33.2138 55.4554 33.187 55.5703 33.0876C56.6929 32.1471 58.3902 31.3061 59.758 31.7763C60.827 32.1471 61.555 33.2482 61.9343 35.0527C62.712 38.8376 60.1105 40.6612 58.4898 41.4029L58.4324 41.4297L56.3557 42.4466C56.3557 42.4466 56.237 42.4963 56.1105 42.4352C55.9841 42.3702 55.9458 42.2861 55.8615 42.0605C54.4477 36.8572 53.9688 31.394 54.4937 26.2901C54.5512 25.9078 54.7236 25.4414 55.0224 25.0629L56.7695 23.2049L56.9649 22.9946C57.9113 22.0771 58.804 21.6145 59.2829 21.8133C59.6814 21.9815 59.781 22.6199 59.7849 23.1208C59.8653 25.8314 58.3481 28.6031 55.1604 31.589C55.1604 31.589 54.9151 31.7878 54.9458 32.151L54.942 32.1586Z" fill="white"/>
<path d="M88.1067 12.5844C87.5243 10.5887 86.5703 10.1682 86.2944 10.0764C83.7963 9.28121 81.2025 9.11682 78.6814 9.55648C74.8998 10.2523 71.6278 12.2327 69.4554 15.1344C67.1757 18.1853 66.2983 21.9931 66.9727 25.8468C67.6585 29.712 69.6125 32.8431 72.6546 34.8923C76.2178 37.2894 80.9573 38.0196 86.0262 36.9568C89.0224 36.3068 91.4936 35.1446 93.4093 33.5007C94.2637 32.759 94.4285 31.8185 94.4285 31.1571C94.4285 31.1571 94.4744 30.6219 94.0607 28.9397C93.9495 28.5306 93.7695 28.4083 93.4821 28.4083C93.2714 28.4083 93.053 28.6491 93.0109 28.6988C91.5817 30.3504 89.4055 31.4973 86.689 32.0326C79.7121 33.3707 74.3481 30.121 73.0148 23.7441C72.4477 20.9838 72.919 18.3344 74.3596 16.2852C75.8079 14.2016 78.1833 12.8214 81.0454 12.3932C83.2255 12.0759 85.4438 12.3435 87.4323 13.1731C87.4323 13.1731 88.2867 13.4217 88.1028 12.5844H88.1067Z" fill="white"/>
</svg>
