<svg width="160" height="71" viewBox="0 0 160 71" fill="none" xmlns="http://www.w3.org/2000/svg">
<path d="M90.2181 41.0544C90.0664 40.142 89.8143 39.2573 89.449 38.4302C88.2847 35.9298 86.6611 33.8301 84.245 32.4189C80.4722 30.2211 75.9112 30.2382 72.1833 32.4914C70.4957 33.5124 69.1049 34.9769 68.2141 36.7377C67.9107 37.3367 67.6629 37.9591 67.4578 38.5944C66.4773 41.7131 66.5157 45.9061 68.2803 48.7498C68.8635 49.6813 69.6945 50.4743 70.7221 50.8665C71.7411 51.263 72.9546 51.2183 73.8774 50.6257C75.061 49.8625 75.2703 48.4066 75.0524 47.1084C74.7704 45.4499 74.5568 43.8213 75.1656 42.1948C75.3665 41.6768 75.6399 41.178 76.0394 40.7964C76.2808 40.5619 76.5692 40.3743 76.8768 40.2251C77.5199 39.9139 78.2526 39.7689 78.9533 39.8862C80.1902 40.0844 81.205 41.0437 81.7519 42.1671C82.3009 43.2862 82.4526 44.5525 82.5146 45.8038C82.7688 51.2332 81.4699 56.8609 80.0813 62.0771C79.9382 62.6164 79.7886 63.1536 79.6327 63.6865C79.5173 64.1001 79.3037 64.6245 79.5686 65.0274C79.6839 65.2 79.8613 65.3194 80.0535 65.3962C80.861 65.7202 81.519 65.2299 82.0595 64.6842C85.2533 61.4802 87.2999 57.3469 88.7013 53.1006C89.2247 51.5124 89.6691 49.8966 89.9724 48.2531C90.3869 46.002 90.6176 43.4333 90.216 41.0565" fill="#009B90"/>
<path d="M113.07 15.9495C113.07 15.1352 112.348 14.598 111.568 14.6257C110.78 14.6513 110.047 15.0542 109.327 15.3292C95.2853 20.6584 79.4531 21.671 64.6549 19.5393C62.1234 19.1748 59.5598 18.6674 57.0133 18.2709C55.4239 18.0215 53.8473 17.6612 52.2387 17.5419C50.8693 17.4396 49.1666 17.3884 48.0622 18.3391C46.5988 19.5947 46.7035 21.9801 47.5302 23.5554C48.5236 25.4462 50.2647 26.8638 52.0784 27.9403C53.8388 28.9869 55.9366 30.0997 58.0302 29.9696C63.685 29.6073 69.3292 29.0658 74.9498 28.3368C84.5333 27.094 94.5804 25.9237 103.585 22.2145C106.527 21.0016 109.43 19.4881 111.955 17.5312C112.41 17.1901 113.07 16.6167 113.07 15.9516" fill="#009B90"/>
<path d="M72.8048 11.149C72.8048 14.1909 75.2766 16.6615 78.3315 16.6615C81.3864 16.6615 83.8474 14.1909 83.8474 11.149C83.8474 10.6971 83.7449 10.2388 83.5505 9.8252C83.0762 8.82544 82.5464 8.33941 82.5998 7.13927C82.6703 5.52132 80.5917 5.5 79.4701 5.5C78.246 5.5 76.9514 5.6684 75.8491 6.22051C74.9711 6.66177 74.2105 7.33965 73.6786 8.16462C73.136 9.01303 72.8262 10.0107 72.8048 11.0211V11.1469" fill="#ED1651"/>
</svg>
