<svg width="70" height="70" viewBox="0 0 70 70" fill="none" xmlns="http://www.w3.org/2000/svg">
<path d="M18.3333 1.34149C14.6667 1.34149 11.6667 4.37076 11.6667 8.0732C11.6667 11.7756 14.6667 14.8049 18.3333 14.8049C22 14.8049 25 11.8093 25 8.0732C25 4.3371 22.0333 1.34149 18.3333 1.34149ZM11.6667 18.1708C7.96667 18.1708 5 21.1664 5 24.9025V45.0976H11.6667V68.6586H28.3333V33.6537L36.7667 48.4634H44.9L48.3333 43.9532V68.6586H61.6667V51.8293H65V41.7317C65 37.9956 62.0333 35 58.3333 35H50C48 35 46.2333 35.8752 45 37.2888C43.9 38.7025 42.7333 40.2508 41.6667 41.7317H40.6333L28.3333 20.3922C27.8 19.4498 25.7333 18.1708 23.3333 18.1708H11.6667ZM55 21.5366C52.2333 21.5366 50 23.7917 50 26.5854C50 29.3791 52.2333 31.6342 55 31.6342C57.7667 31.6342 60 29.3791 60 26.5854C60 23.7917 57.7667 21.5366 55 21.5366Z" fill="#FFBD59"/>
</svg>
