<svg width="160" height="71" viewBox="0 0 160 71" fill="none" xmlns="http://www.w3.org/2000/svg">
<path d="M130.874 18.018H29.1216C19.9594 18.018 12.5 25.5631 12.5 34.8296V52.982H24.4026V34.7942C24.4026 32.1479 26.5214 30.0193 29.1304 30.0193H130.874C133.479 30.0193 135.597 32.1479 135.597 34.7942V52.982H147.5V34.8296C147.5 25.5587 140.045 18.018 130.874 18.018Z" fill="#8897B0"/>
<path d="M43.8127 46.2911H42.3681C42.2324 46.2911 42.123 46.1938 42.123 46.0698V42.4898C42.123 42.3526 42.0048 42.2641 41.8691 42.2641H38.1C37.9599 42.2641 37.8417 42.3526 37.8417 42.4898V46.0698C37.8417 46.1893 37.7279 46.2911 37.5966 46.2911H36.152C36.0206 46.2911 35.9112 46.1938 35.9112 46.0698V37.2105C35.9112 37.0866 36.0206 36.9892 36.152 36.9892H37.5966C37.7279 36.9892 37.8417 37.0866 37.8417 37.2105V40.6489C37.8417 40.7684 37.9599 40.8702 38.1 40.8702H41.8691C42.0048 40.8702 42.123 40.7728 42.123 40.6489V37.2105C42.123 37.0866 42.2324 36.9892 42.3681 36.9892H43.8127C43.9441 36.9892 44.0535 37.0866 44.0535 37.2105V46.0698C44.0535 46.1893 43.9441 46.2911 43.8127 46.2911Z" fill="#8897B0"/>
<path d="M52.8872 48.0479L51.9679 49.495C51.9067 49.6012 51.7403 49.6941 51.6046 49.6941H51.4251C51.3069 49.6941 51.1975 49.6012 51.1887 49.495V45.8618C51.1887 45.7423 51.0749 45.6582 50.9567 45.6981L48.317 46.353C48.1813 46.384 48.0456 46.3928 47.8924 46.3928C47.0081 46.3928 46.2859 45.7379 46.2859 44.9192V39.423C46.2859 39.2991 46.3909 39.1841 46.531 39.1841H47.9187C48.0544 39.1841 48.1638 39.2947 48.1638 39.423V44.7422C48.1638 44.8661 48.2689 44.9635 48.4046 44.9635H50.9392C51.0705 44.9635 51.1844 44.8705 51.1844 44.7422V39.3921C51.1931 39.2814 51.3026 39.1841 51.4207 39.1841H52.8128C52.8566 39.1841 52.8829 39.2106 52.9223 39.2239C52.9879 39.2682 53.0404 39.308 53.0536 39.3921V47.4372C53.0536 47.6496 52.9835 47.8797 52.8785 48.0435L52.8872 48.0479Z" fill="#8897B0"/>
<path d="M61.6642 46.2911H60.2765C60.1408 46.2911 60.0358 46.1937 60.0358 46.0698V45.8618C60.0358 45.7423 59.9307 45.6582 59.8038 45.6981L57.1641 46.353C57.0284 46.384 56.897 46.3928 56.7438 46.3928C55.8596 46.3928 55.1373 45.7379 55.1373 44.9192V39.423C55.1373 39.2991 55.2467 39.1841 55.3824 39.1841H56.7701C56.9058 39.1841 57.0152 39.2947 57.0152 39.423V44.7422C57.0152 44.8661 57.1203 44.9635 57.2516 44.9635H59.7862C59.9219 44.9635 60.0314 44.8705 60.0314 44.7422V39.423C60.0314 39.2991 60.1364 39.1841 60.2722 39.1841H61.6598C61.7956 39.1841 61.905 39.2947 61.905 39.423V46.0654C61.905 46.1849 61.7956 46.2866 61.6598 46.2866L61.6642 46.2911Z" fill="#8897B0"/>
<path d="M70.7564 46.07C70.7564 46.1895 70.647 46.2913 70.5113 46.2913H69.1279C68.9879 46.2913 68.8828 46.194 68.8828 46.07V40.7332C68.8828 40.6048 68.7734 40.5119 68.6377 40.5119H66.1074C65.9673 40.5119 65.8623 40.6048 65.8623 40.7332V46.07C65.8623 46.1895 65.7485 46.2913 65.6171 46.2913H64.2294C64.0937 46.2913 63.9887 46.194 63.9887 46.07V39.4277C63.9887 39.3038 64.0937 39.1888 64.2294 39.1888H65.6171C65.7485 39.1888 65.8623 39.2994 65.8623 39.4277V39.6357C65.8623 39.7552 65.9673 39.8304 66.0943 39.7994L68.7383 39.1401C68.874 39.1003 69.0054 39.087 69.1586 39.087C70.0385 39.087 70.7652 39.7419 70.7652 40.5562V46.0745L70.7564 46.07Z" fill="#8897B0"/>
<path d="M79.2231 46.2911H77.8354C77.6997 46.2911 77.5947 46.1938 77.5947 46.0699V45.8619C77.5947 45.7424 77.4852 45.6583 77.3583 45.6981L74.6923 46.3531C74.5566 46.384 74.4209 46.3929 74.2852 46.3929C73.4009 46.3929 72.683 45.738 72.683 44.9193V41.7419C72.683 41.0826 73.0595 40.5161 73.6461 40.202L75.117 39.4275C75.4015 39.2771 75.7298 39.1841 76.08 39.1841H77.3451C77.4808 39.1841 77.5903 39.0912 77.5903 38.9629V36.3475C77.5903 36.2236 77.6953 36.1263 77.8311 36.1263H79.2187C79.3501 36.1263 79.4595 36.2236 79.4595 36.3475V46.061C79.4595 46.1805 79.3501 46.2823 79.2187 46.2823L79.2231 46.2911ZM77.5903 44.4325V40.733C77.5903 40.6047 77.4808 40.5117 77.3451 40.5117H74.8018C74.6661 40.5117 74.5435 40.6047 74.5435 40.733V44.7467C74.5435 44.8706 74.6661 44.968 74.8018 44.968H77.3451C77.4808 44.968 77.5903 44.875 77.5903 44.7467V44.4281V44.4325Z" fill="#8897B0"/>
<path d="M81.381 41.7465C81.381 41.0871 81.7618 40.5207 82.3528 40.2065L83.8193 39.4276C84.1038 39.286 84.4365 39.1887 84.7867 39.1887H87.9255C88.0655 39.1887 88.175 39.2993 88.175 39.4276V46.0699C88.175 46.1894 88.0655 46.2912 87.9255 46.2912H86.5378C86.4021 46.2912 86.297 46.1939 86.297 46.0699V45.862C86.297 45.7425 86.1876 45.6584 86.065 45.6982L83.3947 46.3532C83.259 46.3841 83.1233 46.393 82.9876 46.393C82.0989 46.393 81.3766 45.7381 81.3766 44.9194V41.742L81.381 41.7465ZM86.297 40.7331C86.297 40.6047 86.1876 40.5118 86.0475 40.5118H83.5129C83.3728 40.5118 83.2546 40.6047 83.2546 40.7331V44.7468C83.2546 44.8707 83.3728 44.9681 83.5129 44.9681H86.0475C86.1876 44.9681 86.297 44.8751 86.297 44.7468V40.7331Z" fill="#8897B0"/>
<path d="M91.8741 37.6219H90.4864C90.3507 37.6219 90.2413 37.529 90.2413 37.4006V36.3563C90.2413 36.2324 90.3507 36.135 90.4864 36.135H91.8741C92.0098 36.135 92.1237 36.2324 92.1237 36.3563V37.4006C92.1237 37.529 92.0098 37.6219 91.8741 37.6219ZM91.8741 46.291H90.4864C90.3507 46.291 90.2413 46.1936 90.2413 46.0697V39.4274C90.2413 39.3035 90.3507 39.1884 90.4864 39.1884H91.8741C92.0098 39.1884 92.1237 39.2991 92.1237 39.4274V46.0697C92.1237 46.1892 92.0098 46.291 91.8741 46.291Z" fill="#8897B0"/>
<path d="M101.286 38.3655H96.5101C96.3831 38.3655 96.2562 38.4761 96.2562 38.6V44.6671C96.2562 44.8042 96.3831 44.9105 96.5101 44.9105H101.413C101.549 44.9105 101.676 44.9945 101.676 45.1052C101.676 45.2291 101.579 45.3663 101.444 45.4371L100.288 46.0433C99.9902 46.1938 99.6444 46.2911 99.2942 46.2911H96.3087C95.1924 46.2911 94.295 45.4813 94.295 44.4458V39.6709C94.295 38.9717 94.6846 38.3655 95.2975 38.0601L96.7859 37.2724C96.834 37.2503 96.9872 37.1662 97.0398 37.153C97.3024 37.0468 97.5826 36.9848 97.8802 36.9848H101.282C101.426 36.9848 101.536 37.0822 101.536 37.2061V38.1398C101.536 38.2637 101.426 38.3611 101.282 38.3611L101.286 38.3655Z" fill="#8897B0"/>
<path d="M102.822 41.7465C102.822 41.0871 103.199 40.5207 103.785 40.2065L105.26 39.4276C105.545 39.286 105.873 39.1887 106.223 39.1887H109.367C109.502 39.1887 109.616 39.2993 109.616 39.4276V46.0699C109.616 46.1894 109.507 46.2912 109.367 46.2912H107.979C107.843 46.2912 107.738 46.1939 107.738 46.0699V45.862C107.738 45.7425 107.629 45.6584 107.502 45.6982L104.831 46.3532C104.696 46.3841 104.56 46.393 104.424 46.393C103.544 46.393 102.822 45.7381 102.822 44.9194V41.742V41.7465ZM107.734 40.7331C107.734 40.6047 107.624 40.5118 107.489 40.5118H104.941C104.805 40.5118 104.687 40.6047 104.687 40.7331V44.7468C104.687 44.8707 104.805 44.9681 104.941 44.9681H107.489C107.624 44.9681 107.734 44.8751 107.734 44.7468V40.7331Z" fill="#8897B0"/>
<path d="M116.524 40.5075H113.797C113.661 40.5075 113.556 40.6004 113.556 40.7288V46.0657C113.556 46.1851 113.447 46.2869 113.311 46.2869H111.936C111.801 46.2869 111.683 46.1896 111.683 46.0657V39.4233C111.683 39.2994 111.801 39.1844 111.936 39.1844H113.311C113.447 39.1844 113.556 39.295 113.556 39.4233V39.6136C113.556 39.7375 113.661 39.8305 113.797 39.8305C113.845 39.8305 113.893 39.8216 113.924 39.8039L114.778 39.3215C115.049 39.1711 115.364 39.1003 115.701 39.1003H116.524C116.651 39.1003 116.761 39.1976 116.761 39.3215V40.2686C116.761 40.4057 116.651 40.5031 116.524 40.5031V40.5075Z" fill="#8897B0"/>
<path d="M123.852 46.2911H122.469C122.333 46.2911 122.223 46.1938 122.223 46.0699V45.8619C122.223 45.7424 122.123 45.6583 122 45.6981L119.33 46.3531C119.194 46.384 119.059 46.3929 118.923 46.3929C118.034 46.3929 117.321 45.738 117.321 44.9193V41.7419C117.321 41.0826 117.697 40.5161 118.279 40.202L119.75 39.4275C120.03 39.2771 120.359 39.1841 120.718 39.1841H121.983C122.118 39.1841 122.219 39.0912 122.219 38.9629V36.3475C122.219 36.2236 122.329 36.1263 122.464 36.1263H123.848C123.983 36.1263 124.093 36.2236 124.093 36.3475V46.061C124.093 46.1805 123.983 46.2823 123.848 46.2823L123.852 46.2911ZM122.219 44.4325V40.733C122.219 40.6047 122.118 40.5117 121.983 40.5117H119.439C119.295 40.5117 119.177 40.6047 119.177 40.733V44.7467C119.177 44.8706 119.295 44.968 119.439 44.968H121.983C122.118 44.968 122.219 44.875 122.219 44.7467V44.4281V44.4325Z" fill="#8897B0"/>
</svg>
