<svg width="160" height="71" viewBox="0 0 160 71" fill="none" xmlns="http://www.w3.org/2000/svg">
<path d="M131 40.2292C154.964 27.8778 151.965 16.0721 127.576 13.6379C101.305 11.0114 62.9138 16.6963 36.1665 27.5558L32.457 29.1498C4.60075 41.674 7.23643 54.9284 32.1056 57.3429C59.2785 59.9851 100.583 54.5868 127.627 41.9213L131.004 40.2213L131 40.2292Z" fill="#0060A9"/>
<path d="M125.831 42.6513C125.831 42.6513 121.251 43.0203 121.141 39.3102V32.1294C121.141 32.1294 120.571 28.168 125.702 28.168C125.702 28.168 129.037 28.062 129.919 30.0525C129.919 30.0525 130.36 30.5865 130.239 32.789H126.682V31.6583C126.682 31.6583 126.674 30.7475 125.753 30.7475C125.753 30.7475 124.792 30.7906 124.792 31.5562V38.9804C124.792 38.9804 124.749 39.9776 125.835 39.9776C125.835 39.9776 126.729 39.958 126.729 38.9098V36.7622H125.757V34.7599H130.329V38.9804C130.329 38.9804 130.317 39.8638 129.95 40.386C129.95 40.386 129.576 40.9513 129.435 41.0573C129.435 41.0573 128.205 42.6513 125.827 42.6513" fill="white"/>
<path d="M116.412 28.71H112.855L113.105 36.9311H112.953L109.341 28.71H105.022V42.2667H108.536L108.326 33.9748H108.482L112.223 42.2667H116.412V28.71Z" fill="white"/>
<path d="M94.3666 28.6509H90.5087V38.8194C90.5087 38.8194 90.1143 42.6669 95.5146 42.6669C95.5146 42.6669 100.212 42.7258 100.212 39V28.6587H96.4439V38.8783C96.4439 38.8783 96.4946 39.9933 95.4638 39.9933C95.4638 39.9933 94.3783 40.0522 94.3783 38.9058L94.3705 28.6587L94.3666 28.6509Z" fill="white"/>
<path d="M86.0804 32.8482V31.1482C86.0804 31.1482 86.3459 28.3646 81.8945 28.239C81.8945 28.239 78.392 28.0073 77.3885 29.9036C77.3885 29.9036 76.9941 30.3276 76.9941 31.7999V32.8639C76.9941 32.8639 76.959 34.0927 77.5759 34.8858C77.5759 34.8858 77.9312 35.404 78.7981 35.9772C78.7981 35.9772 80.563 36.9313 81.6212 37.477C81.6212 37.477 82.6911 38.0934 82.5466 39.071C82.5466 39.071 82.4607 40.0721 81.4299 40.0329C81.4299 40.0329 80.4849 39.9897 80.4849 39.0042V37.8461H76.7052V39.5264C76.7052 39.5264 76.5997 42.7301 81.4572 42.7301C81.4572 42.7301 86.0999 42.8243 86.3147 39.44V38.0777C86.3147 38.0777 86.4787 36.0008 84.6747 34.9094C84.6747 34.9094 83.7102 34.3126 83.1089 34.081C83.1089 34.081 81.2659 33.2172 80.9027 32.8089C80.9027 32.8089 80.1804 32.1258 80.6021 31.3366C80.6021 31.3366 80.7778 30.8145 81.5392 30.8145C81.5392 30.8145 82.531 30.8694 82.531 31.69V32.8442H86.0765L86.0804 32.8482Z" fill="white"/>
<path d="M57.9823 28.7061L57.6855 42.2667H61.192L61.2388 32.0471H61.5122L63.3747 42.2628H67.0647L68.9038 32.0511H69.1498L69.2318 42.2667H72.7617L72.3829 28.7061H66.5102L65.3232 36.1263H65.0459L63.9136 28.7061H57.9823Z" fill="white"/>
<path d="M53.9173 42.2508L51.5823 28.6941H45.6159L43.2887 42.2508H47.0606L48.4468 31.7407H48.7553L50.1414 42.2508H53.9173Z" fill="white"/>
<path d="M39.5791 32.8482L39.5713 31.1482C39.5713 31.1482 39.8407 28.3646 35.3893 28.239C35.3893 28.239 31.8907 28.0073 30.8833 29.9036C30.8833 29.9036 30.4889 30.3276 30.4889 31.7999V32.8639C30.4889 32.8639 30.4498 34.0927 31.0707 34.8858C31.0707 34.8858 31.426 35.404 32.2968 35.9772C32.2968 35.9772 34.0578 36.9313 35.116 37.477C35.116 37.477 36.1859 38.0934 36.0414 39.071C36.0414 39.071 35.9555 40.0721 34.9285 40.0329C34.9285 40.0329 33.9797 39.9897 33.9797 39.0042V37.8461H30.196V39.5264C30.196 39.5264 30.0906 42.7301 34.952 42.7301C34.952 42.7301 39.5908 42.8243 39.8094 39.44V38.0777C39.8094 38.0777 39.9695 36.0008 38.1656 34.9094C38.1656 34.9094 37.2011 34.3126 36.6076 34.081C36.6076 34.081 34.7606 33.2172 34.3936 32.8089C34.3936 32.8089 33.6712 32.1258 34.0929 31.3366C34.0929 31.3366 34.2725 30.8145 35.0301 30.8145C35.0301 30.8145 36.0219 30.8694 36.0219 31.69V32.8442H39.5713L39.5791 32.8482Z" fill="white"/>
</svg>
