<svg width="160" height="71" viewBox="0 0 160 71" fill="none" xmlns="http://www.w3.org/2000/svg">
<path d="M110.065 35.5C110.065 52.0714 96.5957 65.5 80.0195 65.5C63.4434 65.5 49.9353 52.0714 49.9353 35.5C49.9353 18.9286 63.4008 5.5 80.016 5.5C96.6312 5.5 110.061 18.9463 110.061 35.5H110.065Z" fill="white"/>
<path d="M80.0342 64.0864C95.8326 64.0864 108.655 51.2956 108.655 35.5072C108.655 19.7189 95.8326 6.92804 80.0306 6.92804C64.2286 6.92804 51.3917 19.7224 51.3917 35.5072C51.3917 51.292 64.2037 64.0864 80.0342 64.0864Z" fill="#0082C9"/>
<mask id="mask0_676_7593" style="mask-type:luminance" maskUnits="userSpaceOnUse" x="51" y="6" width="58" height="59">
<path d="M80.0342 64.0863C95.8326 64.0863 108.655 51.2955 108.655 35.5178C108.655 19.7401 95.8326 6.94922 80.0306 6.94922C64.2286 6.94922 51.3917 19.733 51.3917 35.5178C51.3917 51.3026 64.2037 64.0863 80.0342 64.0863Z" fill="white"/>
</mask>
<g mask="url(#mask0_676_7593)">
<path d="M80.2857 49.2936C92.8883 49.2936 103.662 52.8049 108.3 57.7689C109.83 54.2328 110.682 50.3034 110.682 46.2111C110.682 29.8062 97.0678 16.5335 80.2857 16.5335C63.5036 16.5335 49.9032 29.8133 49.9032 46.2253C49.9032 50.3176 50.7625 54.2328 52.293 57.7724C56.92 52.8049 67.708 49.2972 80.2857 49.2972V49.2936Z" fill="#0082C9"/>
<path d="M80.2816 49.3257C92.8487 49.3257 103.598 52.8087 108.225 57.7337C109.752 54.2295 110.604 50.3284 110.604 46.268C110.604 29.9942 97.0211 16.7888 80.2852 16.7888C63.5492 16.7888 49.9772 30.0013 49.9772 46.2786C49.9772 50.3391 50.833 54.2224 52.36 57.7337C56.9727 52.8087 67.7359 49.3257 80.2816 49.3257Z" fill="#0184CA"/>
<path d="M80.2787 49.3574C92.8138 49.3574 103.534 52.812 108.147 57.698C109.67 54.2222 110.519 50.353 110.519 46.3244C110.519 30.1818 96.972 17.0437 80.2787 17.0437C63.5854 17.0437 50.0489 30.1889 50.0489 46.3351C50.0489 50.3636 50.9047 54.2151 52.4281 57.698C57.0302 52.812 67.7649 49.3574 80.2787 49.3574Z" fill="#0286CC"/>
<path d="M80.2748 49.3893C92.7779 49.3893 103.47 52.812 108.072 57.6591C109.592 54.2116 110.441 50.3743 110.441 46.3776C110.441 30.3696 96.9291 17.2917 80.2748 17.2917C63.6205 17.2917 50.1231 30.3767 50.1231 46.3918C50.1231 50.3849 50.9754 54.208 52.4952 57.6626C57.0867 52.8155 67.793 49.3928 80.2712 49.3928L80.2748 49.3893Z" fill="#0388CD"/>
<path d="M80.2715 49.4213C92.7427 49.4213 103.41 52.8156 107.998 57.6237C109.514 54.2045 110.359 50.3992 110.359 46.4344C110.359 30.5574 96.8832 17.5469 80.2715 17.5469C63.6598 17.5469 50.1979 30.5645 50.1979 46.445C50.1979 50.4063 51.0502 54.201 52.5665 57.6237C57.1437 52.8156 67.8252 49.4213 80.2715 49.4213Z" fill="#048ACE"/>
<path d="M80.2641 49.453C92.7033 49.453 103.342 52.819 107.916 57.5881C109.429 54.1973 110.274 50.4238 110.274 46.4944C110.274 30.7486 96.8331 17.8054 80.2641 17.8054C63.695 17.8054 50.2722 30.7522 50.2722 46.5015C50.2722 50.4309 51.1208 54.1938 52.6336 57.5881C57.2002 52.819 67.8532 49.453 80.2676 49.453H80.2641Z" fill="#058CD0"/>
<path d="M80.2605 49.4849C92.6677 49.4849 103.278 52.8226 107.841 57.5492C109.354 54.1867 110.192 50.4451 110.192 46.5476C110.192 30.9364 96.7869 18.0535 80.2605 18.0535C63.734 18.0535 50.3431 30.94 50.3431 46.5582C50.3431 50.4557 51.1883 54.1867 52.701 57.5527C57.257 52.8261 67.8816 49.4885 80.2605 49.4885V49.4849Z" fill="#068FD1"/>
<path d="M80.2572 49.5169C92.6325 49.5169 103.215 52.8262 107.767 57.5138C109.276 54.1797 110.114 50.47 110.114 46.6044C110.114 31.1243 96.7411 18.3087 80.2608 18.3087C63.7805 18.3087 50.418 31.1278 50.418 46.6115C50.418 50.4771 51.2632 54.1761 52.7688 57.5138C57.3106 52.8262 67.9068 49.5169 80.2572 49.5169Z" fill="#0791D2"/>
<path d="M80.2533 49.5524C92.5931 49.5524 103.154 52.8334 107.688 57.4821C109.194 54.1763 110.029 50.4985 110.029 46.6648C110.029 31.3158 96.691 18.5674 80.2498 18.5674C63.8086 18.5674 50.4922 31.3158 50.4922 46.6683C50.4922 50.502 51.3338 54.1692 52.8395 57.4785C57.3706 52.8299 67.9384 49.5489 80.2569 49.5489L80.2533 49.5524Z" fill="#0893D4"/>
<path d="M80.25 49.5844C92.5579 49.5844 103.09 52.837 107.614 57.4432C109.116 54.1657 109.951 50.5198 109.951 46.718C109.951 31.5001 96.6486 18.8191 80.25 18.8191C63.8514 18.8191 50.5671 31.5072 50.5671 46.7251C50.5671 50.5269 51.4051 54.1657 52.9072 57.4432C57.4276 52.8335 67.9671 49.5844 80.25 49.5844Z" fill="#0995D5"/>
<path d="M80.2464 49.616C92.5223 49.616 103.026 52.8368 107.54 57.4074C109.038 54.1584 109.869 50.5443 109.869 46.7744C109.869 31.6911 96.6024 19.0704 80.2464 19.0704C63.8905 19.0704 50.6381 31.6947 50.6381 46.7779C50.6381 50.5479 51.4761 54.1548 52.9746 57.4039C57.4809 52.8368 67.9954 49.6125 80.2464 49.6125V49.616Z" fill="#0A97D7"/>
<path d="M80.2432 49.648C92.4871 49.648 102.963 52.8404 107.462 57.3721C108.96 54.1514 109.788 50.5692 109.788 46.8312C109.788 31.879 96.5566 19.3256 80.2432 19.3256C63.9298 19.3256 50.713 31.8825 50.713 46.8347C50.713 50.5728 51.5474 54.1478 53.0424 57.3686C57.538 52.8404 68.0242 49.6444 80.2432 49.6444V49.648Z" fill="#0B99D8"/>
<path d="M80.2393 49.68C92.4513 49.68 102.898 52.8441 107.387 57.3333C108.882 54.1409 109.706 50.5906 109.706 46.888C109.706 32.0669 96.5065 19.5808 80.2393 19.5808C63.9721 19.5808 50.7872 32.0705 50.7872 46.8915C50.7872 50.5977 51.6217 54.1409 53.1095 57.3333C57.5909 52.8441 68.0522 49.68 80.2358 49.68H80.2393Z" fill="#0C9BD9"/>
<path d="M80.236 49.7117C92.416 49.7117 102.838 52.8474 107.313 57.2976C108.804 54.1371 109.628 50.6152 109.628 46.9445C109.628 32.258 96.4642 19.8357 80.236 19.8357C64.0079 19.8357 50.862 32.258 50.862 46.9445C50.862 50.6187 51.6929 54.13 53.1808 57.2941C57.6515 52.8438 68.0844 49.7081 80.236 49.7081V49.7117Z" fill="#0D9DDB"/>
<path d="M80.2324 49.7436C92.3805 49.7436 102.774 52.851 107.234 57.2587C108.722 54.1265 109.543 50.6365 109.543 46.9976C109.543 32.4423 96.4144 20.0837 80.2289 20.0837C64.0433 20.0837 50.933 32.4459 50.933 47.0012C50.933 50.6436 51.7604 54.1265 53.2447 57.2587C57.7048 52.8474 68.1093 49.7436 80.2289 49.7436H80.2324Z" fill="#0E9FDC"/>
<path d="M80.225 49.7756C92.3411 49.7756 102.706 52.8546 107.156 57.2233C108.64 54.1195 109.461 50.6614 109.461 47.0544C109.461 32.6302 96.3679 20.3389 80.225 20.3389C64.0821 20.3389 51.0072 32.6337 51.0072 47.058C51.0072 50.6649 51.8346 54.1195 53.3154 57.2233C57.7612 52.8546 68.1409 49.7756 80.2285 49.7756H80.225Z" fill="#0FA1DD"/>
<path d="M80.2217 49.8075C92.3023 49.8075 102.643 52.8582 107.082 57.188C108.562 54.1125 109.379 50.6862 109.379 47.1112C109.379 32.8216 96.3221 20.5941 80.2217 20.5941C64.1214 20.5941 51.0821 32.8216 51.0821 47.1112C51.0821 50.6862 51.9059 54.1089 53.3832 57.1844C57.8184 52.8547 68.166 49.804 80.2217 49.804V49.8075Z" fill="#10A4DF"/>
<path d="M80.2185 49.8392C92.2671 49.8392 102.583 52.8615 107.004 57.1488C108.485 54.1016 109.298 50.7073 109.298 47.1641C109.298 33.0056 96.2726 20.8455 80.2185 20.8455C64.1643 20.8455 51.1569 33.0092 51.1569 47.1676C51.1569 50.7108 51.9808 54.1016 53.4544 57.1488C57.879 52.858 68.1983 49.8392 80.222 49.8392H80.2185Z" fill="#11A6E0"/>
<path d="M80.2142 49.8711C92.2308 49.8711 102.518 52.8615 106.929 57.1133C108.406 54.0946 109.215 50.7321 109.215 47.2208C109.215 33.1934 96.2257 21.097 80.2142 21.097C64.2027 21.097 51.2272 33.197 51.2272 47.2244C51.2272 50.7356 52.0475 54.0946 53.5176 57.1133C57.928 52.8615 68.2224 49.8711 80.2142 49.8711Z" fill="#12A8E1"/>
<path d="M80.211 49.9031C92.1956 49.9031 102.455 52.8652 106.854 57.0781C108.328 54.0876 109.138 50.757 109.138 47.2812C109.138 33.3849 96.1834 21.3558 80.211 21.3558C64.2385 21.3558 51.3021 33.3849 51.3021 47.2776C51.3021 50.757 52.1189 54.0876 53.589 57.0745C57.9887 52.8652 68.2547 49.8996 80.211 49.8996V49.9031Z" fill="#13AAE3"/>
<path d="M80.2071 49.9351C92.1598 49.9351 102.39 52.8689 106.776 57.0392C108.246 54.0771 109.056 50.7784 109.056 47.3344C109.056 33.5728 96.1369 21.6075 80.2071 21.6075C64.2772 21.6075 51.3763 33.5728 51.3763 47.3344C51.3763 50.7819 52.1931 54.0806 53.6561 57.0392C58.0452 52.8689 68.2827 49.9351 80.2071 49.9351Z" fill="#14ACE4"/>
<path d="M80.2041 49.9667C92.1248 49.9667 102.327 52.8721 106.702 57.0034C108.168 54.0697 108.974 50.8029 108.974 47.3908C108.974 33.7603 96.0913 21.8588 80.2041 21.8588C64.3168 21.8588 51.4479 33.7603 51.4479 47.3908C51.4479 50.8064 52.2611 54.0732 53.7241 57.0034C58.099 52.8721 68.3117 49.9667 80.2041 49.9667Z" fill="#15AEE5"/>
<path d="M80.2002 49.9987C92.089 49.9987 102.266 52.8758 106.627 56.9681C108.09 54.0628 108.896 50.8278 108.896 47.4477C108.896 33.9482 96.0448 22.114 80.2037 22.114C64.3626 22.114 51.5222 33.9482 51.5222 47.4441C51.5222 50.8278 52.3318 54.0628 53.7913 56.9646C58.1555 52.8723 68.3398 49.9952 80.1966 49.9952L80.2002 49.9987Z" fill="#16B0E7"/>
<path d="M80.1969 50.0307C92.0502 50.0307 102.203 52.8794 106.549 56.9292C108.012 54.0521 108.811 50.8491 108.811 47.5008C108.811 34.136 95.9954 22.3656 80.1969 22.3656C64.3985 22.3656 51.597 34.136 51.597 47.5008C51.597 50.8527 52.4067 54.0557 53.8626 56.9292C58.2126 52.8794 68.3721 50.0307 80.1969 50.0307Z" fill="#17B2E8"/>
<path d="M80.193 50.0623C92.0144 50.0623 102.138 52.8827 106.474 56.8935C107.934 54.0448 108.733 50.8737 108.733 47.5573C108.733 34.3236 95.9525 22.6205 80.193 22.6205C64.4336 22.6205 51.6713 34.3271 51.6713 47.5573C51.6713 50.8772 52.4773 54.0519 53.9297 56.8935C58.2691 52.8827 68.3966 50.0623 80.193 50.0623Z" fill="#18B4EA"/>
<path d="M80.1865 50.0946C91.9759 50.0946 102.071 52.8866 106.397 56.8585C107.852 54.0381 108.648 50.8989 108.648 47.6144C108.648 34.5117 95.9033 22.8724 80.1865 22.8724C64.4697 22.8724 51.7429 34.5153 51.7429 47.6108C51.7429 50.8989 52.5489 54.0417 53.9978 56.855C58.3264 52.8831 68.4255 50.0911 80.1865 50.0911V50.0946Z" fill="#19B6EB"/>
<path d="M80.1826 50.1263C91.94 50.1263 102.011 52.8864 106.318 56.8193C107.77 54.0308 108.566 50.9199 108.566 47.6708C108.566 34.6993 95.8568 23.1273 80.1826 23.1273C64.5084 23.1273 51.8171 34.7028 51.8171 47.6673C51.8171 50.9199 52.6196 54.0344 54.0649 56.8193C58.3794 52.8864 68.4536 50.1263 80.1826 50.1263Z" fill="#1AB9EC"/>
<path d="M80.1787 50.1583C91.9042 50.1583 101.946 52.8901 106.243 56.784C107.692 54.0239 108.484 50.9449 108.484 47.7277C108.484 34.8908 95.8103 23.3826 80.1787 23.3826C64.5471 23.3826 51.8913 34.8908 51.8913 47.7241C51.8913 50.9449 52.6903 54.0274 54.1355 56.784C58.4394 52.8901 68.4852 50.1583 80.1823 50.1583H80.1787Z" fill="#1BBBEE"/>
<path d="M80.1755 50.1903C91.869 50.1903 101.883 52.8937 106.169 56.7487C107.618 54.0169 108.406 50.9697 108.406 47.7844C108.406 35.0786 95.7644 23.6378 80.179 23.6378C64.5936 23.6378 51.9662 35.0786 51.9662 47.7774C51.9662 50.9662 52.7652 54.0169 54.2033 56.7451C58.4965 52.8937 68.5139 50.1867 80.179 50.1867L80.1755 50.1903Z" fill="#1CBDEF"/>
<path d="M80.1719 50.2219C91.8334 50.2219 101.819 52.897 106.091 56.7094C107.536 54.006 108.321 50.9907 108.321 47.8373C108.321 35.2626 95.7147 23.8855 80.1683 23.8855C64.622 23.8855 52.0372 35.2662 52.0372 47.8338C52.0372 50.9907 52.8326 54.0131 54.2708 56.7094C58.5497 52.897 68.5423 50.2219 80.1719 50.2219Z" fill="#1DBFF0"/>
<path d="M80.168 50.2538C91.794 50.2538 101.755 52.9006 106.016 56.674C107.458 53.999 108.242 51.0156 108.242 47.8941C108.242 35.454 95.6717 24.1407 80.168 24.1407C64.6642 24.1407 52.1114 35.454 52.1114 47.8905C52.1114 51.0156 52.9068 54.006 54.3379 56.674C58.6062 52.9006 68.5704 50.2538 80.168 50.2538Z" fill="#1EC1F2"/>
<path d="M80.1647 50.2858C91.7588 50.2858 101.695 52.9042 105.942 56.6352C107.38 53.9884 108.161 51.037 108.161 47.9473C108.161 35.6383 95.6258 24.3923 80.1647 24.3923C64.7036 24.3923 52.1862 35.6419 52.1862 47.9438C52.1862 51.037 52.9781 53.9955 54.4056 56.6352C58.6633 52.9007 68.599 50.2858 80.1647 50.2858Z" fill="#1FC3F3"/>
<path d="M80.1647 50.3601C91.7446 50.3601 101.666 52.9608 105.906 56.6705C107.341 54.0415 108.122 51.1077 108.122 48.0393C108.122 35.8083 95.6045 24.6296 80.1647 24.6296C64.7249 24.6296 52.2253 35.8083 52.2253 48.0323C52.2253 51.1042 53.0172 54.045 54.4447 56.667C58.6952 52.9573 68.6168 50.3566 80.1682 50.3566L80.1647 50.3601Z" fill="#26C5F3"/>
<path d="M80.165 50.4311C91.7271 50.4311 101.634 53.0141 105.871 56.699C107.305 54.0841 108.087 51.1716 108.087 48.1245C108.087 35.975 95.5835 24.8565 80.165 24.8565C64.7465 24.8565 52.2611 35.9785 52.2611 48.1209C52.2611 51.1752 53.0494 54.0912 54.4769 56.699C58.7204 53.0141 68.6313 50.4311 80.165 50.4311Z" fill="#2DC7F4"/>
<path d="M80.165 50.5054C91.7129 50.5054 101.606 53.0742 105.835 56.7343C107.266 54.1372 108.048 51.2459 108.048 48.2165C108.048 36.1449 95.5622 25.0938 80.165 25.0938C64.7678 25.0938 52.3002 36.145 52.3002 48.2094C52.3002 51.2424 53.0885 54.1407 54.5125 56.7343C58.7488 53.0742 68.6491 50.5054 80.165 50.5054Z" fill="#35C9F4"/>
<path d="M80.1643 50.5764C91.698 50.5764 101.577 53.1275 105.799 56.7628C107.227 54.1834 108.008 51.3099 108.008 48.3017C108.008 36.3116 95.5402 25.3243 80.1643 25.3243C64.7884 25.3243 52.3386 36.3116 52.3386 48.2982C52.3386 51.3134 53.1269 54.1905 54.5473 56.7664C58.7766 53.1311 68.6626 50.58 80.1679 50.58L80.1643 50.5764Z" fill="#3CCBF5"/>
<path d="M80.1647 50.6507C91.6806 50.6507 101.549 53.1841 105.764 56.7946C107.188 54.2328 107.969 51.377 107.969 48.3902C107.969 36.478 95.5157 25.558 80.1647 25.558C64.8136 25.558 52.3744 36.4816 52.3744 48.3866C52.3744 51.3806 53.1592 54.2364 54.5796 56.7981C58.8053 53.1876 68.6771 50.6542 80.1647 50.6507Z" fill="#43CDF5"/>
<path d="M80.1647 50.7218C91.6664 50.7218 101.52 53.241 105.732 56.8267C107.156 54.2791 107.934 51.4481 107.934 48.479C107.934 36.6483 95.4979 25.7921 80.1647 25.7921C64.8314 25.7921 52.4135 36.6483 52.4135 48.4754C52.4135 51.4481 53.1982 54.2862 54.6151 56.8302C58.8337 53.2445 68.6913 50.7253 80.1647 50.7253V50.7218Z" fill="#4ACFF5"/>
<path d="M80.1647 50.796C91.6487 50.796 101.492 53.2975 105.696 56.8584C107.117 54.3286 107.895 51.5153 107.895 48.5674C107.895 36.8147 95.4766 26.0258 80.1647 26.0258C64.8527 26.0258 52.4525 36.8147 52.4525 48.5638C52.4525 51.5188 53.2373 54.3357 54.6506 56.8619C58.8621 53.3011 68.7091 50.7996 80.1647 50.7996V50.796Z" fill="#52D1F6"/>
<path d="M80.1643 50.8671C91.6341 50.8671 101.463 53.3508 105.661 56.8869C107.077 54.3748 107.859 51.5828 107.859 48.6526C107.859 36.9814 95.4585 26.2527 80.1679 26.2527C64.8772 26.2527 52.4877 36.9849 52.4877 48.6526C52.4877 51.5863 53.2689 54.3819 54.6822 56.894C58.8866 53.3544 68.7229 50.8742 80.1643 50.8706V50.8671Z" fill="#59D2F6"/>
<path d="M80.165 50.9411C91.617 50.9411 101.436 53.4071 105.626 56.922C107.043 54.4276 107.82 51.6533 107.82 48.7479C107.82 37.1546 95.4344 26.4932 80.165 26.4932C64.8956 26.4932 52.5274 37.1511 52.5274 48.7372C52.5274 51.6533 53.3086 54.4276 54.7184 56.922C58.9192 53.4071 68.7378 50.9411 80.165 50.9411Z" fill="#60D4F6"/>
<path d="M80.165 51.0157C91.6028 51.0157 101.407 53.4676 105.59 56.9541C107.004 54.4738 107.781 51.7208 107.781 48.8367C107.781 37.3214 95.413 26.7273 80.165 26.7273C64.9169 26.7273 52.5665 37.3178 52.5665 48.826C52.5665 51.7208 53.3477 54.4774 54.7539 56.9541C58.9476 53.464 68.7556 51.0157 80.165 51.0122V51.0157Z" fill="#67D6F7"/>
<path d="M80.1646 51.0864C91.5882 51.0864 101.378 53.5205 105.554 56.9822C106.964 54.5197 107.742 51.7879 107.742 48.9215C107.742 37.4877 95.3914 26.9574 80.1646 26.9574C64.9379 26.9574 52.6016 37.4877 52.6016 48.9144C52.6016 51.7879 53.3828 54.5232 54.7855 56.9857C58.9721 53.5205 68.7694 51.0899 80.1611 51.0864H80.1646Z" fill="#6ED8F7"/>
<path d="M80.1646 51.1611C91.5705 51.1611 101.346 53.5775 105.519 57.0179C106.925 54.5731 107.703 51.8591 107.703 49.0139C107.703 37.658 95.3665 27.1951 80.1611 27.1951C64.9556 27.1951 52.6407 37.6545 52.6407 49.0033C52.6407 51.8591 53.4184 54.5731 54.821 57.0179C59.0006 53.5775 68.7836 51.1611 80.1646 51.1611Z" fill="#76DAF8"/>
<path d="M80.1646 51.2317C91.5563 51.2317 101.318 53.634 105.483 57.0461C106.89 54.619 107.664 51.9226 107.664 49.0987C107.664 37.8244 95.3452 27.4216 80.1611 27.4216C64.9769 27.4216 52.6797 37.8208 52.6797 49.0916C52.6797 51.9262 53.4574 54.6225 54.8565 57.0496C59.0325 53.634 68.8014 51.2353 80.1646 51.2317Z" fill="#7DDCF8"/>
<path d="M80.1646 51.3063C91.5385 51.3063 101.29 53.6908 105.451 57.0781C106.854 54.6688 107.628 51.9937 107.628 49.1875C107.628 37.9911 95.3275 27.6556 80.1646 27.6556C65.0018 27.6556 52.7188 37.9911 52.7188 49.1804C52.7188 51.9972 53.4965 54.6688 54.892 57.0816C59.0609 53.6908 68.8191 51.3098 80.1646 51.3063Z" fill="#84DEF8"/>
<path d="M80.1649 51.3771C91.5246 51.3771 101.261 53.7439 105.416 57.1099C106.815 54.7147 107.593 52.0609 107.593 49.276C107.593 38.161 95.31 27.8894 80.1684 27.8894C65.0269 27.8894 52.7546 38.1575 52.7546 49.2689C52.7546 52.0644 53.5287 54.7183 54.9242 57.1135C59.086 53.7474 68.83 51.3806 80.1613 51.3771H80.1649Z" fill="#8BE0F9"/>
<path d="M80.1649 51.4516C91.5068 51.4516 101.233 53.8043 105.381 57.142C106.78 54.7645 107.554 52.1284 107.554 49.3647C107.554 38.3277 95.2851 28.1234 80.1649 28.1234C65.0447 28.1234 52.7936 38.3242 52.7936 49.3576C52.7936 52.1319 53.5678 54.768 54.9598 57.1455C59.1145 53.8043 68.8478 51.4552 80.1649 51.4516Z" fill="#93E2F9"/>
<path d="M80.1649 51.5224C91.4926 51.5224 101.205 53.8573 105.345 57.1702C106.741 54.8104 107.515 52.1956 107.515 49.4496C107.515 38.4906 95.2638 28.3536 80.1649 28.3536C65.066 28.3536 52.8327 38.4941 52.8327 49.4461C52.8327 52.2026 53.6068 54.814 54.9953 57.1772C59.1464 53.8608 68.862 51.5294 80.1649 51.5259V51.5224Z" fill="#9AE4FA"/>
<path d="M80.1645 51.5967C91.4781 51.5967 101.176 53.9139 105.309 57.2055C106.701 54.8635 107.475 52.2663 107.475 49.5416C107.475 38.6641 95.2422 28.5909 80.1645 28.5909C65.0869 28.5909 52.8679 38.6606 52.8679 49.5345C52.8679 52.2699 53.6384 54.8635 55.0269 57.209C59.1709 53.9139 68.8758 51.6002 80.161 51.5967H80.1645Z" fill="#A1E6FA"/>
<path d="M80.1645 51.6676C91.4603 51.6676 101.147 53.9672 105.274 57.234C106.662 54.9061 107.436 52.3338 107.436 49.6268C107.436 38.8272 95.2173 28.8177 80.161 28.8177C65.1047 28.8177 52.9069 38.8307 52.9069 49.6197C52.9069 52.3338 53.6775 54.9096 55.0659 57.2375C59.2029 53.9672 68.8972 51.6712 80.1645 51.6676Z" fill="#A8E8FA"/>
<path d="M80.1645 51.742C91.4461 51.742 101.119 54.0273 105.238 57.2658C106.627 54.9556 107.397 52.401 107.397 49.7153C107.397 38.9972 95.196 29.0515 80.161 29.0515C65.126 29.0515 52.946 38.9972 52.946 49.7082C52.946 52.4045 53.7166 54.9592 55.1015 57.2693C59.2313 54.0238 68.9114 51.7455 80.1681 51.7384L80.1645 51.742Z" fill="#B0EAFB"/>
<path d="M80.1649 51.813C91.4287 51.813 101.091 54.0806 105.207 57.2978C106.592 55.0054 107.366 52.4685 107.366 49.804C107.366 39.1639 95.1821 29.2855 80.1684 29.2855C65.1547 29.2855 52.9818 39.1639 52.9818 49.7969C52.9818 52.472 53.7524 55.0054 55.1337 57.3013C59.26 54.0806 68.9259 51.8165 80.1649 51.813Z" fill="#B7ECFB"/>
<path d="M80.1649 51.8873C91.4145 51.8873 101.063 54.1372 105.171 57.3296C106.552 55.0549 107.327 52.5392 107.327 49.8925C107.327 39.3339 95.1608 29.5193 80.1684 29.5193C65.176 29.5193 53.0209 39.3339 53.0209 49.8854C53.0209 52.5428 53.7879 55.0549 55.1692 57.3332C59.2884 54.1372 68.9436 51.8908 80.1649 51.8873Z" fill="#BEEEFC"/>
<path d="M80.1649 51.958C91.3967 51.958 101.031 54.1938 105.136 57.3614C106.517 55.1008 107.288 52.6064 107.288 49.9809C107.288 39.5002 95.1359 29.753 80.1649 29.753C65.1938 29.753 53.0599 39.5002 53.0599 49.9738C53.0599 52.61 53.827 55.1044 55.2048 57.3649C59.3168 54.1938 68.9578 51.9616 80.1649 51.958Z" fill="#C5F0FC"/>
<path d="M80.1645 52.0327C91.3822 52.0327 101.002 54.2507 105.1 57.3935C106.478 55.1506 107.248 52.674 107.248 50.0697C107.248 39.6705 95.1143 29.9871 80.1645 29.9871C65.2147 29.9871 53.0951 39.667 53.0951 50.0626C53.0951 52.6775 53.8621 55.1506 55.2364 57.397C59.3413 54.2507 68.9717 52.0362 80.1645 52.0327Z" fill="#CCF1FC"/>
<path d="M80.1645 52.1033C91.3644 52.1033 100.973 54.3036 105.064 57.4216C106.438 55.1965 107.209 52.7411 107.209 50.1546C107.209 39.8333 95.093 30.2136 80.1645 30.2136C65.236 30.2136 53.1342 39.8369 53.1342 50.151C53.1342 52.7482 53.8976 55.2 55.2719 57.4287C59.3733 54.3072 68.9895 52.1104 80.1645 52.1033Z" fill="#D4F3FD"/>
<path d="M80.1652 52.1779C91.3509 52.1779 100.946 54.3641 105.029 57.4573C106.4 55.2499 107.171 52.8122 107.171 50.2469C107.171 40.0036 95.0724 30.4512 80.1616 30.4512C65.2509 30.4512 53.1739 40.0036 53.1739 50.2398C53.1739 52.8157 53.9374 55.2499 55.3081 57.4608C59.4024 54.3641 69.0043 52.1815 80.1652 52.1779Z" fill="#DBF5FD"/>
<path d="M80.1645 52.2487C91.336 52.2487 100.917 54.4171 104.993 57.4855C106.364 55.2922 107.131 52.8758 107.131 50.3318C107.131 40.17 95.0468 30.6814 80.161 30.6814C65.2751 30.6814 53.2123 40.17 53.2123 50.3283C53.2123 52.8864 53.9757 55.2958 55.3429 57.4925C59.4301 54.4171 69.0214 52.2557 80.1645 52.2522V52.2487Z" fill="#E2F7FD"/>
<path d="M80.1648 52.3232C91.3186 52.3232 100.889 54.4739 104.962 57.5175C106.329 55.342 107.099 52.9468 107.099 50.4205C107.099 40.3367 95.0329 30.9154 80.1684 30.9154C65.3038 30.9154 53.2481 40.3402 53.2481 50.417C53.2481 52.9539 54.008 55.3455 55.3752 57.5246C59.4553 54.4739 69.0324 52.3303 80.1648 52.3232Z" fill="#E9F9FE"/>
<path d="M80.1648 52.394C91.3044 52.394 100.86 54.527 104.926 57.5493C106.29 55.3915 107.06 53.0141 107.06 50.509C107.06 40.5067 95.0116 31.1492 80.1684 31.1492C65.3251 31.1492 53.2872 40.5067 53.2872 50.502C53.2872 53.0176 54.0471 55.3915 55.4107 57.5529C59.4837 54.527 69.0501 52.3975 80.1648 52.394Z" fill="#F1FBFE"/>
<path d="M80.1648 52.4683C91.2866 52.4683 100.832 54.5871 104.891 57.5811C106.254 55.441 107.021 53.0848 107.021 50.5975C107.021 40.6731 94.9868 31.3829 80.1648 31.3829C65.3429 31.3829 53.3262 40.6731 53.3262 50.5904C53.3262 53.0883 54.0862 55.4374 55.4462 57.5846C59.5157 54.5835 69.0679 52.4718 80.1648 52.4647V52.4683Z" fill="#F8FDFF"/>
<path d="M80.1645 52.5428C91.2721 52.5428 100.803 54.6439 104.855 57.6131C106.215 55.4872 106.982 53.1523 106.982 50.6862C106.982 40.8433 94.9651 31.6133 80.1645 31.6133C65.3638 31.6133 53.3614 40.8433 53.3614 50.6791C53.3614 53.1558 54.1213 55.4872 55.4778 57.6166C59.5402 54.6404 69.0782 52.5464 80.1609 52.5393L80.1645 52.5428Z" fill="white"/>
</g>
<path d="M80.0301 42.721C70.311 42.721 61.295 44.3721 53.8591 47.1571C58.3299 57.1346 68.3544 64.0863 80.0372 64.0863C91.7201 64.0863 101.709 57.1311 106.194 47.1571C98.7582 44.3686 89.728 42.721 80.0337 42.721H80.0301Z" fill="#0082C9"/>
</svg>
