<svg width="160" height="71" viewBox="0 0 160 71" fill="none" xmlns="http://www.w3.org/2000/svg">
<path d="M120.746 36.2579L120.013 35.7925C117.527 33.3167 114.071 32.2373 109.447 32.5146C105.594 32.7522 102.544 34.2773 100.207 35.6934C100.207 35.6538 100.207 35.6241 100.207 35.5845C100.207 34.3763 100.346 33.0691 100.474 31.8016C100.603 30.5142 100.752 29.1971 100.752 27.9592C100.752 26.7213 100.613 25.4834 100.167 24.4535C100.059 24.1861 99.811 24.0376 99.504 24.0376C98.2562 24.0673 95.83 24.919 95.2358 25.4339L94.9189 26.137C94.8991 27.5136 94.5921 31.3658 94.2851 31.8313C94.295 31.8115 94.1266 32.2967 94.1266 32.2967C93.6018 37.7929 93.5919 42.6157 94.0771 46.765C94.1365 47.181 94.9288 47.8048 95.5527 48.0326C96.2261 48.2802 98.3453 47.7157 99.5634 47.2602C99.5436 47.2602 100.019 47.1909 100.019 47.1909C100.405 47.1512 100.633 46.8244 100.613 46.3887L100.643 45.2003C101.524 41.6254 105.089 37.3473 109.298 36.7036C111.685 36.3272 113.566 36.9412 115.052 38.5554C115.25 38.8426 115.686 41.4273 114.121 44.3784C112.952 46.567 110.615 48.4188 107.535 49.5676C104.624 50.6767 101.415 51.1224 97.464 50.9837C97.2956 50.8748 93.7602 48.4782 93.7602 48.4782C90.621 46.2699 86.7192 43.5267 83.1838 42.1898C82.5599 41.9522 81.4508 41.0213 80.7774 40.4766L80.411 40.1795C78.3709 38.5455 74.489 35.9608 71.3794 33.8812C71.3794 33.8812 69.9732 32.9404 69.7058 32.7522C69.7058 32.6334 69.7058 32.3957 69.7058 32.3957C69.7949 32.2967 71.7557 31.1282 71.7557 31.1282C74.4989 29.5239 75.7664 28.7415 76.0338 28.3355C75.9744 28.4048 76.4002 28.1176 76.4002 28.1176C76.4299 28.1077 83.1937 24.2753 83.1937 24.2753C89.7198 20.6904 97.1075 16.6202 100.989 12.6095L101.178 11.9955L101.267 11.4509C101.524 10.5893 101.534 9.93569 101.326 9.17316C101.267 8.95529 101.069 8.69781 100.801 8.6582C97.771 8.35121 93.8593 10.1734 90.3041 13.5107C89.5019 14.2633 88.8285 14.6297 88.1155 15.0159L87.5708 15.3229C83.6492 17.5511 74.8158 23.0374 70.1811 25.9984C70.4881 21.0271 71.4091 13.9464 72.5381 8.05412L72.4093 7.351L71.934 6.45973L71.5775 5.82594L71.4784 5.79623C70.5575 5.33079 69.8048 5.51894 69.2503 5.65759L68.3293 5.99429L67.0914 6.43992C66.8438 6.48944 66.6755 6.63798 66.5863 6.87566C64.378 12.2134 62.536 20.9974 62.1003 28.0186C57.6835 25.2161 53.6035 23.1958 51.6031 22.2154L51.5437 22.1857L51.306 22.1362C50.5831 22.0471 49.7116 21.5123 48.8698 20.9974C48.7807 20.9478 47.1863 19.908 47.1863 19.908L44.6214 18.2641L43.948 18.1057C42.8488 18.2938 40.7296 19.7199 40.1057 20.6904C40.0264 20.8191 39.9868 20.9578 39.9868 21.0964C39.9868 21.3044 40.0462 21.5024 40.1057 21.7104L40.2146 22.2352L40.3334 22.5521C41.5614 23.8098 44.671 25.9093 47.7112 27.5433L51.2367 29.4149L56.6338 32.366L57.5548 33.0989L58.1886 33.4653C58.1886 33.4653 58.2579 33.5049 58.3074 33.5346C56.8715 34.4952 48.4836 40.0904 48.4836 40.0904L43.3241 43.5168C42.8389 43.8535 40.7989 44.7646 40.3433 44.9429C39.2243 45.3984 38.3726 46.1015 38.026 46.8542L37.8874 47.1512L38.026 47.3493L38.4222 47.6464L38.947 47.993L39.5214 48.3792L40.0562 48.4683C40.9672 48.4981 42.3041 47.9831 44.8195 46.8839C47.1269 45.8638 53.3955 42.0809 56.0792 40.4667L57.2181 39.7834C57.6934 39.823 58.2084 39.4269 58.6738 39.0704C59.2086 38.6445 60.3772 37.9216 61.0902 37.6047C61.11 37.6047 61.516 37.3671 61.9022 37.1591C61.9022 37.2779 61.9022 37.4661 61.9022 37.4661C62.0211 45.6658 62.4865 51.6274 63.3877 56.2224V56.3016L63.4867 56.4898C63.9224 57.1335 64.4275 59.0844 64.8731 60.7976L65.8931 64.2241L66.1803 64.5409C66.7646 64.9371 68.5372 65.6204 69.7256 65.4817L70.0227 65.4421L70.2108 65.0262C70.3099 64.5112 70.3495 64.0062 70.3495 63.4516C70.3495 62.8277 70.3 62.1345 70.2505 61.2928L70.1712 60.0549C69.7949 54.3309 69.4186 46.0619 69.4186 40.5657V40.13C70.399 40.7341 74.6474 43.4178 74.6474 43.4178C81.8865 48.1118 92.8293 55.2123 99.4347 57.084C99.7813 57.183 100.138 57.1038 100.395 56.8661C100.395 56.8562 101.415 56.2125 101.415 56.2125L101.603 56.1333C101.98 55.955 102.237 55.3113 102.277 54.6181C107.852 54.3408 115.616 52.1919 119.775 46.9631C121.38 44.933 122.113 42.4572 122.113 40.338C122.113 38.595 121.627 37.0898 120.756 36.2678" fill="#F8B500"/>
</svg>
