<svg width="70" height="70" viewBox="0 0 70 70" fill="none" xmlns="http://www.w3.org/2000/svg">
<path d="M15 55H55V35H15V55Z" fill="#04B2D9"/>
<path fill-rule="evenodd" clip-rule="evenodd" d="M13.125 35C13.125 33.9645 13.9645 33.125 15 33.125H55C56.0355 33.125 56.875 33.9645 56.875 35V53.125H60C61.0355 53.125 61.875 53.9645 61.875 55C61.875 56.0355 61.0355 56.875 60 56.875H10C8.96447 56.875 8.125 56.0355 8.125 55C8.125 53.9645 8.96447 53.125 10 53.125H13.125V35ZM16.875 53.125H53.125V36.875H16.875V53.125Z" fill="#04B2D9"/>
<path fill-rule="evenodd" clip-rule="evenodd" d="M19.1615 43.3229C19.6894 43.059 20.3107 43.059 20.8385 43.3229L25 45.4037L29.1615 43.3229C29.6894 43.059 30.3107 43.059 30.8385 43.3229L35 45.4037L39.1615 43.3229C39.6894 43.059 40.3107 43.059 40.8385 43.3229L45 45.4037L49.1615 43.3229C49.6894 43.059 50.3107 43.059 50.8385 43.3229L55.8385 45.8229C56.7647 46.2861 57.1402 47.4123 56.6771 48.3385C56.214 49.2647 55.0877 49.6402 54.1615 49.1771L50 47.0963L45.8385 49.1771C45.3107 49.441 44.6894 49.441 44.1615 49.1771L40 47.0963L35.8385 49.1771C35.3107 49.441 34.6894 49.441 34.1615 49.1771L30 47.0963L25.8385 49.1771C25.3107 49.441 24.6894 49.441 24.1615 49.1771L20 47.0963L15.8385 49.1771C14.9123 49.6402 13.7861 49.2647 13.323 48.3385C12.8599 47.4123 13.2353 46.2861 14.1615 45.8229L19.1615 43.3229Z" fill="#FFFBFF"/>
<path fill-rule="evenodd" clip-rule="evenodd" d="M45 21.875C46.0355 21.875 46.875 22.7145 46.875 23.75V35C46.875 36.0355 46.0355 36.875 45 36.875C43.9645 36.875 43.125 36.0355 43.125 35V23.75C43.125 22.7145 43.9645 21.875 45 21.875Z" fill="#04B2D9"/>
<path fill-rule="evenodd" clip-rule="evenodd" d="M35 21.875C36.0355 21.875 36.875 22.7145 36.875 23.75V35C36.875 36.0355 36.0355 36.875 35 36.875C33.9645 36.875 33.125 36.0355 33.125 35V23.75C33.125 22.7145 33.9645 21.875 35 21.875Z" fill="#04B2D9"/>
<path fill-rule="evenodd" clip-rule="evenodd" d="M25 21.875C26.0355 21.875 26.875 22.7145 26.875 23.75V35C26.875 36.0355 26.0355 36.875 25 36.875C23.9645 36.875 23.125 36.0355 23.125 35V23.75C23.125 22.7145 23.9645 21.875 25 21.875Z" fill="#04B2D9"/>
<path fill-rule="evenodd" clip-rule="evenodd" d="M45 13.125C46.0355 13.125 46.875 13.9645 46.875 15V17.5C46.875 18.5355 46.0355 19.375 45 19.375C43.9645 19.375 43.125 18.5355 43.125 17.5V15C43.125 13.9645 43.9645 13.125 45 13.125Z" fill="#04B2D9"/>
<path fill-rule="evenodd" clip-rule="evenodd" d="M35 13.125C36.0355 13.125 36.875 13.9645 36.875 15V17.5C36.875 18.5355 36.0355 19.375 35 19.375C33.9645 19.375 33.125 18.5355 33.125 17.5V15C33.125 13.9645 33.9645 13.125 35 13.125Z" fill="#04B2D9"/>
<path fill-rule="evenodd" clip-rule="evenodd" d="M25 13.125C26.0355 13.125 26.875 13.9645 26.875 15V17.5C26.875 18.5355 26.0355 19.375 25 19.375C23.9645 19.375 23.125 18.5355 23.125 17.5V15C23.125 13.9645 23.9645 13.125 25 13.125Z" fill="#04B2D9"/>
<path fill-rule="evenodd" clip-rule="evenodd" d="M15 33.125C16.0355 33.125 16.875 33.9645 16.875 35V55C16.875 56.0355 16.0355 56.875 15 56.875C13.9645 56.875 13.125 56.0355 13.125 55V35C13.125 33.9645 13.9645 33.125 15 33.125Z" fill="#04B2D9"/>
<path fill-rule="evenodd" clip-rule="evenodd" d="M55 33.125C56.0355 33.125 56.875 33.9645 56.875 35V55C56.875 56.0355 56.0355 56.875 55 56.875C53.9645 56.875 53.125 56.0355 53.125 55V35C53.125 33.9645 53.9645 33.125 55 33.125Z" fill="#04B2D9"/>
</svg>
