<svg width="70" height="70" viewBox="0 0 70 70" fill="none" xmlns="http://www.w3.org/2000/svg">
<path d="M64.0455 35.5593L63.5586 35.2277C61.7878 33.4639 59.3255 32.7019 56.0307 32.8924C53.6828 33.0907 51.421 33.8689 49.4481 35.1572V35.0796C49.4644 34.1785 49.528 33.2789 49.6386 32.3844C49.7523 31.476 49.8182 30.5623 49.8362 29.647C49.8636 28.7952 49.7222 27.9463 49.4199 27.1494C49.3802 27.0582 49.3138 26.981 49.2294 26.9281C49.145 26.8753 49.0467 26.8491 48.9472 26.8531C47.8746 26.9553 46.8382 27.2951 45.9134 27.8479L45.6877 28.3488C45.6877 29.3295 45.4548 32.067 45.2361 32.4056L45.1162 32.7302C44.7481 36.158 44.7362 39.6147 45.0809 43.0449C45.1232 43.3413 45.6877 43.7505 46.1322 43.941C46.5766 44.1314 48.1217 43.7152 48.9543 43.3906L49.2788 43.3413C49.3449 43.3318 49.4085 43.3093 49.4658 43.2749C49.523 43.2405 49.5729 43.1951 49.6123 43.1412C49.6518 43.0873 49.68 43.026 49.6954 42.961C49.7109 42.896 49.7131 42.8286 49.7021 42.7627V41.9161C50.33 39.3621 52.8699 36.3213 55.8755 35.8627C56.6228 35.6919 57.4023 35.7241 58.133 35.9561C58.8637 36.1881 59.519 36.6114 60.031 37.182C60.1721 37.3937 60.4825 39.228 59.3255 41.3376C58.2554 43.0925 56.5903 44.4046 54.6337 45.0345C52.3383 45.8686 49.8965 46.224 47.4585 46.0787C47.3386 46.0081 44.8199 44.2937 44.8199 44.2937C42.5834 42.7275 39.8036 40.7661 37.2849 39.8207C36.6705 39.4783 36.0977 39.0664 35.5775 38.5931L35.3376 38.3179C33.8842 37.1538 31.1045 35.3124 28.8962 33.8308L27.7038 33.0335V32.7795C27.7744 32.709 29.1643 31.8765 29.1643 31.8765C31.1186 30.7335 32.0216 30.1691 32.2121 29.8798C32.2121 29.9292 32.4732 29.7246 32.4732 29.7246L37.2919 27.0295C41.9413 24.4826 47.1693 21.5828 49.9914 18.7184L50.1254 18.281L50.1536 17.8577C50.3361 17.3319 50.3509 16.7624 50.196 16.2279C50.1722 16.1389 50.1249 16.0579 50.0591 15.9934C49.9934 15.9288 49.9115 15.8831 49.8221 15.861C47.6631 15.6494 44.8834 16.9405 42.3435 19.3181C41.8774 19.748 41.3524 20.1091 40.7843 20.3905L40.3962 20.6092C37.5741 22.1967 31.3091 26.1053 28.0072 28.2148C28.3237 23.9293 28.8867 19.6655 29.6934 15.4448L29.6017 14.9438L29.263 14.33L28.9879 13.8573H28.9103C28.4229 13.6179 27.8621 13.575 27.344 13.7374L26.6879 13.9773L25.806 14.33C25.725 14.3454 25.6493 14.3814 25.5863 14.4346C25.5233 14.4877 25.475 14.5562 25.4461 14.6334C23.8728 18.4433 22.5605 24.6942 22.2501 29.7034C19.8368 28.1861 17.34 26.8058 14.7715 25.5691H14.7292L14.5599 25.5338C13.9366 25.3716 13.3484 25.0967 12.8243 24.7224C12.7537 24.6872 11.6249 23.9464 11.6249 23.9464L9.79758 22.7258L9.31076 22.62C8.23525 22.9474 7.28204 23.5886 6.57332 24.4614C6.51689 24.5472 6.4874 24.6479 6.48866 24.7507C6.4998 24.8993 6.52821 25.0461 6.57332 25.1881L6.65093 25.555L6.74265 25.7807C8.34364 27.164 10.1062 28.3485 11.9918 29.3084L14.5105 30.6418L18.3556 32.7584L19.0117 33.2805L19.4633 33.5345L19.5409 33.5909L12.5491 38.2756L8.87334 40.7167C8.1855 41.0889 7.47905 41.4257 6.75676 41.7256C6.05619 41.9653 5.46683 42.4518 5.09877 43.0943L5 43.306L5.09877 43.4471L5.38098 43.6587L5.75491 43.9057L6.16412 44.1808L6.5451 44.2443C7.19419 44.2443 8.1537 43.8986 9.93868 43.1155C11.5826 42.41 16.0556 39.6937 17.9605 38.5437L18.7789 38.0569C19.1708 38.0051 19.5349 37.8267 19.816 37.5489C20.3542 37.1451 20.9308 36.7954 21.5375 36.5047C21.5375 36.5047 21.848 36.3424 22.1231 36.1872C22.1231 36.2719 22.1231 36.4059 22.1231 36.4059C22.0896 40.8824 22.4437 45.3533 23.1814 49.7686V49.825L23.2449 49.9591C23.6875 50.9421 24.0188 51.9715 24.2326 53.0281L24.9382 55.4622L25.1428 55.695C25.9057 56.1489 26.781 56.3787 27.6685 56.3582H27.8802L28.0072 56.0619C28.0798 55.6925 28.1129 55.3165 28.106 54.9401C28.106 54.4956 28.106 54.0088 28.0354 53.4021L27.979 52.5272C27.7109 48.4493 27.4428 42.5581 27.4428 38.6425V38.3179C28.1483 38.7483 31.1679 40.6603 31.1679 40.6603C36.3253 44.0045 44.1214 49.0631 48.8061 50.4036C48.9274 50.4428 49.057 50.4484 49.1813 50.4198C49.3055 50.3913 49.4196 50.3296 49.5116 50.2413L50.2171 49.7757L50.3512 49.7263C50.5157 49.5982 50.6475 49.4329 50.7358 49.2441C50.8241 49.0552 50.8664 48.8481 50.8592 48.6398C54.8313 48.4422 60.3626 46.9112 63.3329 43.186C64.3928 41.837 64.9759 40.1746 64.9909 38.459C65.0621 37.403 64.7149 36.3614 64.0243 35.5593" fill="#F8B500"/>
</svg>
