<svg width="70" height="70" viewBox="0 0 70 70" fill="none" xmlns="http://www.w3.org/2000/svg">
<path d="M64.0933 19.5745C60.921 22.4665 57.1781 23.7107 52.982 24.3328C50.0459 24.7848 47.0626 24.8413 44.1115 24.501C41.4932 24.1622 38.9 23.6511 36.3487 22.9709C32.6645 22.0377 29.207 20.4488 25.5647 19.3139C24.0428 18.7737 22.4715 18.3851 20.8735 18.1537C16.8117 17.767 13.8492 19.4652 12.7499 21.6762C12.0883 22.9916 11.8586 24.4829 12.0937 25.9369C12.3289 27.3909 13.0167 28.7333 14.0591 29.7722C11.9411 30.3183 9.999 31.4011 8.4195 32.9164C7.00425 34.2552 5.97232 35.9489 5.43076 37.8218C4.88919 39.6948 4.85771 41.6788 5.33957 43.568C6.50608 47.9565 10.5679 51.0419 14.9486 51.6724C18.2343 52.2645 21.6232 51.7001 24.5409 50.075C26.7856 48.6203 28.625 46.6186 29.8867 44.2574C30.1888 43.7194 32.119 39.8185 31.2295 39.5579C30.8434 39.4486 30.6168 39.7513 30.0881 40.7601C28.5691 43.795 26.1186 46.914 22.7618 47.9817C20.3292 48.7206 17.7178 48.6049 15.3598 47.6538C13.0677 46.7643 11.1766 45.0701 10.0392 42.8871C9.56409 41.9301 9.29676 40.8832 9.25482 39.8152C9.21287 38.7473 9.39725 37.6825 9.79582 36.6911C11.0463 33.8832 12.9597 32.4288 15.8969 31.3947C16.5699 31.8077 17.271 32.1729 17.995 32.4876C20.563 33.6142 24.8011 34.7491 28.8545 33.3872C31.8505 32.3868 31.2463 28.9063 24.8766 28.4439C22.2414 28.2397 19.5906 28.4525 17.0215 29.0744C16.3896 28.0772 16.1121 26.8956 16.234 25.7208C16.3558 24.546 16.8698 23.4468 17.6929 22.601C18.3466 21.9588 19.1315 21.4662 19.9935 21.1571C20.8555 20.848 21.7742 20.7296 22.6862 20.8103C30.6756 21.0037 40.2595 27.8722 52.9401 27.9479C57.7488 27.9479 61.1308 26.9811 63.145 24.5094C64.1297 23.2574 64.7563 21.7609 64.9577 20.1798C65.1171 19.0028 64.8234 18.9019 64.1185 19.5745M22.9128 30.0664C25.934 30.0244 27.8306 30.8483 27.5873 31.916C27.3775 32.8239 24.7339 33.0089 23.3912 32.8239C21.9058 32.6053 19.43 31.7646 18.4817 30.6885C19.9056 30.2371 21.3947 30.0269 22.8876 30.0664H22.9128Z" fill="#004EA2"/>
</svg>
