<svg width="70" height="70" viewBox="0 0 70 70" fill="none" xmlns="http://www.w3.org/2000/svg">
<path d="M24.145 39.711L37.9124 22.7169H30.4177C28.9463 22.6342 27.4763 22.9032 26.1296 23.5017C24.7829 24.1003 23.5982 25.0111 22.6736 26.1588L15.4027 35.1076V10.5242H8.10596C7.28134 10.5264 6.49127 10.8556 5.90898 11.4395C5.32668 12.0234 4.99969 12.8144 4.99969 13.639L4.99969 59.4758H12.2964C13.1202 59.4758 13.9103 59.1486 14.4929 58.566C15.0754 57.9835 15.4027 57.1934 15.4027 56.3696V44.1682L21.3485 51.4305L26.3822 57.6172C26.8159 58.1933 27.3773 58.661 28.0223 58.9835C28.6673 59.306 29.3783 59.4745 30.0994 59.4758H40.2786L33.6531 51.3961L24.145 39.711ZM56.0595 50.8282C55.3193 50.8259 54.6102 50.5303 54.0876 50.0061C53.565 49.4819 53.2716 48.7719 53.2716 48.0317V10.5242H45.9749C45.1503 10.5242 44.3593 10.8512 43.7754 11.4335C43.1915 12.0157 42.8623 12.8058 42.86 13.6304V49.9849C42.86 55.6038 46.7407 59.45 52.3251 59.45H60.3446C60.7554 59.458 61.1637 59.3844 61.5458 59.2335C61.928 59.0826 62.2764 58.8574 62.5709 58.5709C62.8654 58.2843 63.1002 57.9423 63.2616 57.5644C63.4229 57.1866 63.5078 56.7804 63.5111 56.3696V50.8282H56.0595Z" fill="#231F20"/>
<path d="M64.9997 26.873V19.9893L64.3629 20.669C64.3629 20.669 62.3839 22.6825 56.7737 22.6825H30.237C26.0466 22.6825 24.0675 24.4034 22.5703 26.2362L21.7099 27.2343L21.6324 27.3204L16.3664 33.8083C18.4657 32.2892 20.9944 31.4784 23.5857 31.4936H56.7651C60.7834 31.4936 64.6469 30.3148 64.9653 27.3032C64.9918 27.1614 65.0033 27.0172 64.9997 26.873Z" fill="#EC1C24"/>
</svg>
