<svg width="70" height="70" viewBox="0 0 70 70" fill="none" xmlns="http://www.w3.org/2000/svg">
<path d="M48.8321 18.9717C48.954 18.9717 49.0455 19.1275 49.0522 19.2528C49.4755 27.2615 44.7007 34.0506 38.3037 35.1212C38.3037 35.1212 38.1919 35.1212 38.1987 35.2194C38.2055 35.3176 38.3409 35.3346 38.3409 35.3346C43.3732 35.7276 48.463 33.2443 51.0333 28.9385C54.3757 23.3419 52.9771 16.4037 52.4827 13.9103C51.7072 10.0212 49.6212 4.94289 49.1369 5.00049C48.822 5.03775 48.8761 5.45445 48.6696 6.32172C47.1592 12.5823 42.0288 15.0689 40.2035 19.5984C36.8983 13.7646 28.2967 9.2894 17.3247 8.5712C17.2827 8.57163 17.2417 8.5835 17.2061 8.60554C17.1704 8.62757 17.1414 8.65893 17.1222 8.69624C17.1031 8.73354 17.0944 8.77537 17.0973 8.81721C17.1001 8.85906 17.1144 8.89933 17.1384 8.93369C17.1652 8.97879 17.1995 9.0189 17.24 9.05226C22.6583 12.5688 23.0308 16.1395 24.1788 21.0416C25.2185 25.4965 28.3035 25.6659 28.3035 25.6659C27.2876 24.6767 26.9117 23.2504 26.231 20.2726C25.3979 16.6476 23.83 12.7924 19.3023 9.69932C19.0382 9.51977 18.94 9.32328 19.431 9.36055C25.4318 9.95679 36.58 13.934 39.7497 22.5051C41.1246 26.2316 40.427 31.1439 37.6264 33.7661C37.6142 33.7802 37.6075 33.7982 37.6075 33.8169C37.6075 33.8355 37.6142 33.8535 37.6264 33.8677C37.6738 33.9287 37.7991 33.8982 37.7991 33.8982C44.3756 32.8818 48.6086 26.2316 48.6086 19.2461C48.6086 19.1207 48.7068 18.9649 48.8321 18.9649V18.9717ZM36.1499 32.9157C36.13 32.9182 36.1098 32.9163 36.0907 32.9102C36.0716 32.9041 36.0541 32.894 36.0393 32.8804C36.0245 32.8669 36.0128 32.8504 36.005 32.8319C35.9972 32.8134 35.9935 32.7935 35.9941 32.7734C38.2055 27.2785 35.2931 20.0795 30.0983 16.5189C29.8816 16.3698 30.1153 16.092 30.3252 16.2343C36.4208 20.259 39.3704 27.0244 36.3158 32.7463C36.3158 32.7463 36.2413 32.8954 36.1499 32.9056V32.9157Z" fill="#E56606"/>
<path d="M14.2938 32.3804C14.2329 32.272 14.3243 32.1128 14.4259 32.0416C21.1514 27.6714 29.4075 28.3998 33.5423 33.4204C33.5423 33.4204 33.5999 33.5119 33.6778 33.4577C33.7557 33.4035 33.7049 33.2782 33.7049 33.2782C31.5308 28.7216 26.8338 25.554 21.8219 25.4863C15.3064 25.3914 9.98625 30.0699 8.08984 31.7638C5.11316 34.3622 1.7572 38.7088 2.04843 39.1017C2.23807 39.3558 2.56994 39.1017 3.42671 38.8443C9.6002 37.0216 14.3175 40.2332 19.1567 39.5557C15.7703 45.3149 16.1868 55.0243 21.0498 64.8861C21.0709 64.9221 21.1014 64.9518 21.1381 64.9718C21.1748 64.9919 21.2163 65.0015 21.258 64.9998C21.2998 64.998 21.3403 64.985 21.3752 64.9619C21.4101 64.9389 21.4381 64.9068 21.4561 64.8691C21.4816 64.824 21.4988 64.7746 21.5069 64.7234C21.8456 58.2867 24.7478 56.1625 28.4153 52.7138C31.7509 49.5835 30.3659 46.8157 30.3659 46.8157C30.0272 48.1708 28.9706 49.2312 26.7356 51.3079C23.9994 53.8419 21.4358 57.1382 21.0328 62.5925C21.0091 62.9076 20.8872 63.0939 20.6942 62.6467C18.2085 57.1518 16.0819 45.5046 21.9099 38.4648C24.4362 35.4158 29.0553 33.5729 32.7194 34.6739C32.7374 34.6795 32.7569 34.6781 32.7738 34.6699C32.7908 34.6617 32.804 34.6474 32.8109 34.6299C32.8414 34.5621 32.7499 34.4673 32.7499 34.4673C28.5812 29.2772 20.6976 28.9384 14.6494 32.4414C14.5947 32.4704 14.5321 32.4809 14.471 32.4711C14.4099 32.4613 14.3536 32.4318 14.3107 32.3872L14.2938 32.3804ZM32.7093 36.3949C32.7213 36.4108 32.7297 36.4291 32.7339 36.4486C32.7381 36.4681 32.7379 36.4883 32.7333 36.5077C32.7288 36.5271 32.7201 36.5453 32.7077 36.5609C32.6954 36.5766 32.6797 36.5893 32.6619 36.5982C26.7999 37.4316 22.0115 43.5533 21.5476 49.8308C21.5273 50.0917 21.1717 50.0273 21.1886 49.7732C21.6322 42.4997 26.0041 36.5609 32.4892 36.3272C32.4892 36.3272 32.6551 36.3272 32.7093 36.3949Z" fill="#7A207F"/>
<path d="M43.17 55.5968C43.1091 55.7018 42.9262 55.7052 42.8314 55.6476C35.6724 52.0092 32.1708 44.4883 34.4567 38.4005C34.4567 38.4005 34.5041 38.2988 34.4194 38.2582C34.3348 38.2175 34.2535 38.3259 34.2535 38.3259C31.392 42.4895 30.9991 48.1505 33.4408 52.5207C36.6172 58.2156 43.3326 60.4786 45.7268 61.2883C49.4823 62.5621 54.9176 63.2938 55.114 62.8432C55.2393 62.5553 54.8498 62.3961 54.1997 61.7795C49.5365 57.3415 49.9497 51.6534 46.9459 47.8015C53.6477 47.8557 61.8225 42.6386 67.9418 33.495C67.9614 33.4586 67.9708 33.4176 67.9691 33.3763C67.9674 33.3351 67.9546 33.295 67.9321 33.2604C67.9096 33.2257 67.8782 33.1978 67.8412 33.1795C67.8041 33.1611 67.7629 33.1531 67.7217 33.1562C67.6706 33.1571 67.6201 33.1675 67.5727 33.1867C61.8158 36.107 58.5377 34.6604 53.7222 33.1867C49.3435 31.8655 47.6266 34.447 47.6266 34.447C48.9811 34.0743 50.4136 34.447 53.3293 35.3481C56.8986 36.4457 61.0335 37.0217 65.9608 34.6434C66.2452 34.5012 66.4687 34.5147 66.1809 34.9179C62.6658 39.82 53.651 47.4865 44.6397 45.9552C40.7385 45.2777 36.8509 42.2287 35.9535 38.5021C35.9494 38.4835 35.9384 38.4672 35.9226 38.4565C35.9069 38.4458 35.8876 38.4415 35.8688 38.4445C35.7977 38.4445 35.7605 38.58 35.7605 38.58C33.3426 44.7763 36.9931 51.7923 43.0379 55.2682C43.0965 55.2999 43.1419 55.3513 43.1661 55.4133C43.1903 55.4754 43.1917 55.544 43.17 55.607V55.5968ZM37.4401 37.6416C37.4483 37.6236 37.4602 37.6075 37.475 37.5944C37.4898 37.5813 37.5073 37.5716 37.5262 37.5658C37.5451 37.56 37.5651 37.5584 37.5847 37.5609C37.6043 37.5635 37.6231 37.5702 37.6399 37.5806C41.2939 42.2422 48.9811 43.3195 54.65 40.5958C54.8871 40.4806 55.0124 40.8193 54.7855 40.9345C48.2598 44.1868 40.9214 43.3771 37.4943 37.8652C37.4943 37.8652 37.4029 37.7297 37.4401 37.6416Z" fill="#4CA32F"/>
</svg>
