<svg width="70" height="70" viewBox="0 0 70 70" fill="none" xmlns="http://www.w3.org/2000/svg">
<path d="M12.6652 30.2797C12.6527 30.9325 12.7682 31.5814 13.0052 32.1897C13.2509 32.9044 13.647 33.5581 14.1667 34.1068C14.6863 34.6555 15.3175 35.0865 16.0178 35.3707C16.718 35.655 17.471 35.7859 18.2261 35.7547C18.9812 35.7235 19.7208 35.5308 20.3952 35.1897L44.5452 25.1897C44.5452 25.1897 35.3652 49.1397 34.9752 50.0497C33.6452 53.4797 35.2452 56.5797 37.9752 57.6197C38.5686 57.8469 39.1998 57.9589 39.8351 57.9497C42.0651 57.9497 44.0352 56.5897 45.0051 53.8897C45.1852 53.4597 56.6651 21.0497 56.9752 20.2997C57.19 19.568 57.3109 18.812 57.3351 18.0497C57.3577 16.4669 56.7539 14.9393 55.6551 13.7997C55.1254 13.2435 54.4875 12.8014 53.7808 12.5005C53.074 12.1996 52.3133 12.0462 51.5452 12.0497C50.7654 12.0628 49.9938 12.2117 49.2652 12.4897C48.7252 12.6697 19.1251 23.9897 16.5951 24.9497C15.465 25.3156 14.478 26.0267 13.773 26.9828C13.0681 27.9389 12.6806 29.0919 12.6652 30.2797Z" fill="#E60013"/>
</svg>
