<svg width="68" height="68" viewBox="0 0 68 68" fill="none" xmlns="http://www.w3.org/2000/svg">
<path d="M56.6345 22.5206C56.095 20.4975 54.5103 18.9128 52.521 18.3733C48.8795 17.3955 34.3473 17.3955 34.3473 17.3955C34.3473 17.3955 19.7813 17.3955 16.1736 18.3733C14.1842 18.9128 12.5995 20.4975 12.0601 22.5206C11.0822 26.162 11.0822 33.7822 11.0822 33.7822C11.0822 33.7822 11.0822 41.4023 12.0601 45.0438C12.5995 47.0669 14.1842 48.6516 16.1736 49.1911C19.8151 50.1689 34.3473 50.1689 34.3473 50.1689C34.3473 50.1689 48.9132 50.1689 52.521 49.1911C54.5103 48.6516 56.095 47.0669 56.6345 45.0438C57.6123 41.4023 57.6123 33.7822 57.6123 33.7822C57.6123 33.7822 57.6123 26.162 56.6345 22.5206ZM29.5931 40.6943V26.8701L41.7651 33.7822L29.5931 40.6943Z" fill="white"/>
</svg>
