<svg width="30" height="31" viewBox="0 0 30 31" fill="none" xmlns="http://www.w3.org/2000/svg">
<rect y="0.5" width="30" height="30" rx="5" fill="#FF4C2B"/>
<path d="M23.9336 11.5177C23.7212 10.7212 23.0973 10.0973 22.3142 9.88496C20.8805 9.5 15.1593 9.5 15.1593 9.5C15.1593 9.5 9.42478 9.5 8.00442 9.88496C7.22124 10.0973 6.59735 10.7212 6.38496 11.5177C6 12.9513 6 15.9513 6 15.9513C6 15.9513 6 18.9513 6.38496 20.385C6.59735 21.1814 7.22124 21.8053 8.00442 22.0177C9.43805 22.4027 15.1593 22.4027 15.1593 22.4027C15.1593 22.4027 20.8938 22.4027 22.3142 22.0177C23.0973 21.8053 23.7212 21.1814 23.9336 20.385C24.3186 18.9513 24.3186 15.9513 24.3186 15.9513C24.3186 15.9513 24.3186 12.9513 23.9336 11.5177ZM13.2876 18.6726V13.2301L18.0796 15.9513L13.2876 18.6726Z" fill="white"/>
</svg>
