<svg width="20" height="20" viewBox="0 0 20 20" fill="none" xmlns="http://www.w3.org/2000/svg">
<path d="M0.174588 6.11101C0.31361 5.94773 0.517264 5.85366 0.731712 5.85366H19.2683C19.4827 5.85366 19.6864 5.94773 19.8254 6.11101C19.9644 6.27429 20.0248 6.49034 19.9906 6.70205L17.9419 19.385C17.8846 19.7394 17.5786 20 17.2195 20H2.78049C2.42142 20 2.11541 19.7394 2.05815 19.385L0.00936938 6.70205C-0.024829 6.49034 0.0355657 6.27429 0.174588 6.11101ZM1.5911 7.31707L3.40348 18.5366H16.5965L18.4089 7.31707H1.5911Z" fill="white"/>
<path d="M3.90244 6.58536C3.90244 3.00961 6.5738 0 10 0C13.4262 0 16.0976 3.00961 16.0976 6.58536C16.0976 6.98947 15.77 7.31707 15.3659 7.31707C14.9617 7.31707 14.6341 6.98947 14.6341 6.58536C14.6341 3.69536 12.5007 1.46341 10 1.46341C7.49928 1.46341 5.36586 3.69536 5.36586 6.58536C5.36586 6.98947 5.03826 7.31707 4.63415 7.31707C4.23004 7.31707 3.90244 6.98947 3.90244 6.58536Z" fill="white"/>
<path d="M6.58537 11.9512C7.12418 11.9512 7.56098 11.5144 7.56098 10.9756C7.56098 10.4368 7.12418 9.99999 6.58537 9.99999C6.04655 9.99999 5.60976 10.4368 5.60976 10.9756C5.60976 11.5144 6.04655 11.9512 6.58537 11.9512Z" fill="white"/>
<path d="M7.67915 13.9801C7.45401 13.6474 7.00212 13.5582 6.66729 13.7814C6.33105 14.0056 6.24019 14.4599 6.46435 14.7961L7.07317 14.3902C6.46435 14.7961 6.46435 14.7961 6.46435 14.7961L6.46513 14.7973L6.46601 14.7986L6.46804 14.8016L6.47326 14.8092L6.4883 14.8307C6.50036 14.8477 6.51655 14.8699 6.53688 14.8966C6.57749 14.9499 6.63489 15.0214 6.70921 15.105C6.85735 15.2717 7.07579 15.4898 7.36585 15.7073C7.94817 16.144 8.83012 16.5854 10 16.5854C11.1699 16.5854 12.0518 16.144 12.6341 15.7073C12.9242 15.4898 13.1426 15.2717 13.2908 15.105C13.3651 15.0214 13.4225 14.9499 13.4631 14.8966C13.4834 14.8699 13.4996 14.8477 13.5117 14.8307L13.5267 14.8092L13.532 14.8016L13.534 14.7986L13.5349 14.7973C13.5349 14.7973 13.5356 14.7961 12.9268 14.3902L13.5356 14.7961C13.7598 14.4599 13.6689 14.0056 13.3327 13.7814C12.9979 13.5582 12.546 13.6474 12.3209 13.9801L12.3203 13.981L12.3193 13.9824L12.3209 13.9801L12.3184 13.9838L12.3193 13.9824C12.3161 13.9869 12.3092 13.9963 12.2991 14.0097C12.2787 14.0364 12.2446 14.0792 12.197 14.1328C12.1013 14.2405 11.9538 14.3883 11.7561 14.5366C11.3628 14.8315 10.7813 15.1219 10 15.1219C9.21866 15.1219 8.63719 14.8315 8.2439 14.5366C8.04616 14.3883 7.89875 14.2405 7.80298 14.1328C7.75535 14.0792 7.72129 14.0364 7.70093 14.0097C7.69077 13.9963 7.68409 13.9871 7.68091 13.9826L7.67915 13.9801Z" fill="white"/>
<path d="M13.4146 11.9512C13.9534 11.9512 14.3902 11.5144 14.3902 10.9756C14.3902 10.4368 13.9534 9.99999 13.4146 9.99999C12.8758 9.99999 12.439 10.4368 12.439 10.9756C12.439 11.5144 12.8758 11.9512 13.4146 11.9512Z" fill="white"/>
</svg>
