<svg width="135" height="120" viewBox="0 0 135 120" fill="none" xmlns="http://www.w3.org/2000/svg">
<path d="M21.302 64.02C20.6819 63.08 19.6217 61.72 19.6217 60.36C19.6217 59.32 19.9417 58.28 20.4618 57.44L52.0273 13.76C52.3474 13.44 52.3474 12.92 52.3474 12.4C52.3474 11.04 51.3072 10 49.9469 10H17.2213C13.2406 10 10 13.44 10 17.42V102.68C10 106.76 13.2406 110 17.2213 110C17.2213 110 49.4068 110 49.9269 110C51.2872 110 52.3274 108.96 52.3274 107.6C52.3274 107.08 52.1273 106.56 51.9073 106.04L21.302 64.02Z" fill="#ED0000"/>
<path d="M108.257 45.6198C110.658 45.6198 111.818 44.5798 111.818 42.0598C111.818 39.8598 110.678 38.8198 108.257 38.8198C105.857 38.8198 104.696 39.7598 104.696 42.0598C104.796 44.4798 105.837 45.6198 108.257 45.6198Z" fill="#ED0000"/>
<path d="M108.877 56.7998H105.437V63.1798H108.877C110.657 63.1798 111.498 62.0398 111.498 59.8398C111.498 57.6398 110.657 56.7998 108.877 56.7998Z" fill="#ED0000"/>
<path d="M117.759 10H85.153C82.2325 10 80.2322 11.36 77.8318 13.44L23.6023 59.42C23.2823 59.74 23.2823 59.94 23.2823 60.36C23.2823 60.68 23.3823 60.98 23.6023 61.3L79.312 107.9C80.8723 109.16 82.9727 109.98 85.173 109.98H117.679C121.759 109.98 125 106.74 125 102.66V17.4C124.98 13.44 121.739 10 117.759 10ZM101.976 18.56H105.417V23.58L110.437 18.56H115.238L109.077 24.62L115.558 30.68H110.637L105.517 25.66V30.68H101.956V18.56H101.976ZM108.257 35.9C112.758 35.9 115.258 38.1 115.258 42.06C115.258 46.24 112.758 48.54 108.257 48.54C103.756 48.54 101.256 46.14 101.256 42.06C101.256 38.1 103.756 35.9 108.257 35.9ZM114.938 59.84C114.938 64.02 112.858 66.1 108.877 66.1H101.976V53.78H108.877C113.058 53.78 114.938 55.76 114.938 59.84ZM110.437 101.42L105.317 96.4V101.42H101.976V89.3H105.417V94.32L110.437 89.3H115.038L109.077 95.36L115.558 101.42H110.437ZM111.898 83.76L111.058 81.68H105.517L104.676 83.76H101.016L106.237 71.42H110.417L115.638 83.76H111.898Z" fill="#ED0000"/>
<path d="M106.577 78.9602H110.017L108.257 74.6802L106.577 78.9602Z" fill="#ED0000"/>
</svg>
