<svg width="104" height="90" viewBox="0 0 104 90" fill="none" xmlns="http://www.w3.org/2000/svg">
<path d="M18.2554 47.814C17.8024 47.156 17.028 46.204 17.028 45.252C17.028 44.524 17.2618 43.796 17.6417 43.208L40.6982 12.632C40.932 12.408 40.932 12.044 40.932 11.68C40.932 10.728 40.1722 10 39.1786 10H15.2747C12.367 10 10 12.408 10 15.194V74.876C10 77.732 12.367 80 15.2747 80C15.2747 80 38.7841 80 39.164 80C40.1576 80 40.9174 79.272 40.9174 78.32C40.9174 77.956 40.7713 77.592 40.6105 77.228L18.2554 47.814Z" fill="#ED0000"/>
<path d="M81.7704 34.934C83.5238 34.934 84.3712 34.206 84.3712 32.442C84.3712 30.902 83.5384 30.174 81.7704 30.174C80.0171 30.174 79.1696 30.832 79.1696 32.442C79.2427 34.136 80.0025 34.934 81.7704 34.934Z" fill="#ED0000"/>
<path d="M82.2233 42.76H79.7102V47.226H82.2233C83.5237 47.226 84.1374 46.428 84.1374 44.888C84.1374 43.348 83.5237 42.76 82.2233 42.76Z" fill="#ED0000"/>
<path d="M88.7107 10H64.8944C62.7612 10 61.3 10.952 59.5467 12.408L19.9356 44.594C19.7018 44.818 19.7018 44.958 19.7018 45.252C19.7018 45.476 19.7749 45.686 19.9356 45.91L60.6279 78.53C61.7676 79.412 63.3018 79.986 64.909 79.986H88.6523C91.633 79.986 94 77.718 94 74.862V15.18C93.9854 12.408 91.6184 10 88.7107 10ZM77.1825 15.992H79.6956V19.506L83.363 15.992H86.8697L82.3695 20.234L87.1035 24.476H83.5091L79.7687 20.962V24.476H77.1678V15.992H77.1825ZM81.7704 28.13C85.0579 28.13 86.8843 29.67 86.8843 32.442C86.8843 35.368 85.0579 36.978 81.7704 36.978C78.4829 36.978 76.6565 35.298 76.6565 32.442C76.6565 29.67 78.4829 28.13 81.7704 28.13ZM86.6505 44.888C86.6505 47.814 85.131 49.27 82.2233 49.27H77.1825V40.646H82.2233C85.2771 40.646 86.6505 42.032 86.6505 44.888ZM83.363 73.994L79.6225 70.48V73.994H77.1825V65.51H79.6956V69.024L83.363 65.51H86.7236L82.3695 69.752L87.1035 73.994H83.363ZM84.4296 61.632L83.816 60.176H79.7687L79.155 61.632H76.4811L80.2947 52.994H83.3484L87.1619 61.632H84.4296Z" fill="#ED0000"/>
<path d="M80.5431 58.272H83.0562L81.7704 55.276L80.5431 58.272Z" fill="#ED0000"/>
</svg>
