<svg width="50" height="50" viewBox="0 0 50 50" fill="none" xmlns="http://www.w3.org/2000/svg">
<path d="M40 40L31.1765 31.1765M34.7059 22.3529C34.7059 24.7961 33.9814 27.1844 32.624 29.2159C31.2667 31.2473 29.3374 32.8306 27.0802 33.7656C24.823 34.7005 22.3392 34.9452 19.943 34.4685C17.5468 33.9919 15.3457 32.8154 13.6181 31.0878C11.8905 29.3602 10.714 27.1591 10.2374 24.7629C9.76072 22.3666 10.0054 19.8829 10.9403 17.6257C11.8753 15.3685 13.4586 13.4392 15.49 12.0818C17.5214 10.7245 19.9098 10 22.3529 10C25.6291 10 28.7712 11.3015 31.0878 13.6181C33.4044 15.9347 34.7059 19.0767 34.7059 22.3529V22.3529Z" stroke="white" stroke-width="2" stroke-linecap="round" stroke-linejoin="round"/>
</svg>
