<svg width="12" height="11" viewBox="0 0 12 11" fill="none" xmlns="http://www.w3.org/2000/svg">
<path d="M6.2615 0.0917291C6.10862 -0.0305764 5.89138 -0.0305764 5.7385 0.0917291L0.157119 4.55683C-0.0234084 4.70126 -0.0526777 4.96468 0.0917445 5.14521C0.236167 5.32574 0.499591 5.35501 0.680119 5.21058L1.39536 4.63839V10.4651C1.39536 10.6963 1.58278 10.8837 1.81396 10.8837H10.186C10.4172 10.8837 10.6046 10.6963 10.6046 10.4651V4.63839L11.3199 5.21058C11.5004 5.35501 11.7638 5.32574 11.9083 5.14521C12.0527 4.96468 12.0234 4.70126 11.8429 4.55683L6.2615 0.0917291ZM4.60464 6.41859H7.39533C7.62652 6.41859 7.81393 6.606 7.81393 6.83719V10.0465H4.18604V6.83719C4.18604 6.606 4.37345 6.41859 4.60464 6.41859Z" fill="white"/>
</svg>
