<svg width="80" height="80" viewBox="0 0 80 80" fill="none" xmlns="http://www.w3.org/2000/svg">
<path fill-rule="evenodd" clip-rule="evenodd" d="M11.7157 11.7157C18.9513 4.48022 28.9552 0 40 0C51.0448 0 61.0487 4.48022 68.2842 11.7157C75.5197 18.9513 80 28.9551 80 40C80 51.0448 75.5197 61.0487 68.2842 68.2842C61.0487 75.5197 51.0448 80 40 80C28.9551 80 18.9513 75.5197 11.7157 68.2842C4.48023 61.0487 0 51.0448 0 40C0 28.9552 4.48025 18.9513 11.7157 11.7157ZM40 5.5814C30.4949 5.5814 21.8941 9.43077 15.6623 15.6624C9.43074 21.8941 5.5814 30.4949 5.5814 40C5.5814 49.5051 9.43078 58.1059 15.6624 64.3376C21.8941 70.5692 30.4949 74.4186 40 74.4186C49.5051 74.4186 58.1059 70.5692 64.3376 64.3376C70.5692 58.1059 74.4186 49.5051 74.4186 40C74.4186 30.4949 70.5692 21.8941 64.3376 15.6624C58.1059 9.43078 49.5051 5.5814 40 5.5814Z" fill="#FFB500"/>
<path fill-rule="evenodd" clip-rule="evenodd" d="M60.578 26.8639C61.6678 27.9537 61.6678 29.7207 60.578 30.8105L38.2524 53.1361C37.1626 54.2259 35.3956 54.2259 34.3057 53.1361L23.143 41.9733C22.0531 40.8835 22.0531 39.1165 23.143 38.0267C24.2328 36.9368 25.9998 36.9368 27.0896 38.0267L36.2791 47.2161L56.6313 26.8639C57.7212 25.7741 59.4881 25.7741 60.578 26.8639Z" fill="#FFB500"/>
</svg>
