<svg width="70" height="70" viewBox="0 0 70 70" fill="none" xmlns="http://www.w3.org/2000/svg">
<circle cx="35" cy="35" r="35" fill="#FEE500"/>
<path d="M35.1012 16.8921C24.212 16.8921 15.4303 23.9173 15.4303 32.4461C15.4303 37.982 19.0835 42.8294 24.5632 45.5974L22.7085 52.5244C22.6736 52.6283 22.6682 52.7397 22.693 52.8464C22.7178 52.9531 22.7718 53.0508 22.849 53.1285C22.9616 53.2278 23.1064 53.2827 23.2565 53.2831C23.3809 53.2731 23.499 53.2239 23.5937 53.1426L31.5745 47.7613C32.7525 47.9239 33.9401 48.0083 35.1293 48.0141C46.0045 48.0141 54.8002 40.9888 54.8002 32.4461C54.8002 23.9033 45.9764 16.8921 35.1012 16.8921Z" fill="#392020"/>
<path d="M22.3145 29.987H20.1648C19.8983 29.9948 19.6352 29.9265 19.406 29.7903C19.3043 29.7266 19.2168 29.6424 19.1491 29.5433C19.0814 29.4442 19.0349 29.3321 19.0126 29.2142C19.0058 29.1394 19.0058 29.0643 19.0126 28.9895C19.0059 28.8496 19.0331 28.71 19.0918 28.5828C19.1505 28.4556 19.239 28.3445 19.3498 28.2588C19.5948 28.0814 19.8904 27.9877 20.1929 27.9918H26.6702C26.9388 27.9823 27.2037 28.056 27.4289 28.2026C27.5331 28.2635 27.6224 28.3468 27.6904 28.4465C27.7584 28.5461 27.8035 28.6595 27.8223 28.7787C27.8292 28.8488 27.8292 28.9194 27.8223 28.9895C27.829 29.1314 27.8019 29.2729 27.7432 29.4023C27.6846 29.5318 27.5962 29.6454 27.4851 29.734C27.2461 29.9112 26.9533 30.0006 26.6561 29.987H24.5766V37.3777C24.5851 37.5351 24.5607 37.6925 24.5051 37.8401C24.4495 37.9876 24.3638 38.1221 24.2535 38.2347C24.1477 38.3425 24.0206 38.4269 23.8802 38.4826C23.7399 38.5382 23.5894 38.5639 23.4385 38.5579C23.1747 38.5654 22.9164 38.4811 22.7079 38.3191C22.5094 38.1609 22.3747 37.9363 22.3286 37.6867C22.3147 37.5842 22.3147 37.4802 22.3286 37.3777L22.3145 29.987Z" fill="#FEE500"/>
<path d="M28.4425 28.5396C28.5043 28.3084 28.6495 28.1081 28.85 27.9775C29.0637 27.8564 29.3072 27.798 29.5525 27.8089H30.0865C30.3468 27.7996 30.6047 27.8628 30.8311 27.9916C31.0712 28.153 31.2417 28.3987 31.3089 28.68L34.119 36.6187C34.1919 36.8258 34.2528 37.037 34.3016 37.2511C34.3065 37.34 34.3065 37.429 34.3016 37.5179C34.3064 37.6549 34.2812 37.7912 34.2278 37.9174C34.1744 38.0436 34.0941 38.1567 33.9925 38.2486C33.8941 38.3495 33.7759 38.429 33.6454 38.4822C33.5148 38.5354 33.3747 38.5611 33.2338 38.5577C33.0171 38.5792 32.7994 38.5273 32.6159 38.41C32.4324 38.2927 32.2937 38.1171 32.2222 37.9114L31.632 36.1832H27.9367L27.3466 37.9114C27.2768 38.1212 27.1364 38.3002 26.9494 38.4181C26.7624 38.5359 26.5402 38.5852 26.3209 38.5577C26.0833 38.5639 25.8506 38.4896 25.6605 38.3469C25.4753 38.1996 25.3504 37.9898 25.3092 37.7569C25.3018 37.6774 25.3018 37.5974 25.3092 37.5179C25.2851 37.3785 25.2851 37.236 25.3092 37.0965C25.3092 36.942 25.4076 36.7732 25.4638 36.6187L28.4425 28.5396ZM29.8476 30.3803L28.5128 34.5955H31.1684L29.8476 30.3803Z" fill="#FEE500"/>
<path d="M34.6234 28.9897C34.6092 28.6743 34.7203 28.3662 34.9325 28.1326C35.0404 28.0237 35.17 27.9387 35.3128 27.883C35.4556 27.8274 35.6084 27.8022 35.7615 27.8093C36.0247 27.8062 36.2816 27.8902 36.4922 28.0482C36.6873 28.213 36.8169 28.4423 36.8575 28.6945C36.8713 28.7923 36.8713 28.8918 36.8575 28.9897V36.3803H40.7214C40.9892 36.3768 41.2525 36.4498 41.4801 36.5909C41.5824 36.654 41.6703 36.738 41.7381 36.8372C41.8059 36.9365 41.852 37.0488 41.8735 37.167C41.8735 37.167 41.8735 37.3076 41.8735 37.3778C41.8802 37.5178 41.8531 37.6571 41.7944 37.7843C41.7357 37.9115 41.6471 38.0228 41.5363 38.1085C41.2914 38.2859 40.9957 38.3794 40.6933 38.3754H35.9442C35.6417 38.3948 35.3411 38.3161 35.0871 38.1507C34.8599 37.9808 34.7086 37.7285 34.6656 37.4482C34.6553 37.2938 34.6553 37.1388 34.6656 36.9844L34.6234 28.9897Z" fill="#FEE500"/>
<path d="M42.1267 28.9901C42.1183 28.6757 42.2287 28.3697 42.4358 28.1331C42.6464 27.9417 42.9165 27.8287 43.2006 27.8133C43.4848 27.798 43.7655 27.8811 43.9955 28.0487C44.1949 28.212 44.3294 28.4412 44.3748 28.6949C44.3818 28.7932 44.3818 28.8919 44.3748 28.9901V32.4325L47.9296 28.3296C48.0666 28.1896 48.2121 28.0584 48.3652 27.9363C48.5095 27.8504 48.675 27.8065 48.8429 27.8097C49.0885 27.8084 49.3286 27.882 49.5314 28.0205C49.6269 28.0849 49.7085 28.1679 49.7713 28.2644C49.834 28.361 49.8767 28.4692 49.8967 28.5826C49.9024 28.6104 49.9024 28.6392 49.8967 28.667C49.8899 28.6994 49.8899 28.7328 49.8967 28.7653C49.8962 28.9131 49.8575 29.0584 49.7843 29.1868C49.7097 29.3229 49.6202 29.45 49.5174 29.5661L47.1849 32.1234L49.9951 36.479V36.6195C50.141 36.8209 50.2547 37.0438 50.3323 37.28V37.3502C50.3485 37.513 50.3251 37.6773 50.2639 37.829C50.2027 37.9808 50.1056 38.1153 49.981 38.2213C49.7466 38.3985 49.4599 38.4925 49.1661 38.4884C48.9709 38.4964 48.777 38.4527 48.6041 38.3618C48.4169 38.2363 48.2627 38.0676 48.1544 37.87L45.541 33.6548L44.2905 34.9616V37.308C44.2989 37.6224 44.1886 37.9284 43.9814 38.165C43.8704 38.2736 43.7383 38.3583 43.5933 38.4139C43.4483 38.4695 43.2935 38.4948 43.1384 38.4884C42.8791 38.4938 42.6259 38.4093 42.4218 38.2494C42.2233 38.0912 42.0886 37.8668 42.0424 37.6172C42.0285 37.5147 42.0285 37.4105 42.0424 37.308L42.1267 28.9901Z" fill="#FEE500"/>
</svg>
