<svg width="20" height="14" viewBox="0 0 20 14" fill="none" xmlns="http://www.w3.org/2000/svg">
<path d="M2.97693 3.55507C4.70527 2.07208 7.18831 0.5 10 0.5C12.8117 0.5 15.2947 2.07208 17.0231 3.55507C17.8971 4.30506 18.6028 5.05339 19.0901 5.6142C19.3342 5.89507 19.5246 6.13013 19.6551 6.2965C19.7204 6.37971 19.7707 6.44584 19.8054 6.49203C19.8227 6.51513 19.8361 6.53325 19.8455 6.54604L19.8566 6.56119L19.8599 6.56568L19.861 6.56714C19.861 6.56714 19.8616 6.56808 19.3025 7C19.8616 7.43192 19.8613 7.43232 19.8613 7.43232L19.8599 7.43432L19.8566 7.43881L19.8455 7.45396C19.8361 7.46675 19.8227 7.48487 19.8054 7.50797C19.7707 7.55416 19.7204 7.62029 19.6551 7.7035C19.5246 7.86987 19.3342 8.10493 19.0901 8.3858C18.6028 8.94661 17.8971 9.69494 17.0231 10.4449C15.2947 11.9279 12.8117 13.5 10 13.5C7.18831 13.5 4.70527 11.9279 2.97693 10.4449C2.10286 9.69494 1.39725 8.94661 0.909886 8.3858C0.6658 8.10493 0.475394 7.86987 0.344902 7.7035C0.27963 7.62029 0.229272 7.55416 0.194608 7.50797C0.177273 7.48487 0.163855 7.46675 0.154452 7.45396L0.143367 7.43881L0.140104 7.43432L0.139046 7.43286C0.139046 7.43286 0.138372 7.43192 0.69754 7C0.138372 6.56808 0.138661 6.56768 0.138661 6.56768L0.140104 6.56568L0.143367 6.56119L0.154452 6.54604C0.163855 6.53325 0.177273 6.51513 0.194608 6.49203C0.229272 6.44584 0.27963 6.37971 0.344902 6.2965C0.475394 6.13013 0.6658 5.89507 0.909886 5.6142C1.39725 5.05339 2.10286 4.30506 2.97693 3.55507ZM0.69754 7L0.138661 6.56768C-0.0460275 6.82389 -0.0463166 7.17571 0.138372 7.43192L0.69754 7ZM1.59374 7C1.69178 7.12034 1.81008 7.2619 1.94726 7.41975C2.40136 7.94228 3.05806 8.63839 3.8674 9.33285C5.50589 10.7387 7.67408 12.0556 10 12.0556C12.3259 12.0556 14.4941 10.7387 16.1326 9.33285C16.9419 8.63839 17.5986 7.94228 18.0527 7.41975C18.1899 7.2619 18.3082 7.12034 18.4063 7C18.3082 6.87966 18.1899 6.7381 18.0527 6.58025C17.5986 6.05772 16.9419 5.36161 16.1326 4.66715C14.4941 3.26125 12.3259 1.94444 10 1.94444C7.67408 1.94444 5.50589 3.26125 3.8674 4.66715C3.05806 5.36161 2.40136 6.05772 1.94726 6.58025C1.81008 6.7381 1.69178 6.87966 1.59374 7ZM19.3025 7L19.8613 7.43232C20.046 7.17611 20.0463 6.82429 19.8616 6.56808L19.3025 7Z" fill="#333333"/>
<path d="M6.9767 7C6.9767 5.27157 8.33029 3.87037 10 3.87037C11.6697 3.87037 13.0233 5.27157 13.0233 7C13.0233 8.72844 11.6697 10.1296 10 10.1296C8.33029 10.1296 6.9767 8.72844 6.9767 7ZM10 5.31481C9.10093 5.31481 8.37207 6.06931 8.37207 7C8.37207 7.93069 9.10093 8.68519 10 8.68519C10.8991 8.68519 11.6279 7.93069 11.6279 7C11.6279 6.06931 10.8991 5.31481 10 5.31481Z" fill="#333333"/>
</svg>
